<mxfile modified="2023-05-02T15:20:52.037Z" host="app.diagrams.net" agent="Mozilla/5.0 (X11; Linux x86_64) AppleWebKit/537.36 (KHTML, like Gecko) Chrome/112.0.0.0 Safari/537.36" etag="UG57alRXmht8-12sIJVU" version="21.2.4" type="device">
  <diagram id="07fea595-8f29-1299-0266-81d95cde20df" name="Page-1">
    <mxGraphModel dx="5008" dy="1422" grid="1" gridSize="10" guides="1" tooltips="1" connect="1" arrows="1" fold="1" page="1" pageScale="1" pageWidth="1169" pageHeight="827" background="none" math="0" shadow="0">
      <root>
        <mxCell id="0" />
        <mxCell id="1" parent="0" />
        <mxCell id="698" value="" style="rounded=0;whiteSpace=wrap;html=1;shadow=0;labelBackgroundColor=none;strokeColor=none;strokeWidth=3;fillColor=#FFFFFF;fontSize=60;fontColor=#2F5B7C;align=left;" parent="1" vertex="1">
          <mxGeometry x="-2263" y="32" width="2203" height="1488" as="geometry" />
        </mxCell>
        <mxCell id="699" value="&lt;div style=&quot;font-size: 72px;&quot;&gt;&lt;b style=&quot;&quot;&gt;&lt;font color=&quot;#00273f&quot; style=&quot;font-size: 72px;&quot;&gt;&lt;br&gt;&lt;/font&gt;&lt;/b&gt;&lt;/div&gt;&lt;div style=&quot;font-size: 72px;&quot;&gt;&lt;b style=&quot;&quot;&gt;&lt;font color=&quot;#00273f&quot; style=&quot;font-size: 58px;&quot;&gt;Relação com os clientes&lt;/font&gt;&lt;/b&gt;&lt;/div&gt;&lt;div style=&quot;font-size: 36px;&quot;&gt;&lt;ul&gt;&lt;li&gt;&lt;font color=&quot;#00273f&quot;&gt;melhorar a &lt;b&gt;reputação&lt;/b&gt; da Microsoft entre desenvolvedores&lt;br&gt;&lt;/font&gt;&lt;/li&gt;&lt;/ul&gt;&lt;/div&gt;" style="rounded=0;whiteSpace=wrap;html=1;shadow=0;labelBackgroundColor=none;strokeColor=#6F8593;strokeWidth=5;fillColor=#ffffff;fontSize=12;fontColor=#2F5B7C;align=left;verticalAlign=top;spacing=30;" parent="1" vertex="1">
          <mxGeometry x="-950" y="220" width="420" height="540" as="geometry" />
        </mxCell>
        <mxCell id="700" value="&lt;font color=&quot;#00273f&quot;&gt;&lt;font style=&quot;&quot;&gt;&lt;b style=&quot;&quot;&gt;&lt;font style=&quot;font-size: 72px;&quot;&gt;&lt;br&gt;&lt;/font&gt;&lt;font style=&quot;font-size: 60px;&quot;&gt;Parceiros chaves&lt;/font&gt;&lt;/b&gt;&lt;/font&gt;&lt;font style=&quot;font-size: 36px;&quot;&gt;&lt;br style=&quot;font-size: 12px&quot;&gt;&lt;ul&gt;&lt;li&gt;&lt;font color=&quot;#00273f&quot;&gt;&lt;font style=&quot;font-size: 36px;&quot;&gt;&lt;font style=&quot;font-size: 36px;&quot;&gt;&lt;b&gt;funcionários&lt;/b&gt; da Microsoft&lt;/font&gt;&lt;/font&gt;&lt;/font&gt;&lt;/li&gt;&lt;li&gt;&lt;font color=&quot;#00273f&quot;&gt;&lt;font style=&quot;font-size: 36px;&quot;&gt;&lt;font style=&quot;font-size: 36px;&quot;&gt;&lt;b&gt;voluntários&lt;/b&gt; sem relação de trabalho com a Microsoft&lt;/font&gt;&lt;/font&gt;&lt;/font&gt;&lt;/li&gt;&lt;/ul&gt;&lt;/font&gt;&lt;/font&gt;" style="rounded=0;whiteSpace=wrap;html=1;shadow=0;labelBackgroundColor=none;strokeColor=#6F8593;strokeWidth=5;fillColor=#ffffff;fontSize=12;fontColor=#2F5B7C;align=left;verticalAlign=top;spacing=30;" parent="1" vertex="1">
          <mxGeometry x="-2210" y="220" width="420" height="900" as="geometry" />
        </mxCell>
        <mxCell id="701" value="&lt;font style=&quot;&quot; color=&quot;#00273f&quot;&gt;&lt;font style=&quot;&quot;&gt;&lt;b style=&quot;&quot;&gt;&lt;font style=&quot;&quot;&gt;&lt;font style=&quot;font-size: 72px;&quot;&gt;&lt;br&gt;&lt;/font&gt;&lt;font style=&quot;font-size: 60px;&quot;&gt;A&lt;/font&gt;&lt;font style=&quot;font-size: 60px;&quot;&gt;tividades chaves&lt;/font&gt;&lt;/font&gt;&lt;/b&gt;&lt;/font&gt;&lt;font style=&quot;font-size: 36px;&quot;&gt;&lt;br style=&quot;font-size: 12px&quot;&gt;&lt;div style=&quot;&quot;&gt;&lt;ul style=&quot;&quot;&gt;&lt;li style=&quot;&quot;&gt;&lt;font style=&quot;font-size: 36px;&quot;&gt;relatar &lt;b&gt;bugs&lt;/b&gt;&lt;/font&gt;&lt;/li&gt;&lt;li style=&quot;&quot;&gt;&lt;font style=&quot;font-size: 36px;&quot;&gt;sugerir &lt;b&gt;funcionalidades&lt;/b&gt;&lt;/font&gt;&lt;/li&gt;&lt;li style=&quot;&quot;&gt;&lt;font style=&quot;font-size: 36px;&quot;&gt;contribuir com &lt;b&gt;código&lt;/b&gt;&lt;/font&gt;&lt;/li&gt;&lt;/ul&gt;&lt;/div&gt;&lt;/font&gt;&lt;/font&gt;&lt;div style=&quot;font-size: 36px;&quot;&gt;&lt;br&gt;&lt;/div&gt;" style="rounded=0;whiteSpace=wrap;html=1;shadow=0;labelBackgroundColor=none;strokeColor=#6F8593;strokeWidth=5;fillColor=#ffffff;fontSize=12;fontColor=#2F5B7C;align=left;verticalAlign=top;spacing=30;" parent="1" vertex="1">
          <mxGeometry x="-1790" y="220" width="420" height="540" as="geometry" />
        </mxCell>
        <mxCell id="702" value="&lt;div style=&quot;font-size: 72px;&quot;&gt;&lt;b style=&quot;background-color: initial;&quot;&gt;&lt;font style=&quot;font-size: 72px;&quot; color=&quot;#00273f&quot;&gt;&lt;br&gt;&lt;/font&gt;&lt;/b&gt;&lt;/div&gt;&lt;div style=&quot;font-size: 32px;&quot;&gt;&lt;b style=&quot;font-size: 60px; background-color: initial;&quot;&gt;&lt;font style=&quot;font-size: 60px;&quot; color=&quot;#00273f&quot;&gt;&lt;font style=&quot;font-size: 60px;&quot;&gt;Recursos chaves&lt;/font&gt;&lt;/font&gt;&lt;/b&gt;&lt;font style=&quot;font-size: 32px;&quot;&gt;&lt;br&gt;&lt;/font&gt;&lt;/div&gt;&lt;div style=&quot;font-size: 32px;&quot;&gt;&lt;ul style=&quot;&quot;&gt;&lt;li style=&quot;font-size: 36px;&quot;&gt;&lt;font style=&quot;font-size: 36px;&quot; color=&quot;#00273f&quot;&gt;capital &lt;b style=&quot;&quot;&gt;intelectual&lt;/b&gt;&lt;/font&gt;&lt;/li&gt;&lt;/ul&gt;&lt;/div&gt;" style="rounded=0;whiteSpace=wrap;html=1;shadow=0;labelBackgroundColor=none;strokeColor=#6F8593;strokeWidth=5;fillColor=#ffffff;fontSize=12;fontColor=#2F5B7C;align=left;verticalAlign=top;spacing=30;" parent="1" vertex="1">
          <mxGeometry x="-1790" y="760" width="420" height="360" as="geometry" />
        </mxCell>
        <mxCell id="703" value="&lt;div style=&quot;font-size: 72px;&quot;&gt;&lt;b style=&quot;&quot;&gt;&lt;font color=&quot;#00273f&quot; style=&quot;font-size: 72px;&quot;&gt;&lt;br&gt;&lt;/font&gt;&lt;/b&gt;&lt;/div&gt;&lt;div style=&quot;font-size: 72px;&quot;&gt;&lt;b style=&quot;&quot;&gt;&lt;font color=&quot;#00273f&quot; style=&quot;font-size: 60px;&quot;&gt;Proposta de valor&lt;/font&gt;&lt;/b&gt;&lt;/div&gt;&lt;div style=&quot;font-size: 36px;&quot;&gt;&lt;ul&gt;&lt;li&gt;&lt;font style=&quot;font-size: 36px;&quot; color=&quot;#00273f&quot;&gt;melhorar a experiência de desenvolvimento do&amp;nbsp;&lt;b&gt;JavaScript&lt;/b&gt;&lt;/font&gt;&lt;/li&gt;&lt;/ul&gt;&lt;/div&gt;" style="rounded=0;whiteSpace=wrap;html=1;shadow=0;labelBackgroundColor=none;strokeColor=#6F8593;strokeWidth=5;fillColor=#ffffff;fontSize=12;fontColor=#2F5B7C;align=left;verticalAlign=top;spacing=30;" parent="1" vertex="1">
          <mxGeometry x="-1370" y="220" width="420" height="900" as="geometry" />
        </mxCell>
        <mxCell id="704" value="&lt;div style=&quot;font-size: 72px;&quot;&gt;&lt;b style=&quot;&quot;&gt;&lt;font style=&quot;font-size: 72px;&quot; color=&quot;#00273f&quot;&gt;&lt;br&gt;&lt;/font&gt;&lt;/b&gt;&lt;/div&gt;&lt;div style=&quot;&quot;&gt;&lt;b style=&quot;&quot;&gt;&lt;font style=&quot;&quot; color=&quot;#00273f&quot;&gt;&lt;font style=&quot;font-size: 60px;&quot;&gt;Segmentos de clientes&lt;/font&gt;&lt;/font&gt;&lt;/b&gt;&lt;/div&gt;&lt;div&gt;&lt;font color=&quot;#00273f&quot;&gt;&lt;br&gt;&lt;/font&gt;&lt;/div&gt;&lt;div style=&quot;font-size: 36px;&quot;&gt;&lt;ul&gt;&lt;li&gt;&lt;font color=&quot;#00273f&quot;&gt;desenvolvedores de &lt;b&gt;JavaScript&lt;/b&gt; (maior parte desenvolvedores web)&lt;/font&gt;&lt;/li&gt;&lt;/ul&gt;&lt;/div&gt;" style="rounded=0;whiteSpace=wrap;html=1;shadow=0;labelBackgroundColor=none;strokeColor=#6F8593;strokeWidth=5;fillColor=#ffffff;fontSize=12;fontColor=#2F5B7C;align=left;verticalAlign=top;spacing=30;" parent="1" vertex="1">
          <mxGeometry x="-530" y="220" width="420" height="900" as="geometry" />
        </mxCell>
        <mxCell id="705" value="&lt;div style=&quot;font-size: 72px;&quot;&gt;&lt;font color=&quot;#00273f&quot; style=&quot;font-size: 72px;&quot;&gt;&lt;b style=&quot;&quot;&gt;&lt;br&gt;&lt;/b&gt;&lt;/font&gt;&lt;/div&gt;&lt;div style=&quot;&quot;&gt;&lt;font color=&quot;#00273f&quot; style=&quot;&quot;&gt;&lt;b style=&quot;&quot;&gt;&lt;font style=&quot;font-size: 62px;&quot;&gt;Canais&lt;/font&gt;&lt;/b&gt;&lt;/font&gt;&lt;/div&gt;&lt;div style=&quot;font-size: 36px;&quot;&gt;&lt;ul style=&quot;&quot;&gt;&lt;li style=&quot;font-size: 36px;&quot;&gt;&lt;font style=&quot;font-size: 36px;&quot; color=&quot;#00273f&quot;&gt;Github, NPM&lt;/font&gt;&lt;/li&gt;&lt;li style=&quot;&quot;&gt;&lt;font style=&quot;font-size: 36px;&quot; color=&quot;#00273f&quot;&gt;typescriptlang.org&lt;br&gt;&lt;/font&gt;&lt;/li&gt;&lt;/ul&gt;&lt;/div&gt;" style="rounded=0;whiteSpace=wrap;html=1;shadow=0;labelBackgroundColor=none;strokeColor=#6F8593;strokeWidth=5;fillColor=#ffffff;fontSize=12;fontColor=#2F5B7C;align=left;verticalAlign=top;spacing=30;" parent="1" vertex="1">
          <mxGeometry x="-950" y="760" width="420" height="360" as="geometry" />
        </mxCell>
        <mxCell id="706" value="&lt;div style=&quot;font-size: 72px;&quot;&gt;&lt;font color=&quot;#00273f&quot; style=&quot;font-size: 72px;&quot;&gt;&lt;b style=&quot;&quot;&gt;&lt;br&gt;&lt;/b&gt;&lt;/font&gt;&lt;/div&gt;&lt;div style=&quot;&quot;&gt;&lt;font color=&quot;#00273f&quot; style=&quot;&quot;&gt;&lt;b style=&quot;&quot;&gt;&lt;font style=&quot;font-size: 60px;&quot;&gt;Estrutura de custos&lt;/font&gt;&lt;/b&gt;&lt;/font&gt;&lt;/div&gt;&lt;div&gt;&lt;font color=&quot;#00273f&quot;&gt;&lt;br&gt;&lt;/font&gt;&lt;/div&gt;&lt;div style=&quot;font-size: 36px;&quot;&gt;&lt;ul&gt;&lt;li&gt;&lt;font color=&quot;#00273f&quot;&gt;&lt;b&gt;mão de obra&lt;/b&gt; do contribuidores que são funcionários da Microsoft&lt;/font&gt;&lt;/li&gt;&lt;/ul&gt;&lt;/div&gt;&lt;div style=&quot;font-size: 36px;&quot;&gt;&lt;br&gt;&lt;/div&gt;" style="rounded=0;whiteSpace=wrap;html=1;shadow=0;labelBackgroundColor=none;strokeColor=#6F8593;strokeWidth=5;fillColor=#ffffff;fontSize=12;fontColor=#2F5B7C;align=left;verticalAlign=top;spacing=30;" parent="1" vertex="1">
          <mxGeometry x="-2210" y="1120" width="1050" height="360" as="geometry" />
        </mxCell>
        <mxCell id="707" value="&lt;div style=&quot;font-size: 72px;&quot;&gt;&lt;font color=&quot;#00273f&quot; style=&quot;font-size: 72px;&quot;&gt;&lt;b style=&quot;&quot;&gt;&lt;br&gt;&lt;/b&gt;&lt;/font&gt;&lt;/div&gt;&lt;div style=&quot;&quot;&gt;&lt;font color=&quot;#00273f&quot; style=&quot;&quot;&gt;&lt;b style=&quot;&quot;&gt;&lt;font style=&quot;font-size: 60px;&quot;&gt;Fluxo de receita&lt;/font&gt;&lt;/b&gt;&lt;/font&gt;&lt;/div&gt;&lt;div style=&quot;font-size: 32px;&quot;&gt;&lt;ul&gt;&lt;li&gt;&lt;font style=&quot;font-size: 32px;&quot; color=&quot;#00273f&quot;&gt;completamente &lt;b&gt;gratuito&lt;/b&gt; (não há versão paga)&lt;/font&gt;&lt;/li&gt;&lt;li&gt;&lt;font style=&quot;font-size: 32px;&quot; color=&quot;#00273f&quot;&gt;diferentemente de maior parte de projetos open source não aceita &lt;b&gt;doações&lt;/b&gt;&lt;/font&gt;&lt;/li&gt;&lt;/ul&gt;&lt;/div&gt;" style="rounded=0;whiteSpace=wrap;html=1;shadow=0;labelBackgroundColor=none;strokeColor=#6F8593;strokeWidth=5;fillColor=#ffffff;fontSize=12;fontColor=#2F5B7C;align=left;verticalAlign=top;spacing=30;" parent="1" vertex="1">
          <mxGeometry x="-1160" y="1120" width="1050" height="360" as="geometry" />
        </mxCell>
        <mxCell id="708" value="&lt;b&gt;&lt;font style=&quot;font-size: 72px;&quot; color=&quot;#00273f&quot;&gt;TypeScript - Business Model Canvas&lt;/font&gt;&lt;/b&gt;" style="text;html=1;resizable=0;points=[];autosize=1;align=left;verticalAlign=top;spacingTop=-4;fontSize=60;fontColor=#2F5B7C;" parent="1" vertex="1">
          <mxGeometry x="-2040" y="88" width="1280" height="90" as="geometry" />
        </mxCell>
        <mxCell id="S0BIfrFXJd5yPM7AB41x-725" value="" style="shape=image;imageAspect=0;aspect=fixed;verticalLabelPosition=bottom;verticalAlign=top;image=data:image/png,iVBORw0KGgoAAAANSUhEUgAAAQAAAAEACAMAAABrrFhUAAAA4VBMVEUAAAAxd8UweMYwcM8wd8Mwd8Uyd8Ywd8cwd8Ywd78xecUxd8YwecQwcL8wd8QweMQweMUwesUyd8Ywd8UweMcweMYwd8UxeMQweccweMQyeMUzesUyeMcxecYwdsYxeMUxd8UxeMalw+fl7vi/1exyodjy9/s+gMpKic1Lic2Ls9/L3fF+qtu/1O7Z5vSLs95+q9tkmtRLiM2lxOaxzOrm7vdXktD///9+qtxlmdSYvOKyzemYu+OYu+Klw+ZxotiyzOmyzOrY5vS+1e3Y5fWLtN5KiM1XkdHM3fBYkdAxeMbrkms6AAAAInRSTlMA798QQICPIK8gz+9wEJCQv2+vsJ+gz6BfYJ9vf89wv8/fV0HbfgAABRNJREFUeF7s081NxEAQBeEeyR5pZfmAOfBrL5POyz8gJJ9YWAKAqsqgP72u26aHbbT829q+zVP92vreAmi8Xu6f34PpHsFbC6jxXN/qgdVv538Nrn39ArAH2PXH/rFf8BJoR51dRqAt6wnwFGz9HEDArewBJHNVjYBbqqagm2oOuqO2oHusj6Ab1YJuqcATQAB4AggATwAB4AkgADwBBIAngADwBBAAngACwBNAAHgCCABPAAHgCSAAPAEEgCeAAPAEEACeAALAE0AAeAIIAE8AAeAJIAA8AQSAJ4AA8AQQAJ4AAsATQAB4AggATwAB4AkgADwBBPirCfBJ3t0kOYoDYRieszjLkhDVXVBgPnD7b2zPDM77H2gWFcGqQ0KoeqHM9wZ+sKQggoTP/fu5fzyJDL4iorp+7M7v00s4gJ18/0SwZ73bv74XAH8+XtN0qrEyU/tJGMC0M0iL+r0YAHsy2JLpnQSA6YHNncsHqGpAMYDtAM0AE0EzgO0AzQAVQTXAQFANMBioBhgMVANUBqoBKoJugBq6AU7QDVBBOcBDOUAD5QCElA4HIwxgwqoON391lr9y7dVfZiMD4Afizd7ybxqut59/AGCORwEAmuMlHQHmaAOXq2rmZID8bsFlmFSDSA/HkarmZ7EA8RXgeU3DrVgAg2ANr6y6lQnwX8L1jxKUCNAgVM9JVVQeQIdQjhOrSgKI74F3Tq44gBqBLgoADgjkFQAYBHpXAIBQXjvARTvAXTsAWuWnAGrtABjFA/xAMDNIB+gQjpxwgA9EMq1sgBbRTqIBrEG02gkG4BorOgkG+MCaaBQLYLEumoQCcI2VPUeZAC1WR6NEACasj7yTB9Agqd5JA+A70qpHYQAtUiPvJAFwh/R6JwjAEjIIBADwYJBBIACAG2yrc0IA+Iht0SgAIEsA5AQAZAmgsyIAuMHWyAkAyJsaOAkAyJsa7QQA5G0ETycAIGsZkBMBwOwpQ0ACAFe3rQJWAEAWQS0AII+gEwCQR9DKAWCuGkJqZEUALF1nJNaJAVhWAiGpQRgAs01bCbUggKVmxvpaYQDLSMzaLgIAso5FY2UCMFczVnWVCsC8bjvs5QKwPSKeEQzA3BKi/SsZgKs7Yr2LBmD7C5EusgHiTxX10gEsIdhdOgAPCEbiAfiMUEY+gEUw+QBcawfotAM0YgBcBoCITfD82ETwIeYYPIPcd+8Bc1EA2+ZB7qIA0v8ElZybofOmoaC/EcoXCAAav+0QRFsYQDLBYBDMFgaQSjAZBLtzqQAA9S+OZDtEuhQJsES7V+bHN9pSAZaoH3+LYPe9QTTikgGWTL3z0+uTv7Kfe797YlWjDIAlQ4SknACAnHrWDUBOOcCRdQMQKwdwygE86wboWDfAg3UDPK1ugF+WVQN0zJoBjGfVALNjzQDGFzw6W92QmTnasoenq38o7+cLGJ9vbwabmr2V8gKF642Q2OHYiniHyNLg31YjmDfvRH593rb+bTYIdXi7NO7/9s5mBWEYCMITk5Cipv6LHqwuiIoHwUPwVOwx+P4PZCnYKsWLx47fG8w3u3vdjr/fP17v57yI8RLCq/EQ4r7I619LPwkg5y9AcecfQLgF9DHlFjDDkFuAheEWYMB9BQWAZRYwB+CZBTiUpNwDAHjaKyAOFRmrgBVKiJdghJotY/4NGvyOL/9Y452UdP4b1sIUX2Vo4RZE9WtUtBQIRftW4yvGJkvV4ey9ZGLwwRPRliOFFIEFRwAAAABJRU5ErkJggg==;" parent="1" vertex="1">
          <mxGeometry x="-2210" y="64" width="128" height="128" as="geometry" />
        </mxCell>
        <mxCell id="CEV9l8MN5-AWiUajf7o9-722" value="" style="shape=image;imageAspect=0;aspect=fixed;verticalLabelPosition=bottom;verticalAlign=top;image=data:image/png,iVBORw0KGgoAAAANSUhEUgAAAoAAAAIACAYAAAASfd37AAAAAXNSR0IArs4c6QAAIABJREFUeF7snQmYHGW1/t9Tk2QSuMiiXrm4oMiiAknXTEKmqwMSBQVUVBTEXXGFK8qSTFcH7k3ikq5O2AQXQBSvGwquoKK4REi6ehIyXZ0oKIsKXtz+cpE1ZJJMnf/TCWCAJNNLVXUtbz+PD/jk+97znt/5ZvJS3V0l4IsESIAESIAESIAESCBTBCRT3bJZEiABEiABEiABEiABMADyEJAACZAACZAACZBAxggwAGZs4GyXBEiABEiABEiABBgAeQZIgARIgARIgARIIGMEGAAzNnC2SwIkQAIkQAIkQAIMgDwDJEACJEACJEACJJAxAgyAGRs42yUBEiABEiABEiABBkCeARIgARIgARIgARLIGAEGwIwNnO2SAAmQAAmQAAmQAAMgzwAJkAAJkAAJkAAJZIwAA2DGBs52SYAESIAESIAESIABkGeABEiABEiABEiABDJGgAEwYwNnuyRAAiRAAiRAAiTAAMgzQAIkQAIkQAIkQAIZI8AAmLGBs10SIAESIAESIAESYADkGSABEiABEiABEiCBjBFgAMzYwNkuCZAACZAACZAACTAA8gyQAAmQAAmQAAmQQMYIMABmbOBslwRIgARIgARIgAQYAHkGSIAESIAESCAkAoOL1uyCjdhdN2/aA5Dd/T7tg/Q9oqrrdVzXj2/y1z/yjLH1dy2euyEkC5Qlge0SYADkwSABEiABEiCBFggMfnDNZN1r476AvgCCfX3FvlDZvRnsxMDuUN0D0C3/f8u/S/PPMLkFaQgwDmC9AuuhWA/R9RB5ZMu/Q+8UMe4AcCc2bbqzf3zSHbULrUdb0eUaEtgRAQZAng0SIAESIAESADBYXLO79m3eF+q/AD729QX7CuQFgL8vtvwT+8QI1J8B3MFwGKOJJMwKA2DCBka7JEACJEACARA48eq+3P7PHxL1h6AyBMEQgOcFoNxzCQVuA3QNRNaoP77mgamb1/At5p6PJXYGGABjNxIaIgESIAESCJrA9HNXvahv8/iQKg4zRGYq/FmA9AddJ656CvxmSyhUWeMb42vW3fnXNbjmpObbznxllAADYEYHz7ZJgARIIM0EppdWzO6DMRsqM4Hm//Slae63k94U8KC6xhD9Rf+YcS0/V9gJxeTuYQBM7uzonARIgARIYBsCzdBnqHEsYBwj0NmE0x4BBX4owPf8Pvx07aes5mcM+UoxAQbAFA+XrZEACZBA2gkw9IUzYVVdbohxnaj+fLRi/TqcKlTtJQEGwF7SZ20SIAESIIG2CTD0tY2suw2K1TDkBkB/7pWtG7sT4+64EGAAjMsk6IMESIAESGCHBHJ2dRaA1/Dt3V4fEr1dIT8Q37/aWzpnTa/dsH7nBBgAO2fHnSRAAiRAAiESOHLh8qkPbOg/SQUnCvDaEEtRujMC10H0mocefuDqOy85bqwzCe7qFQEGwF6RZ10SIAESIIHtEphhu6YBnAjBSVC8mJhiT+BOEb1a/UlXe5XZa2Pvlga3EGAA5EEgARIgARLoOYETr9a+O+u1k0TRvOL3hp4booGOCCjwPVG92ptqXY3F4nckwk2REGAAjAQzi5AACZAACWyPwPQF1UP6fDlJVU8SkYNIKTUEfgvBNb7vX722MueW1HSVokYYAFM0TLZCAiRAAkkhYBZrx0L0vWi+1ctX2glcCu27lG8Px2vMDIDxmgfdkAAJkECqCQwMrxxSMU6H4G2pbpTNPZXAJgCX+epfyiuC8TgcDIDxmANdkAAJkECqCcworTrQ0PHTAXwk1Y2yuYkIPKrApSp9l64tz759osX88/AIMACGx5bKJEACJJB5AmbppmdDJ50O1dMhskfmgRDAVgKCB1Vx2SSMX7rGOfwPxBI9AQbA6JmzIgmQAAmknkDzW72/92qnQ3G6AvulvmE22BkBwX0CvbTPmHzpzZ867H87E+GuTggwAHZCjXtIgARIgAR2SCBXqr1b1D8dkEFiIoEWCfwdgss2bsCnb7nQuq/FPVzWBQEGwC7gcSsJkAAJkMC/CAwUa69TA823e48mFxLokMAtqljSqFjf6HA/t7VIgAGwRVBcRgIkQAIksH0C5vDKfcToO0ehp5ERCQRE4KviS7m+NP/bgPQo8xQCDIA8EiRAAiRAAh0TGChV36u+nAPhI9s6hsiN2yegeq+IsaTu5C8kouAJMAAGz5SKJEACJJB6Alue4KHGOVA9OfXNssGeEhDgBhUs8crWjT01krLiDIApGyjbIQESIIGwCZil2lmAngPFXmHXoj4JPEFA4Ex52CivumToQVLpngADYPcMqUACJEACmSBgFqtHqOAcgbwqEw2zyRgS0LW+GkvWVvJXx9BcoiwxACZqXDRLAiRAAtETyJ/pTnu0X5vB75zoq7MiCTydgKpcublPSr9ZMvR38umMAANgZ9y4iwRIgAQyQSBXrL5eZEvwm5WJhtlkggjoWsCY5zn5nyfIdGysMgDGZhQ0QgIkQALxIjBQcs9QBb+BGa+x0M2TCfgCmcdvCrd/LBgA22fGHSRAAiSQegKmXXMALaa+UTaYCgLNt4Q3bdR5fIpI6+NkAGydFVeSAAmQQCYIDBSrl6vIBzLRLJtMDwHBGgDzeLuY1kbKANgaJ64iARIggdQTKAyv3G29YfwUQD71zbLBtBIYE2Be3bE+k9YGg+qLATAoktQhARIggQQTMM+u7ovJcleCW6B1EniCgAKX9z9izOc9A3d8KBgA+QNDAiRAAhknYJZGXgb1b8k4BrafNgKqI2oY8xrlfDVtrQXRDwNgEBSpQQIkQAIJJmDa7noA0xLcAq2TwI4IPALRU71y4atE9GQCDIA8ESRAAiSQYQKm7f4CwCsyjICtZ4CAKs5oVKxPZ6DVlltkAGwZFReSAAmQQLoI5OzaJ6X5TF++SCALBAQf98rWwiy02kqPDICtUOIaEiABEkgZgYGS+1pVXJeyttgOCUxE4DOeY50+0aIs/DkDYBamzB5JgARI4CkETLu6BpBBgiGBzBEQfMMrW2/PXN9PaZgBMOsngP2TAAlkjsCAXf2gQi7LXONsmAT+ReAnnmMdm2UgDIBZnj57JwESyCQBXv3L5NjZ9FMJCFZ7ZWt2VsEwAGZ18uybBEggkwR49S+TY2fTOyZwp+dYB2QREANgFqfOnkmABDJLgFf/Mjt6Nr4jAoL7vLL1zKwBYgDM2sTZLwmQQGYJ8OpfZkfPxlsg4DlWpjJRppptYf5cQgIkQAKpJWDatW8C+pbUNsjGSKAbAoK7vbL1wm4kkrSXATBJ06JXEiABEuiCgGm7/wvgeV1IcCsJpJyArvCcwhEpb3JLewyAWZgyeyQBEsg8gcEFtQHf19HMgyAAEpiAgEK/1nAK70w7KAbAtE+Y/ZEACZAAALNUOxWqnyMMEiCBiQko5FMNJ3/uxCuTu4IBMLmzo3MSIAESaJmAaVe/DcibWt7AhSSQdQKqH/UqhUvSioEBMK2TZV8kQAIksA0B03bvA7AnoZAACbROQERPqZcLV7a+IzkrGQCTMys6JQESIIGOCOTOWL6HTO3/Z0ebuYkEMk5AgZMajnVN2jAwAKZtouyHBEiABJ5CIDd/5ADp828nGBIggQ4JqBznVfLXd7g7ltsYAGM5FpoiARIggeAI5IquJYJqcIpUIoHMEdgo0ndUvTx7RVo6ZwBMyyTZBwmQAAnsgEBu2H2DGPgeAZEACXRF4C4fOGGtY3ldqcRkMwNgTAZBGyRAAiQQFoFcsfoBEbk8LH3qkkB2CMhayKajvfIR/0h6zwyASZ8g/ZMACZDABARyxdoCEf0UQZEACQRAQPBFr2y9PwClnkowAPYUP4uTAAmQQPgEzGL1VIjwJtDho2aFrBBQPc2rFD6f5HYZAJM8PXonARIggRYI5EorjxM1ftTCUi4hARJojcADCj264RRubm15/FYxAMZvJnREAiRAAoESmFFcfbAhm38TqCjFSCDrBAS/8Mr5owHRJKJgAEzi1OiZBEiABNogcNDwyt12MYwH29jCpSRAAi0RkIrn5O2WlsZsEQNgzAZCOyRAAiQQBgGz5P4fFHuFoU1NEsgygaQ+KYQBMMunlr2TAAlkhoBZrHoQyWWmYTZKAlEREPx+fFPf0evOm/3HqEoGUYcBMAiK1CABEiCBmBMwbfcSAB+JuU3aI4GEEpBveU7+5CSZZwBM0rTolQRIgAQ6JJAr1QqiurLD7dxGAiQwAQGFP9xw5ixLCigGwKRMij5JgARIoEsCpl29G5AXdCnD7RMT8AE8CtVHIbJegEdV8SgEjwK6GYppEExTYJpApj3+/wH0TyzNFTEmMO77/tFrl85ZHmOPT1hjAEzClOiRBEiABAIgMGCPLFX48wOQosQWAnK7Qm8HcIdAbhf4t2/2+25ft3Tonk4A5c90p22Y0negyviBBvRAhRwI4AAAzX8+sxNN7omWgAKrHvX9o29bOuehaCu3X40BsH1m3EECJEACiSRg2rWjAP1ZIs333vTvINIQxWoVf8QrF2pRWjKHV+6jIrMgmAVglojM5Le6o5xA67VUdWmjUii2vqM3KxkAe8OdVUmABEigJwTMons7ZMtVJb52QkAhqwD/J/Cl4cNY0+lVvTAhD9gjg8D4oEIKAI4CsE+Y9ajdMgFffKNQXzo00vKOHixkAOwBdJYkARIggV4RMO1qERCnV/XjXHdr6MP1vmz+ybry4c1/T8zryIV/nPrgxr8eBcVRujUMHpwY82k0qviuV7HeFOfWGADjPB16I4GYEXjZwqunTNuw3zTD96dt6BvbxVCZZkzCNPEnT1Ns3qyb8ahOmrR+irHhUX+D/yh222396MLB5gfhE/mopJjhD8bOQjXMsZEqoEPBCCZe5WaF/tgX//qkhb6dkW9+6xvqHy2QEwAcmvgpJbABUeOd9crQ1+JqnQEwrpOhLxKIgMCs+av3Hp+kB+j4pgNhyAFQOQCC5zS/objlm4nALtjyTUVMU9VdINLXoa0NgD4KyPot347c8g3JLd+KXC8id/iqd0Bwh/r+HZum/uWOWxeftLHDOtzWAgHTrr4JkG+3sDTNS64R4Kq6Y30vzU02ezNLteOhOAHwm3P/t7T3G6P+1o31jxVuXTz34Rh5esIKA2Acp0JPJBAggcGzlz/LnzLlAPhywNaQ5x8AkQNEcYACuwVYKkipu5vfrITqHWLI7b6vd6gx6Y61Sw67g1cTg8Gcs2tfFeg7glFLjMo9ClzV/N9ax/IS4zogo7POufH5mzZPPkGkGQZxRECylNkZAcXHvYq1MI6QGADjOBV6IoEOCUwfHnlen4zPgUgBisMgegAge3YoF9dtdwK4BdAVCtzUcAo3x9VonH2ZxRUzIH1VALvG2Wcw3nQUYnxRp0y9qrHYvD8YzWSr5IrV14shp0Lx6mR3Env369XQQmNJoRE3pwyAcZsI/ZBAGwSaf4mrGAVpBj5gNhQvbmN7WpZuEOAmVV0BMUYMnXzzaGXmA2lpLsw+cnZ1kUBieXUimL51VIDL607h8mD00qcyYNfeotBTAbw8fd3FpCPFN7yK9faYuHnCBgNg3CZCPySwAwLNL2BMGXu+JfBnK2S2NAMfb/uwXVqK5iPPpHmftpsBubnh5O/iwdo+AbPoXgHB+9LFh8Gv3XnmSrV3Q3GqQJu/V/gKmoDoiV65EKvP3TIABj1k6pFAgAQGF9QGxn3/eIHRfDu3eYVvrwDlsyOlaAjkZhVdPr5512vXnTfjkew0P3GnZsn9SSreCmzOWfTzvOI38cx3tMIs1k6H6AIAe3euwp1PI6BYvfvUscKvFs/dHBc6DIBxmQR9kMBjBA61V+zXp32vE8HxAF5BMEETkHsg/nWicm3dsX4StHpS9Uzb/U2S7x0niov8sbHFjYvm8jN+XR7CAdvd31dZIKLv7VKK27clIEbJKw/F5h6cDIA8niQQAwKH2iv27JNJx4vidYA2g9/kGNhKvQUBfqPAdeIb18b9rv1RDMO03eZnJ58RRa3AaigaqljcWGp9PzBNCm0hkLPdEw2gpIBJJAEQUNxnGCiMlq3fBaDWtQQDYNcIKUACnRJQyRXd4wXyOkgz9MmzO1Xivu4JND83aECuFcF1cfkF3X1X7SuYtnsHgP3b3xn9Dl71C5/5yxYu/7f+sf7mW8Kl8KtloILiMq9ifTgOnTIAxmEK9JApAmaxegTEaF7la17tOzBTzSemWblOxb+uX/quXbVk6O+JsR2QUbNUvRgqpwckF4KMrFVfF/GqXwhodyA5YLvHKHAhgJdEVzWVlTZCDNMrD93a6+4YAHs9AdbPBIH8me60R/v1vSLS/KbdYZloOh1NPgDoNapyZaNiueloqbUuTNs9BcAXW1sd3SoR+YJsnLxg9PyZ90ZXlZWaBHJ27YWG6oUqeAOJdENAz/ecwrxuFILYywAYBEVqkMAOCJilm54tmPxe3/dPEZGDCCrBBES+6at/5VqncEOCu2jL+mNXfS4FsG9bG0NZ3Ly1i7Gs7uS/FYo8RVsmYJbcMhR2yxu48EkEVHFfH6aYo5WZf+olGgbAXtJn7dQSmH7uqhf1bdp8CkSa36J7bmobzWBjCvzQELmyXs5/NwvtDxbdQ31DPgDVd/fkCyKC+0XlvAcf+ed5d15y3FgWmCehx5xdfY+oXAjBHknwGzePCl3ccAqLeumLAbCX9Fk7dQQG5t003e+b9F4RNIPf7qlrkA1tS+BXUFzpVayvZAFL8z9qjM2b3y0q74LgRVH0LNAvq/Qti8PnpaLoN2k1BoZXDqlhNJ+ycmjSvPfer/5pY7+Ytyy27uuVFwbAXpFn3VQRyBVda+s9s7Zc8etLVXNsZucEBGtU9cppY3Jl7ULr0bTjmr1w5BkbN4y/W0Xe/tjTaAJtWYFVAvyy+Xg/3qcxULShiOXOHTlANvtfBzArlAKpFjXmec7Q+b1qkQGwV+RZNxUEZtjVVxlivBeqJ6eiITbRMQFVvc0wjC8pNl3plY/4R8dCCdo4o7j64D4ZfxWgr1ToUYD0d2ZfrlWMX2fA+FXdse7sTIO7ekXgxBOv7rvzxc9bDuDwXnlIaN1bxvqfMXDr4kM29sI/A2AvqLNm4gkMFkfm+DI+H5Dm7Vz4IoFtCfxZRC6uTxk6D4vFzwyaE6/uy+2/z6tFjSFAdoFgF6juCsUuENkF0F0EcpcP/24AdwH+XcCku/ic5vScELNUuwGqR6eno/A7EcGH62XrsvArPb0CA2AvqLNmYgnMmr96783GpvkQOSuxTdB4RAR0RMRYlpUvi0QElWViTsAsuV+H4m0xtxkbewpZ1XDyQ70wxADYC+qsmUgCpl37sMKfL5D9EtkATfeEgEK/Zhh9y+pLhtb1xACLkkDEBHJ2dZFAFkZcNrHlFPKOhpNvfo4y0hcDYKS4WSyJBEy7dtRjwe9VSfRPz7Eg8DAEy4z+KeeNLpq5PhaOaIIEQiQwYLtLFZgfYon0SAt+4ZWto6JuiAEwauKslxgCW+56D3++Qk5LjGkajTcBRUP7sKyxxPpGvI3SHQl0T2DArn1Wofz92QJKVX1Do1L4QQtLA1vCABgYSgqlicBAyT1Ddct/ve6Tpr7YS0wIKL7tT8KytZ+yVsfEEW2QQCgETNv9MoDmTcT52jmBqzzHivSzkwyAPJIksA2BgZL72seC3xEEQwIhE9gM9c/bONVY1subwYbcI+VJAKZd/TYgbyKKnRJ4ZNwfe8m6pXPviYoTA2BUpFkn1gTM4ZX7wDA+AeCUWBuluTQS+B0U5aw8USSNA2RPOydwqL1iz0noa769yfsE7gyVymleJf/5qM4TA2BUpFkntgTM0srjoX1lQF8WW5M0lgECcrExdXKJXxLJwKgz2OL04ZUHGYb8mHdR2Onwf+I51rFRHQ8GwKhIs04sCZilkcVQ/79jaY6mskjAhWrJqxRuymLz7DndBMzSyJuh/jXp7rK77sYNPXTdksJvulNpbTcDYGucuCplBAYWjExXX5tX/Y5LWWtsJ/kENj4WAi9IfivsgASeTMAsumUIbHLZPgEFFjQcqxwFHwbAKCizRqwImLbb/Jxf8wfs32NljGZIYFsCgm8Y/nhptHL4nwiGBNJEYMB2f6oA76u63aHqiOcU8lHMmwEwCsqsEQsCsxeOPGPTmJZ5X6pYjIMmWiIgt4s/XqovnfPdlpZzEQkkgEBuweqc+OM/A/RZCbAbuUVDjcNHK0Mrwy7MABg2YerHgsCAXX2FipShOCwWhmiCBNogICJL6uX8OW1s4VISiDUBc9h9HwxcEWuTPTKnwLKGYw2HXZ4BMGzC1O85gYFidXhL+AOMnpuhARLokIAAN8i4lEaX5esdSnAbCcSKAJ8UssNx/M5zrJeGPSwGwLAJU79nBGbaK/bzpa+sipN6ZoKFSSBIAoL7RLVUdwqXBylLLRLoBYHDSqueuUnHm291vqQX9eNcUwSvq5etH4bpkQEwTLrU7hkB85xVMzHufwXQ0P8rqmdNsnBmCUT1FlFmAbPxyAjk7Np7BHplZAUTUkhUvlCv5D8Ypl0GwDDpUrsnBHJ27UgRfAWqz++JARYlgQgIqOqVjUqBT66JgDVLhEvALLrfgeCEcKskS12Bv/fplINGKzMfCMs5A2BYZKnbEwKPPcv3up4UZ1ESiJ7AdZ5jHR99WVYkgeAIzBh2DzMMNN8KnhycavKVFDip4Vih3TibATD5Z4QdPEbALFZPhshVBEICGSNQM6ZOOYqPkMvY1FPWrlmqfQKq56asrS7bkfM9Jz+vS5EdbmcADIssdSMlkLNr7xfoFyItymIkEB8Cd4z7xivWLR26Jz6W6IQEWifwsoXL/61/bMpKQGa0viv1K6ueY80Jq0sGwLDIUjcyArmSe4YoLoysIAuRQDwJ/FMM48j6kqF18bRHVySwcwKm7b4VwDfI6TECquPG5o17j54/994wmDAAhkGVmpERMO3aeYCeHVlBFiKBmBNQyNyGk/9VzG3SHglsl4Bpu9cDOIZ4thJQwRsbZev7YfBgAAyDKjUjIWAWq9dA5M2RFGMREkgQARF5U72c5+PjEjQzWt1KYMBe+RaF8U3yeJyAVDwnb4fBgwEwDKrUDJ2AWXJX8bFuoWNmgQQTUMgHGk6ej9pK8Ayzat20XRdAPqv9P6XvGz3HOjIMFgyAYVClZqgETNv9G4DnhFqE4iSQAgIiUqyX80tT0ApbyBCBAbv6QYVclqGWd9iqABs29N+z+62LT9oYNA8GwKCJUi9UAqbtaqgFKE4CaSMg+jGvXLg4bW2xn/QSeNnCq6f0jz2v+czrg9PbZeudCfSVdafwy9Z3tLaSAbA1TlwVAwIMfzEYAi0kkoCqvrZRKfwokeZpOpMEciV3niiWZbL5pzatWOhVrI8HzYIBMGii1AuFAMNfKFgpmiEChiGDo0vyzasqfJFA7AkMLlrzLH/DRg/A82JvNnyDP/cc6+igyzAABk2UeoETYPgLHCkFM0pAx40DG8uG7sho+2w7YQTMUvViqJyeMNth2H3Yc6zdghZmAAyaKPUCJcDwFyhOipHAw1MMY/9VS4b+ThQkEHcCZrF2LER/HHefkfjr82d5n5qzJshaDIBB0qRWoAQY/gLFSTESeIyArjWm9lt8djAPRBIImLbbvGK9fxK8hulRBGfWy9ZFQdZgAAySJrUCI8DwFxhKCpHA0wkovutVrDcRDQnEnQDfBn58QnKF5+Q/EOS8GACDpEmtQAgw/AWCkSIksFMCqnplo1I4hZhIIM4E+DbwY9MR3OiVg70hNANgnE9+Br0x/GVw6Gy5ZwQE+HTdsc7omQEWJoEWCPBt4C2Q/uI51nNbwNXyEgbAllFxYdgEGP7CJkx9EtgOAZFPeuX8f5ENCcSVAN8G3jqZsQfHdrv1c3MfDmpODIBBkaROVwQY/rrCx80k0BUBEeOUennoyq5EuJkEQiLAt4G3gvWBgbWO1bw3YiAvBsBAMFKkGwIMf93Q414SCIKAPADxj/XKhVoQatQggSAJTJ+3dte+vofvgcgeQeomTctXecvaSv7qoHwzAAZFkjodEWD46wgbN5FA4AQUWDWO8WN/7Rz+z8DFKUgCXRIYsN0fKvCaLmUSvV2g59adwqeCaoIBMCiS1GmbAMNf28i4gQTCJvA/nmO9J+wi1CeBdgnkirUFIhpY+Gm3fkzWB/rzyQAYk6lmzQbDX9Ymzn4TQ0BR8iqWkxi/NJoJAoOl2mxfdSQTze64SddzrEJQDBgAgyJJnZYJMPy1jIoLSaAnBFSNNzQqQz/oSXEWJYEdEDDt2l8B3TvDgP7hOda/B9U/A2BQJKnTEgGGv5YwcREJ9JrAXX2+f8yapXNu67UR1ieBxwkMlNxvqeKkLBPR/ml7Nhab9wfBgAEwCIrUaIkAw19LmLiIBGJCQK73nPxxMTFDGyQAs+S+D4orsoxCoYc1nMLNQTBgAAyCIjUmJMDwNyEiLiCB2BFQ4MKGY50VO2M0lEkCZnHVDMh4I5PNP9a0Gnh7Y4n1jSAYMAAGQZEaOyXA8McDQgLJJSDQD9WdwuXJ7YDO00Jg9sKRZ2wc8x9ISz+d9KHQxQ2nsKiTvU/dwwAYBEVq7JAAwx8PBwkknIDgPt/3j1hbmXNLwjuh/RQQMO3avYA+MwWtdNaCygVeJX92Z5ufvIsBMAiK1NguAYa/1B2MDQCaNwlufgD5n4DcD9X71cA/m/8UGFMhugd87AnBHgLsqYI94OueWb+Df+JPguAbXtl6e+L7YAOJJ2Da1TWADCa+kY4b0Cs8p/CBjrdvs5EBMAiK1HgaAYa/RB6KZsD7IyB/VNE/iuofRYw/jjf/2T/tj91+82ymvWK/cUzaT+DvpzD2A/Sx/8l+APZMJLEsmRZ9l1cufDVLLbPX+BEwi+41ELw5fs6iciTf8pz8yUFUYwAMgiI1nkSA4S8pB0LHAKkK5Jc+/BuC+mZZJ93n7NoLAf9IA8Yc33bFAAAgAElEQVTLFXokgBd2osM9oRL4rTF1yhGji2beG2oVipPATgjkbHepAPMzDOl6z7EC+XY+A2CGT1EYrTP8hUE1UE1XgKqvWp22UW6oXWg9Gqh6QGKDRfdQHzIHhs6BYg6AFwQkTZkuCPBbwV3A49ZACJjF6qkQ+VwgYskUqXqO1fyd2PWLAbBrhBR4nADDX2zPwvVQuV5Er6871p2xdbmz/+ovVl8jBl4DlebD4BkGezhEH/rqtU7hhh5aYOkMExiw3WMUuD6zCETWeeX8jCD6ZwAMgiI1wPAXu0OQ+NC3PaL7X3xH/zP+eu9rVPU1QDMM6nNiRz79hm70HKv5Nj1fJBA5gQF7ZFDhr4m8cHwK3uU51ouCsMMAGATFjGsw/MXjACiwSlS+nuQrfe2QHCyu2X0cG1/T/EC4AG9sZy/XdklAUfIqltOlCreTQNsEBudXX+z3SSLfyWi72e1sUMV9jYoVyG1wGACDmEiGNRj+ej98gd6gkC97jnVV7930xkGuVCtA9V0CvBPAtN64yFBVwYPw+47wKrPXZqhrthoDAoeVfv7MTbpLlr+ItMlzrClBjIIBMAiKGdVg+Ov54K9R8b/cKM/5cc+dxMTAjNKKAw1Meieg74Ri35jYSqUNEVxdL1tvSWVzbCq+BBaqYY7VxuNrMHxnU8ewSxBf4GMADH9WqazA8NfLscoVKvhyo5yv9tJFnGvnFnp7yMb17xKV9yhgxtlrkr2J6Cn1cuHKJPdA78kjYNpu83Fwz0ie82AcbzKMvX+zZOjv3aoxAHZLMIP7Gf56NXS9VuFf2HAO/1WvHCStbv5Md9qGKZgvgnkK7JY0/7H3K6h7U/KzsFj82HulwdQQMG33LiC7V/gFOCCIOzowAKbmRyKaRhj+ouH8pCqCuvh6Yb1S+FoPqqei5MC8m6brpEnzsPUzgnwFSECh/9lwClm+L1uANCnVCgHTrjYACeRWKK3Ui9saw5DB0SX5ere+GAC7JZih/Qx/UQ9b/wGRCx56+P4L77zkuLGoq6ex3kCpdoL6/nyIDKWxvx719OuHHrl/Fs9oj+hnsKxpu8sBZPZWRIrxuUG8E8QAmMEfnk5aZvjrhFrnewT6OZmEC0Y/Wfh95yrcuV0CCxcaAxuPmaeK/wZ0V1LqnoAqzmhUrE93r0QFEpiYgGnXGoBm9wrguAyOLuMVwIlPCld0TYDhr2uErQsI7lPVsxtO4cutb+LKTggMFkfm+OJfAGBWJ/u550kEfju+eddZ686b8Qi5kEDYBEzbvTvLTwTiZwDDPmHU30KA4S+6g6DQlQDOajiFm6Ormu1KB5/p7tXfL+cr9D3ZJhFE9zrPcwrnB6FEDRLYGYEB230wy1/qGt+sz1l3XuH/dXtK+BZwtwRTvJ/hL8LhCi4b3/TQ2evOezWvoESI/fFSOdudL8DSHpROU8k7dcPYrMZFc+9PU1PsJV4Ejly4fNIDY/2b4uUqWje7949N+9XiuRu6rcoA2C3BlO5n+ItssJsherZXLlwcWUUW2i6BXGnkOEP9CxQ4iIg6JMBHxHUIjttaJWCWbno2dFLXV79arRfDdRs9x+oPwhcDYBAUU6bB8BfNQBX4jRg4w1ti/SKaiqwyEYGcXXshoBfw2cITkdrhn99lTJ0ya3TRzCw/qqtjeNw4MYEZpVUHGjp+28Qr07pC7vWc/LOD6I4BMAiKKdJg+ItomIJfjPf1fWDdJ2f/MaKKLNMGAdN2vwjglDa2cOnjBFT/y6sUPkkgJBAGgcFSbbavOhKGdhI0BfhD3bFeHIRXBsAgKKZEg+EvqkHKt8Y37/I+fmMyKt6d1Rkouheq4IzOdmd6158NY/Os0SVH/DXTFNh8KARyJfcNovheKOJJEBU0vLIVyOMtGQCTMPAIPDL8RQB5a4kveY71vsiqsVBXBMySuxhb7hfIVzsEBBiuO9aydvZwLQm0QmDArp2p0ObtmzL60hWeUzgiiOYZAIOgmHANhr+IBihyiVfOfzSiaiwTEAHTdt8K4BsByWVDRrDGK1u8v2I2ph1pl2apejFUTo+0aIyKCfRHdafw2iAsMQAGQTHBGgx/UQ1PK55TsKOqxjrBEpi5oHrIuC+/DlY13Wqicny9kr8u3V2yu6gJ5Gz3OgECCUBRew+o3lWeY70tCC0GwCAoJlSD4S+awSl0ccMpLIqmGquESYA/M23R/arnWO9qawcXk8AEBEy7+htADs4sKMVlXsX6cBD9MwAGQTGBGvyLLJqhMfxFwzmqKofaK/achL77oqqX8DpjAhxSd6w7E94H7ceIgGm7zZvl7xIjS5FaEWBZ3bGGgyjKABgExYRpMPxFM7C0hb/cgtU5Gd98DASvhmAXqO4KlV2a/y5bfyHvosA/ALkLgrsAvQvq3y0w7uofw421C61HoyEfbpXp5656Ud/m8T+EWyUd6qpyTqOSX5KObthFrwkcsmDkOZN9/2+99tHL+iJSrJfzgTy1iAGwl5PsQW2Gv2igpyH8bbnaJcYr4ctRELwSwP5d0vuJGPihjOOm0YqV6M/TDS6oDfi+jnbJIwPbda3nFHIZaJQtRkBgYHjlkBpGLYJSsS0hwAl1xwrkNjgMgLEdc/DGGP6CZ7o9xaSHP7M08jL1x98tYrwL0L3DoCaAB8WN45h0xdrKYbeEUSNsTXPYfSUM/DzsOknXD/IvrKSzoP/uCOTslfMFRiBXv7pz0rvd44Yeum5J4TdBOGAADIJiAjQY/qIZUpLD30Bp1eHN4AdB84P7k6MgJsBDCly0GeMX/to5/J9R1AyyhjlcfTMMuSZIzdRpiXzTK+ebt9LhiwS6ImDa7s8AHNWVSMI3P/TI/VPvvOS4sSDaYAAMgmLMNRj+ohlQUsPf9NKK2ZP8PlsFb4iG1NOrCHCbQi7ynPylvfLQaV3Tdj8O4L863Z+Bfb74ckh9af63GeiVLYZFYKEa5ljtYQDTwiqRAN0/eY61b1A+GQCDIhlTHYa/aAaT1PCXs2tvN6BXKDA1GlI7ryIqy9UYv8grz7k2Dn5a9WDabtPv61pdn7l1ioVexWoGZb5IoCMCZnHlsRDjxx1tTssmxS+8ihXYFVAGwLQcjO30wfAXzXATHP4WCjSW9ydUxRmNivXpaCbYfZXBkvsSX9F8e+p53aulUuEWz7EOSWVnbCoSArlitSIigdz+JBLD4RS51HOsU4OSZgAMimTMdBj+ohlIEsPfwQvdvaaMSQ3QA6Oh1FkVEZxXL1vzO9sd/S4+Mm7nzH3oq9c6hRuinwwrpoFAzq6uEMicNPTScQ+qZ3uVQmDPQWYA7HgS8d3I8BfNbJIY/mYMu4cZBlZFQyiIKvotzymcHIRSFBo5210qQGJCaxRM/lVDzvec/Lxoa7JaGgjMOMd9rjEufwLUSEM/nfYggtfVy9YPO93/1H0MgEGRjIkOw180g0hk+NvySxT3REMo0Co/8Rzr2EAVQxQzbXclgEKIJRIprdDfNJzCoYk0T9M9JdD8rLJAv9ZTEzEo3jdp8kvWfHLWbUFZYQAMimQMdBj+ohlCEsNfk4xpu83w99xoKAVe5UueY70vcNUQBM1S7Xio/iAE6eRLilpeuZDpG/kmf4jRd5Czq18TyNujrxyvil5/vg+LxQ/KFQNgUCR7rMPwF80AEhz+lgM4MhpKIVVROc6r5K8PST1QWdN2vwjglEBF0yAm8kmvnOctc9Iwy4h6aH5mefIG3CGCvSIqGc8ygt97ZavbpzE9qTcGwHiOui1XDH9t4ep4cXLDX/ULgLy/48ZjtFGAA+qOdWeMLG3XyszhlQeNG30rAX1W3L1G6k+w2itbsyOtyWKJJsC3f58YX+AfhWEATPSPxpa39TThLSTCflLDX27YPUMMXJgIyC2ZlJ97Tv7olpb2eNFAsTqsIpUe24hd+aSE+NiBy6ghvv372OBFL/HKhY8GeQwYAIOkGbEWw180wBMb/uZXc2LIcgj2iIZURFVC+EUYlnN+IWQ7ZEXO9sr5wG5lEdbsqNt7Anz7918zEDFOqZeHrgxyKgyAQdKMUIvhLxrYSQ1/TToDtvtdBd4YDaloqwR9O4Sw3PMLIdsle6PnWMn+PGpYB4a6TyLAt3//hUPHjQMby4buCPKIMAAGSTMiLYa/aEAnOfyZxdrpEL04GlK9qCLXeU7++F5Ubrdmzna/KykN4u2yeHy9bhjbs3HR3Ps73c992SDAt3+fmPNfPMcK/A4ODIAJ+zli+ItmYEkOf9MXVA/p843laf8CQlKuAuaGVx4thsEnYGz7o6t4t1exvhLNTzOrJJHAwHDtpSq6FoLJSfQfrGf9jucU3hysJsAAGDTREPUY/kKEu410ksNfsw3Tdq8GcGI0tHpZJTlXAU3b/QaAt/aSVrxqh/MXWrx6pJtuCJhFtwyB3Y1GWvaG9Wx0BsCEnBCGv2gGlfjwV6yeCpHPRUOr91WSchVwoLTycFXjpt4Ti42Dv3qOtU9s3NBIrAgMnr38Wf7k/kaCb1wfKE+BMbPuDI0GKgpeAQyaZyh6DH+hYH2aaNLD39Z7zxm/ArB3NMTiUCU5VwFzxdqXRPS9caAWBw9+H5639lPWn+PghR7iRWDArp2pUH5TfMtY9B+eU/j3MCbEK4BhUA1Qk+EvQJg7kUp6+Gu2ls23GfXh9b7uc9vSOQ9Fc1I6r5Kzq7MEsrpzhXTtVDXe0KgM8ZF56RprIN2YxaoHkVwgYskXuc5zrFC+8MYAGOPDwfAXzXDSEP5ydu39Av1CNMTiVUXFf02jPOfH8XK1fTfZDOk7mAwfC5eEIxu5x4Fi9R0q8tXIC8e0oKqc06jkl4RhjwEwDKoBaDL8BQCxBYk0hL/B+dUX+33SfOv3eS20nL4lCserWKUkNDZQrL1ORa9NgtcIPAb+aKsIPLNEyAQGbPenCrwq5DKJkfcN/xVrl8xpPss98BcDYOBIuxdk+OueYSsKaQh/zT5N2/0fAO9qped0rtEVnlM4Iim9mbbrAsgnxW94PuVez8k/Ozx9KieNAK/+PW1i/zTum/Kc0ctnbgpjlgyAYVDtQpPhrwt4bWxNS/jL2dX3CCTQxwO1gTEuS33v9/dMwTUnjcfF0M58pP8m3a1PYXzzpv3WnffyP7a+gyvTSuCxb/42vyn/0rT22EFf13uOdVwH+1rawgDYEqZoFjH8RcM5LeHvyIXLJz2wYcrN/LA0oBif23AOb74NHvvX4KI1z/I3bPx1tr6tvf2xKHBSw7Guif3QaDB0AjnbvUCAM0MvlKQCioVexfp4WJYZAMMi26Yuw1+bwDpcnpbw12zfLFU/CpVPd4giXdtET/TKhW8npSn+Zbd1Uqq6tFEpFJMyN/oMh8AMu/oqA/LTcNSTqyqKY+oVKzQuDIAxOBsMf9EMIU3hrzC8crf1htG8pchLoqEX8yqqp3mVwudj7vIJe4Ol2mxfdSQpfsPzqb/0nMIrw9OnchIImLbbvHr/8iR4jdDjLZ5jHRJmPQbAMOm2oM3w1wKkAJakKfxtufpnV4uAOAGgSYvEf3uO9YkkNWPatQagM5LkOQSvD3qOtXsIupRMCAGz5NpQlBNiNzqbEdzdgAEwunE+rRLDXzTw0xb+ps+r/nvfZFkNxb7REExCFbnYc/IfS4LTxz2adu08QM9OkucwvPoyftDa8uG3h6FNzXgTyC1YnTP8zTcpsFu8nfbAnajllQu1MCszAIZJdyfaDH/RgE9b+GtSy9nVRQJZGA3BxFS5ynOstyXGLYAB2z1GgeuT5DkMr3wiSBhUk6Fp2m7z/B+TDLeRuqx6jjUn7IoMgGET3o4+w1800NMY/syzq/uiefUPCOXZkNFMJoQqIj/zyvlE3Tx2y7e4x/p/D+AFIRBJjKQqzmhULH6ZKTETC8boQKn6KVVZEIxaulREpFgv55eG3RUDYNiEn6LP8BcN8DSGvyY50645gPJbk089RiLf9Mr5t0ZzuoKrYtruFwGcEpxi8pQUuLDhWGclzzkdd0rAtKtvAiQx39rvtM9O94kvL6svzf+20/2t7mMAbJVUAOsY/gKA2IJEWsPfYMl9ybhitfDzMk8/BQLHKyfjcXDbmjdttxlav9HCsU7vEsV3vYr1pvQ2yM62JZCzay8U6M8A7E8yTyegqj9qVAqvjYINA2AUlLc+rksjKpXpMmkNf49d/fs0oB/N9IB32Lx/qufMuTRpbGbaK/YbR1/zbeAMv2TUc/IzMwwgU63niu63RHBSpppuo1mBfqjuFC5vY0vHSxkAO0bX+kaGv9ZZdbMyzeGv+W058TffDGBSN4zSuleAY+uO9ZMk9mfatdsAPTCJ3oPxzGcCB8Mx/iq8fdWEM3pwUv+kg25efNjfJlwZwAIGwAAg7kyC4S9kwI/Jpzn8bbn6V6p+DiqnRkMzeVUMwUtHy9bvkuccGCi531LN9hWRsf6x3W5dPPfhJM6PnlsjkCuueo3I+A9bW53NVQr5WsPJvzOq7hkAQyTN8Bci3G2k0x7+Zp2z+vmb/c3roNgjGqLJq7J7/9i0Xy2euyF5zpvhnjfC9dU/ZG1lzi1JnB89T0zALK6YATF+BsizJ16d3RW+ylvWVvJXR0WAATAk0gx/IYF9imzaw9+Wq3986scEh0lXeE7hiGhOXPBVcvaKIwV9y4NXTo6iivGaRnnox8lxTKetEjj4THevKf24CcDBre7J5DrB3btPGXtJlP8hywAYwklj+AsB6nYksxD+tgZAPjJsZydKBGfWy9ZF0Zy64Kvsf/qP+3fbdY9EXr0MjIbIaV45n5hnOQfWdwaETNtt/sfNkRlotdsWP+M51undirSznwGwHVotrGX4awFSAEuyEv4G7NpbFPrNAJClV2KTvtA7v3B3khs0S+4oFANJ7qEb76q6tFEp8P6W3UCM4V7TdptvZ54YQ2uxsyS+n68vnTMSpTEGwABpM/wFCHMnUlkJf1uv/lV/AMjx0ZBNZJVfeo71ykQ638Y0/6LUb3lO4eSkz5H+/0VgwK5+ViGnkUkLBHp0I3sGwBZm08oShr9WKHW/Jkvhb2B45ZAaRqgPA+9+Ir1VEMhZdSd/YW9ddF89Z7sXCHBm90pJVUj25ziTSj0s33xeeXtke3UbKwbA9ua03dUMfwFAbEEiS+Fv69W/Gm/8PMG58GX8oLXlw29v4fjEesmAXTtToRfE2mSo5nTUcwq8GXSojKMRZ/hrm/NPPMc6tu1dAWxgAOwSIsNflwBb3J618De44Kb/8P2+dYA8q0VEmVumiosaFSsVV81ytnuiAJHd/iGGh+W3nmO9LIa+aKkNAgx/bcB6fKnqW71KoSef82YA7GBej29h+OsCXhtbsxb+tlz9K9XOgur5bWDK2tK/GDqeH60c/qc0NG6WqnmouGnopaMeBHd7ZeuFHe3lplgQYPjrZAwy4jn5fCc7g9jDANghRYa/DsG1uS2L4W9LALSrawAZbBNXZpYrMNxwrGVpaXj68Mjz+gz/f9PST9t9qN7rVQq8SXDb4OKxgeGv0zn09hnmDIAdzI3hrwNoHWzJcPh7EyDf7gBZNrYI1uw+ZSz/q8VzN6ep4Yz/XlnvOdauaZpnVnph+Ot40r/bvX/MjPLGz091ygDY5uwy/ku6TVqdL89q+Nt69c/9CoDIngfZ+ZR6s1Phv6PhzPl6b6qHV9W03fUApoVXId7KnmPx76N4j+hp7hj+uhiYouRVLKcLha638geuDYQMf23A6mJplsPf4KI1u/gbNv4ewN5dIEztVlF8v16x3pjGBnNF9/9EsFcae2ulJ2PqlF1HF81shmC+EkCA4a+rIf1t0vgk8+Zlh/2tK5UuNzMAtgiQ4a9FUF0uy3L4a6LLFUdeL+J/v0uM6dyuuF99ndtYVmiksUHTdu8B8Nw09tZKT8bUKc8eXTTz3lbWck1vCTD8dclf4Hhlq9SlStfbGQBbQMjw1wKkAJZkPfxtCYAl9zOi+M8AcKZPQvRsr1xI7b3yTNu9A8D+6Rtcix2l4JF+LXaa6GUMf12Pb4MhMEfL1u+6VupSgAFwAoAMf12esBa3M/xtBWXatdsAPbBFbNlZpvpTr1I4Js0Nm6XaWqhOT3OPO+tNfHlZfWn+t1ntPwl9M/wFMSW51HPypwah1K0GA+BOCDL8dXu8WtuvkEUNJ7+4tdXpXTW4YGSu7/u/TG+HHXfmGzr+8tHK4Ss7VkjAxpxdGxHo7ARYDcWiwJhZd4ZGQxGnaNcEGP66Rggo7jMMFOJw9a/ZDQPgDmbK8BfAYW9BguHvX5BM210CoOefC2lhbNEuEXzcK1sLoy0afTXTdpcDODL6yvGoKNJ3RL08e0U83NDFtgQY/gI6D2KUvPJQT7/5u20nDIDbmSvDX0CHfQIZhr8nAzJL7s1Q8HmoT8KiI2P9f375rYtP2hjNqexdlcxfAfSNfH3p0EjvJsDK2yPA8BfQuVCs3n3qWCFO9y9lAHzKbBn+AjrsDH9tgTSHV86EYdzc1qYMLFbV1zYqhR9loNXm4/+y/RlAw5hRXzK0LguzTkqPDH8BTkr0RK9ciNUN/hkAt5kvw1+Ah30nUrzy93Q4OdstCdB8C5ivxwgI5HN1J5+Zb0Rn/VvAAhxQd6w7+QMQDwIMfwHOQfENr2K9PUDFQKQYAB/DyPAXyHmaUIThb/uIcsXqL0Vk7oQAs7JAcJ+P8fza8uG3Z6XlzN8H0Jiyz+iSmX/Nyrzj3CfDX6DTWa+GFhpL4nf/UgbArY/e0kDHTbHtEmD42/7BmFFacaChfbfx2GxDQP2FXmXOx7PEJPNPAtEpe4xWZj6QpZnHsVeGv4Cnovi4V4nnl9gyHwAZ/gI+7DuQY/jbMedcqfZuUf1yNJNIQhW5dUq/5FctHnowCW6D8pj1ZwEb902ZMnr5zE1B8aRO+wQY/tpnNsGOdWP9Y4VbF899OHDlAAQzHQAZ/gI4QS1IMPztHJJZql4MldNbQJmJJQL9UN0pXJ6JZrdpMuO/jzZ5jjUlazOPU78Mf8FPQ9R4Z70y9LXglYNRzGwAzPgv22BOTwsqDH8TQzLt2kpACxOvzMSKX3qO9cpMdLpNkwO2u78CzUfBZfX1gOdYe2S1+V73zfAXwgQU3/Uq1ptCUA5MMpMBkOEvsPOzUyGGv4k5H2qv2HOS9v0fhDdl30JL/Nd75TnXTkwuXSvMYu1YiP44XV211c1fPMd6bls7uDgQAgx/gWB8qogvvlGI+30tMxcAGf5COexPE2X4a42zadeOAvRnra1O/aqq51hzUt/ldho0i7XTIXpxFnt/rOc7Pcc6IMP996R1hr9wsKvq0kalUAxHPTjVTAVA067+A5BnBYePStsjwPDX+rkYKNWGVbXS+o70rhTFR+oV67Pp7XDHnfFzoFjnOdaMLM6+Vz0z/IVDXoFVj/r+0bctnfNQOBWCU81MADRt97cAXhIcOiox/HV/BnK2+10B3ti9UuIV/rKxH4festi6L/GddNCAabvNt3+P7WBrSrboiOcU8ilpJvZtMPyFNqJx3/ePXrt0TvO53rF/ZSIA5uzqCoFk8q2lKE8gr/y1T9u03b8BeE77O9O2Q8/3nMK8tHXVaj9ZfwoIINd7Tv64VnlxXecEGP46ZzfRToU/3HDmLJtoXVz+PPUBcKDofk8Fb4gL8LT6YPhrf7KDJfclvqJ5ZTrzL8H4zLpz+GhWQfCzyfiM51i8FVLIPwAMf2EClm95Tv7kMCsErZ3qAGja1S8A8v6goVHvyQQY/jo7EWbRfRcE/9PZ7jTtku94Tv7NaeqonV5ypVpBVFe2sydta1VxRqNifTptfcWpH4a/EKch+P34pr6j1503+48hVglcOrUB0CyuLEMMO3BiFHwSAYa/zg9EznYvE+CDnSukZKcY7/LKQ19NSTdttzFQrA6rSKa/CKSqr21UCj9qGx43tESA4a8lTB0vUuCkhmNd07FAjzamMgCapdpZUD2/R0wzU5bhr7tRD9jurxU4pDuV5O82jCn7jC6Z+dfkd9JZB2bR/Q4EJ3S2Ox27DMFLR8vW79LRTby6YPgLex5S8Zx8Ii82pS4A8m21sA/7Vn2Gv+445890p23ox/ruVFKx+3rPsTL94X+z5P4BihelYpodNrF7/9jkXy2eu7nD7dy2AwIMfyEfDcEvvHL+aEA05EqhyKcqAOZKI8eJ+j8AMCkUWhRl+AvoDAwW3UN9wbqA5JIrI/Ixr5zP7A2QZw6vPGjcMLJ+5esuz7EyHYDD+AFm+AuD6pM0H1Do0Q2ncHPolUIqkJoAOOMc9zBjHM3wt3dIrCjLK3+BnYFcyX2DKL4XmGBShcQ42CsP3ZpU+936zi1w3yY+vt6tTrL3y889p3kVha+gCDD8BUVyJzqqp3mVwucjqBRaiVQEQLN007Ohk38GKO8kH9pR4du+QaLNldx5okjM/aKC7H0brcw//mvAdi9S4GMh8U2GrOIyr2J9OBlm4++S4S+CGQm+6JWtxN9hJCUB0L0CivdFMPbMluBn/oIdvVl0L4XgQ8GqJkxN9BKvXPhowlwHate03ebHAA4NVDRhYiqY3yhb5yXMdiztMvxFMRZZC9l0tFc+4h9RVAuzRuIDoFmsngqRz4UJKevaDH/BnwDTrjWvWB8VvHJyFAX+yXVnzreS4zhYpzl79SzB5tXBqiZPTQVvbJSt7yfPebwcM/xFMo+7fOCEtY7lRVIt5CKJDoA5uzpLID8DsHvInDIrz/AXzuhN223eMPSF4agnQ1UhL2o4+buS4TZ4l6ZdKwLqBK+cLEVDMX20Yv06Wa7j5ZbhL5J5bBTpO6penr0ikmoRFElwAFQxS7WfQfHKCDhlsgTDXzhjP3Lh8kkPjPVvCkc9Map/9xwr01/YGrDdnyrwqsRMLCSjU8ewS+1C69GQ5FMvy/AX0YhVjvMq+esjqhZJmcQGQNOuOYAWI6GUwSIMf+ENnc8A3sL2Os+xjg+PcryVZ51z4/M3j0/+A29Zhebdw8wAACAASURBVFs9xzo43tOKrzuGv2hmk9QnfUxEJ5EBMGe7Jwpw9UTN8c87I8Dw1xm3VnflitXXiMgPW12fxnUCPbfuFD6Vxt5a6SlXWvluUePLraxN+ZoveY7FL/B1MGSGvw6gdbBFRE+plwtXdrA19lsSFwCnz1v1or7J4823fl8ce7oJNMjwF/7QckX3YyK4KPxKca4gR3tO/udxdhimN9OufRvQN4VZIwnaqvrBRqXwhSR4jZNHhr+IpqH6Ua9SuCSiapGXSVwANO3aNwF9S+SkMlCQ4S+aIZu22/yF8pFoqsWzypRHjN1XXTL0YDzdhetqwF4xqOhbE26VZKjzCyDtz4nhr31mnexQyKcaTv7cTvYmZU+iAmDOXjlfYCxNCtwk+WT4i25apl37MaDHRlcxdpXu8Rzr+bFzFZEh066eB8jZEZWLbxnVe71K4dnxNRg/Zwx/0cxEoV9rOIV3RlOtd1USEwBnDK+caxhG85Yvfb3Dlc7KDH/RztW0qzVAhqKtGqtqv/QcK5Pf3j94obvXlDE0b3myT6wm0hMzcr3n5I/rSekEFmX4i2pousJzCkdEVa2XdRIRAA8aXrnbNMP4mQCzewkrjbUZ/qKfqmm7awFMj75ybCpe6jnWqbFxE6GRgaL7nyr4TIQl41zqE55j/XecDcbFG8NfRJMQ3O2VrczcnzURATBXrFZEZDiiI5CZMgx/vRm1abt3ANi/N9V7X1UgZ9Wd/IW9dxK9A9N2VwIoRF85fhVV9bWNSuFH8XMWL0cMf9HNw3OsRGSioIjEvtmB4ZEhNfwqACOopqkDMPz17hSYtvvnLL8FKILX1ctW5m6DM1CsvU5Fr+3dyYtRZYVONvqevbo8+/9i5Cp2Vhj+ohtJ1sJfk2zsA6BZdL8DwQnRHYP0V2L46+2MTdu9P8uPL/Rl/KC15cNv7+0Uoq/OJ39sw1yw2itb/EjPTo4hw190P6NZDH+xD4ADxZF3qPhfje4YpL8Sw1/vZ2za7kYAk3vvpDcOsvjL1ixV3wmVr/SGePyqCuRzdSf/n/FzFg9HDH/RzSGLv48epxvbK4AvW7j83/rH+ptv/Wb5w/KB/hQw/AWKsyOxwQ+umezvtbEZALP6etRzrF2y1rxZcldBcVjW+t5Rv+LrKfWl6Xy6QrczZvjrlmDr+7Mc/mJ9BdAsuosh4DfEWj/LO13J8BcQyC5lBotrdvdlY/Mt4Ey+VHFfo2I9M0vND9juRxRI7dMEOpllVj8GMBErhr+JCAX351kPf7ENgLkF1Zz40rz6l7krBcEd738pMfyFQbUzzcEFa/7D9zf+pbPdqdj1Z8+xnpeKTlpoohn4VTauUuCgFpZnYomqLm9UCq/IRLNtNMnw1wasLpcy/G0FGMu3gM2i+3UI3tbljLkd/LZv3A7BgO3ur0DzNjBZfd3pOdYBWWneLFbPhcgnstJvK30qsKDhWOVW1mZlDcNfdJNm+PsX69gFQLNUfTNUronuOKS3Eq/8xW+2AwtGpqvvN28Enc2XyDqvnJ+RheZz86s5MWQ5BHtkod+We/T9Wd7SOXwW8mPAGP5aPjldL2T4ezLCWAXAIxcun/TAhv4qhB+W7vakM/x1SzCc/Y/d17IWjnr8VRWyquHkM/EYvIGi+z0VvCH+U4nQoWCNV7ZmRVgx1qUY/qIbD8Pf01nHKgCapREb6vOtgS5/Jhj+ugQY4vaB0qrDVcdvCrFE3KV/5TnW3Lib7NZfbtg9Qwxk8mknE7Are461oFu+adjP8BfdFBn+ts86NgFwsOS+xPfRvPq3V3THIn2VGP7iPdMBe2RQ4Wf27a8sXAHkW787/hk0DOMVo0uGlsf7pzR8dwx/4TN+vALD345ZxyYAmnbt84B+OLpjkb5KDH/xn+nAcO2lauit8XcaksMMfAaQb/3u6OzI7Z6Tz/y3oRn+Qvrdsh1Zhr+ds45FANxy9U/hAZga3dFIVyWGv2TM0zy7ui8my13JcBuKy1R/C5hv/e74zKjgs42y9ZFQTlVCRBn+ohsUw9/ErGMRAM2SW4bCntguV2yPAMNfcs7F4KI1z/I3bPxHchwH7jS19wEcPLf6Yn8zaoA8O3BqKRBUNd7QqAz9IAWtdNQCw19H2DraxPDXGraeB8BZ81fvvblvc/Pq396tWeaqbQkw/CXrPAwuWrOLv2HjI8lyHZzbND8JZMCuflYhpwVHK1VKfzOmTnnx6KKZ61PVVYvNMPy1CCqAZQx/rUPseQA0i64NAb/52/rMnlip0MUNp7Cog63c0kMCpu1qD8v3unQqnwVsLnBfCR8/7zXcGNf/qudY74qxv9CsMfyFhvZpwgx/7bHuaQA8cuHyqQ+M9Tev/r2kPdtczfCX3DNg2m7zCmBmH3OYxl/Spu1eD+CY5J7KsJ3rmz2n8J2wq8RNn+Evuomk8fdK2PR6GgBNe+WHAePzYTeZNn2Gv2RP1CxW/wGRZyW7i87dj/vG89ctHbqnc4V47Rwouh9SwaXxchUnNzrqOYWZcXIUhReGvygob63B8NcZ6x4HwFoN0Ew8FaCz8Tx9F8NfUCR7p2OW3Lug2Ld3DnpcWdTyyoVUPA1l+qLqv/dtkCqA/XtMNb7lRc72yvkL4msweGcMf8Ez3ZEiw1/nrHsWAM1i9WSIXNW59eztZPhLx8xN223eB/Cl6eim/S4UOKnhWKl43vdA0V2mgnntU8jKDr3XMManjy454q9Z6ZjhL7pJM/x1x7p3AZCfmWlrcgx/beGK9WLTrq4BZDDWJkM0J5Cz6k4+8Y9J23rbF7kzRFQpkJaLPSf/sRQ00lILDH8tYQpkEcNf9xh7EgAHbPcYBZofmuarBQIMfy1AStAS067eBMjhCbIcqFUFLmw41lmBivZALGdXTxPIZ3tQOjElxffz9aVzRhJjuAujDH9dwGtzK8Nfm8B2sLwnAdAs1a6C6snBtJB2Ff2O5xTenPYus9SfaVe/CchbstTzU3q9xnOsk5Lev2nXfgDo8UnvIzz/eq3nFF4fnn58lBn+opsFw19wrCMPgAPDK4fUMFLxAfDgxrAjJRnxnHw+/DqsECWBXLFaEZHhKGvGq5aMek4+0d8KNYdX7gPD+HO8uMbLjUBOrjv5b8XLVfBuGP6CZ7ojRYa/YFlHHgBN270EQKafB9niCG/1HOvgFtdyWYIImKXaqVD9XIIsB251rP8Z/bcuPmRj4MIRCebsle8XGF+IqFwCy8haz8nnEmi8LcsMf23h6moxw19X+La7OdIAuOXGzxv7f5fpW2C0NsN7xn0jn6Z7pbXWdjZW5Uojx4n6P8pGtzvoUvosrzw7se8EmCX351C8MtMz3GnzantOoZJmPgx/0U2X4S8c1pEGwBnF2kmGaOrfEuhyVA8K+t5Yd2b/sksdbo8pgRnFlQcbYvwmpvYisSXA6XXH+kwkxQIu8sKFy6fuOdb/aMCy6ZET3D/JmDT95k8d9r/paerJnTD8RTdZhr/wWEcaAHN27asCfUd47SRfWQVvbJSt7ye/E3awIwIvW7j83/rH+h/KNCGR//HK+fckkcGM0qoDDR2/LYneI/Es+nmvXDgtklo9KMLwFx10hr9wWUcWAGctXL335rHNzV+azwi3pSSrp/9tkyRPJ0jvpl37B6CZfRwcILd6Tj6Rn3HNDa88WgzjhiDPQ4q0NqsxaVZjyWGNFPX0RCsMf9FNleEvfNaRBcABu/pBhVwWfkvJrKCKqxsVK8u3Bknm4Dp0bdq1NYBm9mbQTWwKeVHDyd/VIcKebTNL7vuguKJnBmJdOL03fmb4i+7gMfxFwzqyAJgrVn8oIq+Jpq3EVblTIUcn8S/DxJGOiWGz6H4HghNiYqdXNt7mOVbiHgdp2u7HAfxXr6DFta4CD/UJDhstW7+Lq8dOfTH8dUqu/X0Mf+0z63RHJAFwYLj2UjW0+fxTvrZLQN/sOYXvEE52CORs9wIBzsxOx9vt9EueY70vaQxM2/0fAO9Kmu/w/UrFc/J2+HWircDwFx1vhr/oWDcrRRMAS7VhVU31LQE6HZuILqmXC+d0up/7kkkgV3Q/JoKLkuk+MNd/2r1/7MW/Wjx3c2CKEQiZtrscwJERlEpSif+HTXqYd37h7iSZnsgrw99EhIL7c4a/4Fi2qhRJADRtdyWAQqumMrTuJ55jHZuhftnqYwRyxZHXi/iZ/7a3AMfWHesnSToYpu1eDeDEJHkO26tCFjWc/OKw60Spz/AXHW2Gv+hYb1sp9ABolqp5qLi9aS++VQV4yDcmHZHWb8vFl3w8nM0orTjQ0D7eSgRyvufk58VjKq25GLCrn1VIam9z0hqFbVYJ7h7fpIetO6/w/9reG9MNDH/RDYbhLzrWT60UfgAsumUIUve5kK5HJih5ZcvpWocCiSVg2u4DvC1S8h4ZxnDw1B+5dN2+ivON7lcqw190rLdXKfwAaLvNJx4k8n5fIY7mRs+x+BmiEAEnQdq0q78A5BVJ8BqmR0NkaLScXxVmjSC1c3b1NIF8NkjNBGv9bhffP6y6dE4qbmzO8BfdSWT4i471jiqFGgAH7ZFX+fB/2vs24+XAh756rVPgjWTjNZbI3eSK1YqIDEdeOGYFFbiw4VhnxczWDu3kbPdEAZqfA+RL9GNeuXBxGkAw/EU3RYa/6FjvrFKoAdAs1c6F6ifi0Wo8XCTtL7t4UEunCwaJJ+b6N2PqlENHF828NwmTztkrjhT0Nb8JnO2XamP3qRtnJe1b3NsbGsNfdEeZ4S861hNVCjcA2u61AF43kYkM/flvjU1jR4yePzcRf9FlaC49aXX6vBtf1Ddp8h96UjxuRVU+6lXyl8TN1nb9LFTDHKttBNCXCL8hmVToextO4cshyUcmy/AXGWow/EXHupVKoQXAIxcun/TAWP/fADyzFSNZWCOq76xXCl/LQq/ssTUCfCbwE5xqnmNZrVHr/SqzWL0BIkf33knPHHzFc6x396x6QIUZ/gIC2YIMw18LkCJeEloAzBVdSwTViPuJbTkBbqg71qtja5DGekLAtN3rARzTk+IxKyoqx9cr+etiZmu7dnK2WxJgSRK8huDxHmNcjxxdVvh9CNqRSTL8RYaaV/6iQ91WpdAC4EDJPUMVF7blJsWLefUvxcPtojWzVPsEVM/tQiJNW6/yHOttSWhowK6+QiG/SILXoD0q5AMNJ39F0LpR6jH8RUebV/6iY91updACoGnXvgnoW9o1lMr1qg2vUjBT2Rub6ooAnwjyZHwKPazhFG7uCmoEm6fPW7tr36RH/pLB+zgmJqTv6Bgw/EXwA/JYCYa/6Fh3UinEAOj+FcDenZhK2x6BnFV38rwamrbBBtDPjHPc5xrjuCcAqVRIqMqVjUr+lCQ0Y9q1awHN0pfc/tbn+0euWTonsU+wYfiL7ieL4S861p1WCiUADsy7abpOmrS2U1Mp2/dnY9NYjt/8TdlUA2zHtN3mlaT/CFAy0VIi/hH18pwVcW9ioOS+VhWJ+MxiICxVT/Mqhc8HotUDEYa/6KAz/EXHuptKoQTAXKn6AVG5vBtjqdmrcLyKVUpNP2wkcAJm0b0GgjcHLpxcwcS8zZihq4DXeI51UlKPFMNfdJNj+IuOdbeVwgmAdvVrAnl7t+YSv1+xSVRm1Jfmf5v4XthAaARyRfdtIvh6aAUSKKy+/6rG0jk/i7v1bFwFlHvHDX/uuiWF5mM9E/di+ItuZAx/0bEOolIoAdC0a38C9PlBGEyyhkK+1nDy70xyD/QePoHZp488Y+Ou/gPhV0pOBQW+13CsE5LgOPVXAZN0k+6nHBiGv+h+ghj+omMdVKXAA+Ch9or9JqEv0feHCgouVN/qVQrfDEyPQqklYNrujwEcm9oGO2lM5PVeOd98mlCsX2m+CijA9+oJCeJPPSQMf9H92DD8Rcc6yEqBB8CcXXuPQK8M0mRCtf62i+8fWF0656GE+qftCAnk7Nr7BfqFCEsmoVTVc6w5STBqFt0rIHhfEry27lHHjPFxa3TZEfXW98RjJcNfdHNg+IuOddCVAg+AZql6MVROD9po4vQUX/Qq1vsT55uGe0IgZ9deKNA/9qR4jIuKarFeKSyNscUnrJm22/yM3MFJ8NqSR/UdrzIncV9gY/hrabqBLGL4CwRjz0SCD4B8tNWWYfrACWsd63s9mywLJ46Aabs3AjgiccZDNSz39vnjc5Jw7zmzVM1DxQ0VR0Tiovh+fWr+TVgsfkQlAynD8BcIxpZEGP5awhTrRcEHwJJ7JxQvjnXX4Zu7a6z/noNuXXzSxvBLsUJaCAzY7nwFEnG1K2LmX/IcKxFvrw7YtTMVekHEfIIud9P45l2PW3fejEeCFg5Tj+EvTLpP1mb4i451mJWCDYAL1TDHauNhGk6Ctgo+2yhbH0mCV3qMD4HB+bUBv09H4+MoRk4S8oWQJjHTdq8GcGKM6LVsRRX39U2bctDoopn3trwpBgsZ/qIbAsNfdKzDrhRoAJx57s0HjW/e9LuwTcdeX+U4r5K/PvY+aTB2BMySezMUM2NnrPeGEvOFkCaqXELvhWro+L6jlcP/1Ptxt+6A4a91Vt2uZPjrlmC89gcaANN8O4TWxyb/Z0y99wWji163vvU9XEkCWwmYJbcMhU0eTyegwLKGYw0nhY1Zcm0oyknxC+3LeZXZiXqEJ8NfdKeL4S861lFVCjQAmsXqWRA5Pyrz8ayj3/GcAh/rFc/hxN6VadeOAjT2T8DoIci3eY51VQ/rt1V6wB75oMK/rK1NkS+Wv437Mmvd0qF7Ii/dRUGGvy7gtbmV4a9NYAlZHmwAtN3mg8I/nJDew7Ep+jGvXLg4HHGqZoFA6m4nEuzQ7jEER4+WrcR81MQsVd8Jla8EiyEYtS3f9q1YbwxGLToVhr/oWDP8Rcc66krBBsCi+3MIXhl1E3Gqp4aajSWFRpw80UuyCJhF978hWJws15G6vc5zrOMjrdhlMbO08njx+85Q0bldSgW1fZOInFsv5xP3rXOGv6COwMQ6DH8TM0ryimADoO3eDeAFSQbSpfc/e471vC41uD3jBAaGay9VQ5s3FTYyjmJn7X/Cc6z/Thof0659WKBnKHBQ77zLdSLGsnp59oreeeisMsNfZ9w62cXw1wm1ZO0JLADuf/qP+3fbdY8NyWo/cLdf9RzrXYGrUjBzBMxS7Sqonpy5xttoWIGTGo51TRtbYrH0UHvFnpPQd6YAzSC4W3SmmsFPL6+XrR9GVzO4Sgx/wbGcSInhbyJC6fjzwALg9AXVQ/p8+XU6sHTWhfh6Sn1pgc9B7gwfd21DYMB236jAdwll5wSSGgKbXc0orj7YMMY/BF9fC8GLwpt1soNfkwvDX3in46nKDH/Rse51pcACIP/CApJ4G4VeH0DW3zEB067+//buBUqOuloX+Ler55EESALiRdEroAkqYNLdGch0dwKiHkSO4ONAvHBEiQ9Qrg8CJFMdPDeJx6S7J0H05ioeHyCgXgVFDfJQOIIkXT0hmakOHB+AoqDiAxASlGSS6dpn1ST4gECmZ+pdX6+VFVhW7f/ev39FvvR0VzUBmU2j5xcQwalxfVfr6clGb6Hl4K0Q+WdAXzTBPd8hwH8qsFEUdw3Vit+fYL1QT2f4C46f4S846yis5F0ALDeWqGotCkOF1UNXtzFt44rebWGtz3WTJZDtaywV0ZXJmsqfaQRGz1C1NxFPUcmb9depyD8BcjgUhwN6OIBnhUIBWgo8CuijgDwC4IcimTu2/fmxu36+9pRhf6SDrcrwF5w3w19w1lFZybsAaFr9CiyOymDB9yGP2dXCwcGvyxWTKpA3rRkKuF8G6U7qjF7OZRhdhw6u6vmdlzWjUuu1y26f9OTO7sNbkBcojEdGdrQe/fFlxT9FpT8/+mD480N17zUZ/oKzjtJKngXAXJ/1OQjOi9Jwwfaig3a1xEd4BYue+NVypuXeP+7sxA/q0YD8D5lHkCGXYfgLbgP4ZyY466it5F0ANK2vATgzagMG1o/im3atGMsHwAdmxIXaFsj3NU5V0XVtn5jiEzoyu162aeUJv04xQaxHz5rWfwhwbqyHiEnzDH8x2Sif2vQsAObN+vcU7geY0/mK23NK07lL8Zw6V7Y2QcF3l9vZPskU7crcRjun8NjwBXKmdTOAk8PvJPkdMPwlf4/3NaFnATBn1u8EZP6+Fkzs/656vl0ruY/C44sCngrkTWuxArF7YoOnCOMoJoa8Y2hV4dpxnMpTQhDIlxs/VI3Mk1JCEAhuSYa/4KyjvJJ3AbBs2VBkozysn70J8KahavEWP9dg7XQKzFl654sdp2MTgJekU2AiU+vFdrV06UQq8Fx/BXbfGNu4EZCCvyuxuivA8Mfr4GkBzwJg3rR+ocDL00qrilKzVrTSOj/n9lcg11f/GET+3d9VklldgE8PVYsXJHO6eE81p2y9ynHwVQjy8Z4kHt0z/MVjn4Lq0rMAmDMbjwCa2tugOEB+S7VoB7VxXCddAnOWbz7Y2bHTfRfQvSccX20KKPBtQC5sVgu/avNUHu6TQG6p9Xo4+DSAo31agmX/ToDhj5fDMwU8DICWe+PRrrQSiyNHDfUXfprW+Tm3/wK5PsuEoOL/SslcQYB7HTEubFZ6b0rmhPGZKleufwQq7o/mO+LTdXw7ZfiL79752bknAdC9SenW4e7tfjYa9dqtkczL714z95dR75P9xVcge8Ht02VSt/su4Iz4ThF+5wosaVaLq8PvJH0dzLr4+/tlOg+4FJrme8YGu+8Mf8F6x2k1TwLgrIvr/yPTIX+I0+Be92oYI4cOrjo+kU8h8NqK9cYvkDPrFwGyZvwVeKYrIJAvDw/rRUl/mkaUdjtr1o8F8EmBzItSX0nuheEvybs78dk8CYB7Hll1/8TbiW8F7Z58YHNF7on4TsDO4yAw6+It+2U6/uK+C/jqOPQb8R43GWpcOFjr3RDxPmPfXtasnyMi7jt/B8V+mJgMwPAXk40KsU1PAuCcxY28k9FEPIh9vHsxrXt48h0rTtwx3vN5HgXGKpDtsz4qgk+N9Xge93wC8hcRfHyo65Y1WLHCoZW3AnM+Vn+FjuBChZzvbWVWez4Bhj9eH2MR8CQAZs31rxVkbh/Lgkk9hn/gkrqz0Ztrxodv6j5gv+nuu4CviV53Me1IdUAMY/VQpXB9TCeIVNuj1+j+0xdB9UJAXhip5hLeDP9blPAN9nA8TwLgnKWNvOPwHUC+A+jhlclSzyuQNevnC+QzZPJc4BoZGVkztOb4uz2vnJKC+b76O9WQRVDe2y/oLWf4C1o83ut5EgD5GUCAnwGM9x+E2HW/TI3czob7jGDeQNfjzRPgSVWsmbQTqxuXFVN9d4N2aHf/JMhYBMhp7ZzHY70RYPjzxjFNVTwJgMcsHTik03F+nya4Z87KbwGneffDmT1fri9UlSvCWT35qwpgq+iXtWvK1fyC13Pvd7bcKIniHEDfl/yrIpoTMvxFc1+i3pUnAbCwyJq8oxtPRX1YP/vjfQD91GXt5xLIl61vqGIBhXwUEDwIyDUORq7ZUpl/n48rxap0trzhFFHjHABnxKrxhDXL8JewDQ1wHE8CoNtvzrR2AugMsPdILcUngURqO1LTTK5v42wYrTuhmJqaocMbdLsC10Dk6malUA+vjXBXzpnWmQI9RyEnhdsJV2f44zUwEQHPAmC2z3pMJL33eOKzgCdyGfLciQjwEXET0RvfuaPPFlZ8M4OuGwdrPVvHVyU+Z41+zlvlTSr6rwLMjU/nye2U4S+5exvUZJ4FwJxpuY9BS+2D6lVRataKVlAbx3Uo8PcCOdO6A8AJVAlawH0Ckt4oIjdue/HBN/78IzPdZ6In4vV06IPomwC4v/iKiADDX0Q2IuZteBcAy40tUJ0Vc49xty/Am4aqxVvGXYAnUmACArPN+kkG5PsTKMFTJy7wEERvVAc3NmulGydeLvgKDH3Bm7e7IsNfu2I8/rkEvAuApuU+TqmUWmrV8+1a6fLUzs/BQxfImtYnBVgUeiNswBX4DYCGQBqA3DlU7Y3kk5IOX3b7pGnDXccbYsyH6vEA3F98RVSA4S+iGxPTtrwMgDel+ccECqxuVotLYnodsO0ECMxZvvlgZ8fOO/mc4Ehu5p5AqLcZcG7bXJ3/QFhdzjatnAF9HWC8DqO/Y1JYvXDdsQsw/I3dikeOTcDDANj4OqDvGNuyCTxK8U27VuTtEBK4tXEaKVeunw2Vq+PUc0p7fRzQBwAZ/SVwHlAYD2Qw8sBEw2F2mT1dh7cfkRE5QtU5QkWOEJUjAD0CgPuLgS9mFx3DX8w2LCbtehgA618AJMU3AtVBu1rqicm+s80EC+TK1lehOCvBIyZ/NNUnYMjjonhCgceheAKG+7s8oXB2QGS6ODjQ/R3Q6QAOBPD07wx4CbpCGP4StJkRG8W7ANjXuBTiPvg7rS95zK4WDk7r9Jw7OgKz+zYcbRiGe2/Ag6LTFTuhAAXaFWD4a1eMx7cj4FkAzJr15QJZ1s7iSTu2q9uYtnFF77akzcV54ieQN+vnKuQ/4tc5O6YABVwBhj9eB34LeBcAl1pniYOv+t1wpOtrJmvX5m6JdI9sLjUC/FZwaraagyZMgOEvYRsa0XG8C4Bm/ViB3BXROQNpSxx9z1B/6cpAFuMiFBiDQM5s3ASM3siXLwpQIAYCDH8x2KSEtOhdAFxmT5fh7Y8nxGW8Y1xjV4vvGu/JPI8CXgv0LNnwypZhuDcoT+1Terw2ZT0K+CXA8OeXLOvuTcCzAOgWz5nWHwG8MMXUv7WrxZemeH6OHkGBbN/AW0Sc70SwNbZEAQrsEWD446UQtIDXAbAOoBj0EFFaTw3NNVeVmlHqib1QINdnmRBUKEEBCkRPgOEvenuSho68DoBfBvDuNMA954yiH7Urpf+bagMOH0mBnGnxz2ckd4ZNpVmA4S/Nux/u7J4GwLxZv0Qhnwh3pLBX12/Z1dLpYXfBcAfNCAAAHNNJREFU9SnwTIHXmOsPzCBzswBzqUMBCoQvwPAX/h6kuQNPA+DsvsYCQ/QbaQYF5DFj0qMvG1x+6lPpduD0URTIlesFqHEzoNOi2B97okBaBBj+0rLT0Z3T2wA4+pBxDEV33IA6UznFrhVuDmg1LkOBtgTy5YGFqs4VbZ3EgylAAc8EGP48o2ShCQh4GgCPOv/2/bundj85gX4ScaoKPtOsFD+UiGE4RCIF8uX6SlVZmsjhOBQFIizA8BfhzUlZa54GQNcuZ1q/BXBoyhyfOe6vhrt/88qfrFiwM+UOHD/CArk+64sQvDfCLbI1CiRKgOEvUdsZ+2G8D4Bl6w4oToi9zAQHcIC3b6kWvz3BMjydAr4KZE3rBgHe7OsiLE4BCvDZvrwGIifgfQA0G18A9H2RmzTohhRfsmtFOgTtzvXaFsiVrY1QHNf2iTyBAhQYkwDf+RsTEw8KWMDzAJgtWxeI4rKA54jicr+f4jhH1vvnpf4zkVHcHPb0N4E5fZunOcbOLVAcRhcKUMBbAYY/bz1ZzTsBzwPgbH4T+G+7o3qmXSt93bvtYiUK+COQN60ZCtwDYJI/K7AqBdInwPCXvj2P08SeB0B3+KxpbRPggDhB+NGrQr7SrBbO9qM2a1LAa4H8koFeNZyG13VZjwJpFGD4S+Oux2tmvwIgP1juXgeKXaIye6i/8NN4XRbsNq0C+bL1ZlXckNb5OTcFvBBg+PNCkTX8FvArAC4WoN/v5mNRX1G1a8VyLHplkxQAkC/XF6oKbxTNq4EC4xBg+BsHGk8JRcCfAFhulER1QygTRW/R3xq7hrODl574aPRaY0cU2LtA3rQWK/8Sx8uDAm0JMPy1xcWDQxbwJQDOOXdzp3PQ8DZA+IFyAAK5cKha4DejQ77YuXx7AvmydYHyG/3tofHotApstavF6WkdnnPHU8CXAOhS5MrWLVC8MZ4sHnet2rRrpZzHVVmOAr4L5E3rbQpc7/tCXIACcRVQ/MKuFWfEtX32nV4B/wKgaf0bgI+nl/YfJxfVs4dqpa/QgwJxE5h9iXWc0cLGuPXNfingt4ACG5vVYq/f67A+BfwQ8C0A5k3rZAVu9qPpONYU4AdD1SLfEY3j5rFn5MoDR0GdH5OCAhTYLSDAjUPVIh+jyAsitgK+BcCjF1kHdXXjDwA6YqvjfeNn2dXi//e+LCtSwH+B3EX1w9ApFoBD/V+NK1Ag0gJX2dXiOZHukM1RYB8CvgVAd92cad0B4ATuwtMCumW4e+e8n6w48c80oUAcBY4rb3zBLm259wksxLF/9kyBiQvopXa1dPHE67ACBcIV8DUAZk2rX4DF4Y4YsdVFPmFXCu7nI/miQCwFZnz4pu79959+tSgWxHIANk2BcQuIaVcLtXGfzhMpECEBXwNgrlw/HSrXRWjeKLSyy3Ewb0t/8a4oNMMeKDBegZxpfQnAe8Z7Ps+jQKwEBO+zK0X3mueLAokQ8DUAzunbPK0lO+8V4JBEaHk1hOJ6u1b8F6/KsQ4FwhLImY1PA/qRsNbnuhQIQOAxVeO9zVrvdwNYi0tQIDABXwOgO0W+r/F5FX1/YBPFZCGFLGxWC1+OSbtskwLPKZAvN1aq6lISUSBpAgrcC5H3NiuFetJm4zwU8D8A8uHyz3WV/axTMvPuqsx9jJchBeIukDfr56pIBYqD4j4L+6eAKyCCaw1tlTdX5z9AEQokUcD3AOii5UzrpwBelUTAicwkkM8OVQv/eyI1eC4FoiIwZ3EjrxmtKHBSVHpiHxQYh4AjquWhWql/HOfyFArERiCQAMhvAz/P9eDgfXY/P1gcmz8xbHSfAvyR8D6JeEBUBQR3jYa/aumHUW2RfVHAK4FAAuCcvoF5jjjrvWo6WXXkUTUy/9RcdVwzWXNxmjQL5JdseLsamQqgR6bZgbPHR8D9iUxnt5Q3rujdFp+u2SkFxi8QSAB028uZ9QYgfGbiXvaKj4kb/wXMM6MrMKdv/cscNwQqzopul+yMAvgjgLJdLV5BCwqkSSCwAJg1rbIAq9KE29asiqpdK5bbOocHUyAGArm++oVwvyACdMWgXbaYKgG5SQwpD63qvTtVY3NYCux+nnUwr1lL68dkHLknmNViuooYZ9iV3m/GtHu2TYHnFMj11Y/fEwKLZKJAJATE+Lhd6V0WiV7YBAVCEAgsALqz5UzrZgAnhzBnLJZU6AOGY7x5qL/gfmuaLwokSmDO8s1TnB273M8F8sbRidrZuA0jP4G0ynZl3rq4dc5+KeClQLABsK/xQYh+1ssBEldLtWlkuk8ZXNXzu8TNxoEo4P5FsM96FwTuxx14ayheEUELXAHH+Te7f97DQS/M9SgQNYFAA+CsJbe/NGN0/wzAflGDiFY/MmBXC4Vo9cRuKOCdwNHLrIO6djiLIcbFADq8q8xKFNirwJ0iWD1UKX6PPhSgwG6BQAOgu2DOtL4G4ExuwD4FfmRXi6/d51E8gAIxFph9iXWcMYLFEJwe4zHYenQFHt4T/D4V3RbZGQXCEQg8AGb76m8Rke+EM268VuXtYeK1X+x2/ALZpdZZ0hoNgtnxV+GZFPibgEA/68BY3awWfkUXClDg2QKBB8DRdwHL1m1QvJ4bMiaBq+1q8d1jOpIHUSDGAqNfEhneeTEUiwHsH+NR2HqIAgr9gcBYbVcLt4XYBpemQOQFQgmAWbPxrwL9SuR1ItKgQpY3q4UVEWmHbVDAV4H80oFZjtNaLJB3+roQiydKwL2Lwp7g97lEDcZhKOCTQCgB0J0lazYGBDrXp7kSV1YEa4YqRfedEb4okAqBfLnxdlVnMZ8glIrtntiQqp/scDpXb1p93O8nVohnUyA9AqEFwHzZOk8V/Jtae9fa5+xq8YPtncKjoyqQNRuHAyOHA8bhAA43YBym0MMBeQqqT0HwFET+AsVTgD6lhrG+2Tn3P7FCnKjO5Hlfy9TI7xy4WHX03oEv8bw+C8ZcQNcZmlk9WOvdEPNB2D4FAhcILQAetey/urqHtw0BODrwqWO8oEK+0uzufXeqQkCM9+vvW88vabwaGX2jOjgZgjeOc6wdKlgHR29To+NHWypz7xtnnVidlivf+UJB50LHcd4jIq+MVfNs1nsBka876ly5pVr6gffFWZEC6RAILQC6vDlz4CLAWZMOau+mFOBGdZxzeTNT70z9qpQ3rZMV+gaovN6fb7jKANT5WtekzFUbV/Ru82uOqNQtLLImb+/WhSKyEIqeqPTFPgIRaAF6papc2awVrUBW5CIUSLBAqAFw9Gaww2oD8rIEG/s0mgyK0/rQUP+8AZ8WYNkJCOTKA0eJthYr5JwJlBn7qYpfqujVTkfHVXd/Yu4vx35ifI/c80SRhQB4v8z4buNYOt+qiiuN1siVQ2uOv3ssJ/AYClBg3wKhBkC3vaxZXy4QPpB733v17CMUT6jooma19OXxnM5zvBeY8eGbuqfud+DFKurezmS69yvss+I2iFwlIl8cWtWbiv9Yul8WcVQXCvDmferwgDgJ/BaqV7Y6O65Iy19q4rQ57DX+AqEHwDl9m1/Wwk5bBAfFnzOkCQRVu1J0n63KV4gCebPxDsXot1bnhNjG00v/AaKL7Urpmgj0EkgLs836SYYYC6H6vwJZkIv4IqCq9xqGcYVi15V25fhHfFmERSlAgeAfBbc385xZXwPIRdyP8QuI4juOyCLe9X78huM9c85Fmw/Wrl2rVPX9463h13miWDNUS9ftg7J9VlFEFwJyBoBpftmyrscCgrtU9arJw3Jl47Lido+rsxwFKPAMgdDfAXT7cT8vBXVsAF3coQkJ/EyARUPV4i0TqsKTxyyQXWK9VQxZDujsMZ8U8IFpfaTg3KUDhwxr6zRR41RATw2YncuNSUDcb7HfAHXW2bXSnWM6hQdRgAKeCEQiAI6GwD7rcxCc58lULFIZ7h5e9ZMVJ/6ZFP4IZC+4fbrR3b1MBRf4s4LnVf9gV4sv8rxqTArOKVuvUsWpDvQ0gcyLSdsJbVMfgco6hd7QrBXXAaIJHZRjUSDSApEJgO7/QTsO6uBnAT25YASwHaDSrBav86Qgi/xVYPRdP8Eyf27r4iv0H+1q8RBfV4hB8fySgV41nNMEOFWBY2LQchJa3AXIOhXc0NKRdfdU5z+ehKE4AwXiLBCZADj6LmB5wIQ6lTiDRq13955ZhuiqoWrx51HrLW79xPBdv70R/9CuFl8fN3u/+h29T6Poadj9Y+KX+rVOiuv+UBXrWtK64Z7q/AdS7MDRKRA5gUgFwNcuu71j645u913A4yInFe+Gfg+VVXatsDbeY4TXfd6sn6sqH4zhu37PRhNda1dK7qPV+NojMOviLftlOv5yGqCvA8R9RvlriDMeAX0UwF0KbMoYxrrBVQX3aU98UYACERSIVAB0fXLl+ulQ4Y8tfbhYFLIRgsublcJVPpRPZMnR4AecG5Fbu3hmrKr9zVqpz7OCCSs052P1V+guFNQwjgN0LpR/KX2OLX5IIOsd1U1wQ9/jXZsGP9+zK2GXA8ehQCIFIhcAR0Ngn/VVCM5KpHg0hvqRQC4fqha+EY12otdFUoPf30srdEWzWloePf3odfQac/2BnZIpKVCCojgaCiHd0evU344EuFeh61WMDYJdm+zK8T/xd0VWpwAF/BKIZADMLq1nxZE6gCl+Dc66AATfV0cvb9ZK36UHkF1mT5edO86EOu9N2jt+z7G/f4G2SnZt/hbuf/sC7v0GDcHuUAgcDWBG+1WifIY+DpX7ITIAx1lvdHTXB1f1/C7KHbM3ClBg7AKRDIB73gVcAcH/GfsoPHICAneq4vrOjl3Xb1p5wq8nUCeWp842rZwAZ7q/AKTqiwAK+UqzWjg7lhsXtaZVZfbSu2aKMzLTMGSmOnokRGYCcH8dFrV23X4EeFIF90P1fohxPxy9H4beb+zcef/gpSe6n+fjiwIUSKhAZAPgUctu3797uNt9F3BWQu0jOJb+GTC+BcH1dqWwLoINetpS3rTeprtDn/vEiBS/9HS7WvpWigF8H/2oZdd2de44dKYYxkwoZhoiM1V1JgRToZgK/PXXJE+aUSgE2wDdBsg2ANug+B1ER0OeZDrvy4zI/ZtWH/d7T9ZjEQpQIHYCkQ2ArmS+b+CdKk5qnmUasavnHoVeDzFubVYKbhBPxGtWef1cQ403CeQUAMcmYqgJDyEDdndvCSvEmXApFpiQgBsUJ//5hVN3dnZMzbSMqUZHxwGOMzJVRKaKYKqjmCqq3TCwTdXYZoj7O7Y5Gd2W2bXryVZn57Ydu5xt9/bPe3JCjfBkClAg8QKRDoCufq7Pct+RenvidyLaA/5YgNsguG1q14tvu2PFETui3e4/dvd06AOMk2X0w/t8PVtATbtaqlGGAhSgAAXSIRD5ALjnrv3uO1BGOrYk8lM+DDcMwmmIg+ZQ/7yBqHU8Z+nmF6vunOOo9jD0jXF3VH9h10oJ+xLDGGfnYRSgAAVSKBD5AOjuSbavXhORJSncn+iPrHgCgqYCNoCG4xiNu/t7fxNk41mz7v4o91io0WOIHsvHe41TX5y32JV5if/s5zh1eBoFKECBRAnEIgC+csmGAyYbxq0C8Md38bj8HgNwH4D7BXqfA7lPNHPfpJ2t+xqXFbePZ4RZSwZe2mG0jlQYRyr0SPeblQI5Erv/mS8PBBT4fLNaPM+DUixBAQpQgAIRF4hFAHQNZy/ZcKJhGLcCyETclO09v8AwFNsh2K7Q7QJsf/rfAemAYrIIJiswGapTIDIZ7j/zIwBBXFcP29XiS4JYiGtQgAIUoEC4ArEJgC5T1tywWGD0h0vG1SmQXAF1nJOa/fPcv2jxRQEKUIACCRaIVQB09yFnNr4O6DsSvCccjQLhCYhcblcK54fXAFemAAUoQIEgBGIXAGddvPGITGfrViheEQQQ16BAqgRUm3atlEvVzByWAhSgQAoFYhcA3T3KmtYZAlybwv3iyBTwV0DwJ7tSfIG/i7A6BShAAQqELRDLAOii5cxGFdC+sAG5PgWSJvCU40zlkySStquchwIUoMA/CsQ2AAIquXLD/VHw67mpFKCAdwKOdhyzpXbcj72ryEoUoAAFKBA1gRgHQPdHwfVjBeJ+Y3Fa1GDZDwXiKqDi/HOzMu+muPbPvilAAQpQYN8CsQ6A7ni5vvoHIfLZfY/KIyhAgTEJqJ5v10qXj+lYHkQBClCAArEUiH0AHA2BZeuLULw3ljvApikQMQFVuaRZK6yKWFtshwIUoAAFPBRISAC884XQzlsBne2hDUtRIJUCqnpus1b6QiqH59AUoAAFUiKQiADo7tXsS6zjjBa+C+BFKdk7jkkBXwTUwdua/cXv+FKcRSlAAQpQIBICiQmArma2PHCKqOOGwI5I6LIJCsRQQBWlZq1oxbB1tkwBClCAAmMUSFQAdGfO9VnvguCqMc7PwyhAgWcIaMs4srm6937CUIACFKBAcgUSFwBHQ2C5cSFUL03utnEyCvgnoDuGD2x+6sQn/FuBlSlAAQpQIGyBRAbA3e8EbqhADDNsYK5PgZgJbLWrxekx65ntUoACFKBAmwKJDYCjIdCsfwGQ97VpwsMpkGIBucGuFk5LMQBHpwAFKJAKgUQHQHcH833Wt1Xw1lTsJoekwAQFBFgyVC2unmAZnk4BClCAAhEXSHwAdP2zZn29QOZFfC/YHgVCFxDHKAz19w6E3ggboAAFKEABXwVSEQBdwZxp/RTAq3zVZHEKxFvgd3a1eGi8R2D3FKAABSgwFoHUBMDdIbD+CCAHjwWGx1AgfQL6LbtaOj19c3NiClCAAukTSFUA3PNOoKZvmzkxBfYtINDzhqqlz+/7SB5BAQpQgAJxF0hdANwdAhu/BvSlcd889k8B7wR00K6Weryrx0oUoAAFKBBlgVQGQHdDsqY1IMDcKG8Oe6NAUAJ89y8oaa5DAQpQIBoCqQ2Ae94J/Cag/xKNrWAXFAhLgO/+hSXPdSlAAQqEJZDqALg7BNY/DchHwtoArkuBsAX47l/YO8D1KUABCgQvkPoAOBoC++ofg8i/B8/PFSkQtgDf/Qt7B7g+BShAgTAEGAD3qOfMgYsAZ00Ym8A1KRCWgKJ1YrM6/46w1ue6FKAABSgQjgAD4N+5Z82B8wXOZ8LZCq5KgWAFFPL+ZrXwxWBX5WoUoAAFKBAFAQbAZ+xCzrTeA+BLUdgc9kAB3wREL7crpfN9q8/CFKAABSgQaQEGwL1sT860zgTwBQD7RXr32BwFxiew1a4Wp4/vVJ5FAQpQgAJJEGAAfI5dzJYbJXGcNRDpTcJGcwYKPC1gaOuwwdr8hyhCAQpQgALpFWAAfJ69n/vhganD+zmrBTg3vZcIJ0+UgLaydm3+lkTNxGEoQAEKUKBtAQbAMZDlTetDCrjfEO4ew+E8hAJRFPi5saurMHhpz6NRbI49UYACFKBAsAIMgGP0zpWtE+CGQAWflzpGMx4WGYGb7WrxlMh0w0YoQAEKUCB0AQbANrbg6EXWQZ1dskZEF7ZxGg+lQHgComvtSolPuglvB7gyBShAgUgKMACOY1vyZmORQt0fCRvjOJ2nUCAQAREsGqoUPxXIYlyEAhSgAAViJcAAOM7typmNN+x+cojMHmcJnkYBvwQ2qerKZq30Xb8WYF0KUIACFIi3AAPgBPbvmKUDh3S0tMIfCU8Akad6KqDQlZOHZWXjsuJ2TwuzGAUoQAEKJEqAAdCD7Zzd11hgiLOU7wZ6gMkS4xJQ6A9EsdKule4cVwGeRAEKUIACqRJgAPRou917Bu7c3ylDYXpUkmUosG8BwZ8AWWlXCp/c98E8ggIUoAAFKLBbgAHQ4yvBvV2MKJYqcJLHpVmOAv8oIPL1ljgr715V+i/SUIACFKAABdoRYABsR6uNY0e/KazOUogc3MZpPJQC+xZQ/EIMXTlUKV2574N5BAUoQAEKUODZAgyAPl4V+SWNV6uhZQBn+7gMS6dIQCCfVae10u6f93CKxuaoFKAABSjgsQADoMegeyuX7bPOEsFSAEcHsByXSKKAyK3iYO1QrXBDEsfjTBSgAAUoEKwAA2BA3u5TRLom4aNQnAfgkICW5TKxF9BBFWNts1K4KvajcAAKUIACFIiMAANgwFtx7CV3/c+Ws+sDCvkAFAcFvDyXi4mAAA9AsPYVucLa6xZIKyZts00KUIACFIiJAANgSBvVY65/+QgyHxDBeVBMDakNLhs1AdUnILIWMrLWrhz/SNTaYz8UoAAFKJAMAQbAkPdxdnnjkaKtDwjwAQCTQ26Hy4cr8P8cyazdUpl7X7htcHUKUIACFEi6AANgRHZ4dt+Gow0x3BDofkawMyJtsY0gBBRfE3XWDvXPGwhiOa5BAQpQgAIUYACM2DWQ69s4G9Jyg6D7i69kC1wHlSvtWuHmZI/J6ShAAQpQIGoCDIBR25E9/Yy+I2gYC6A4A8CrI9om22pTQFXvFZFrW4Zeyyd4tInHwylAAQpQwDMBBkDPKH0qtEyN3A5rgYosEOBtPq3Csj4LiOI7Krh2Rr5wLb/V6zM2y1OAAhSgwD4FGAD3SRSdA9wfD4sxskBVFgCYEZ3O2MleBQS/gOJaB7huS7VoU4kCFKAABSgQFQEGwKjsRBt9zPjwTd0H7D9tAVTcHw+f2sapPDQAAQW+J4rrpk0avvaOFSfuCGBJLkEBClCAAhRoS4ABsC2u6B2cW7KhRw1jgSjeCsHM6HWYjo4UshHAzYBzU7Na2pSOqTklBShAAQrEVYABMK47t5e+c2bjDQI9SSEnATo7QaNFcpSnQ58jI7fcXZnvBkC+KEABClCAArEQYACMxTa136T7ziAyxqlQPQmQ3vYr8Iy9CewOfc4tjjg3M/TxGqEABShAgbgKMADGdefa6Dt3Sf0wjBinQfQ0AG9o41QeCoChj5cBBShAAQokTYABMGk7uo955izfPMXZOXKatlqvg0iPALmUEYxl3HsUOmhABkektYnv9I2FjMdQgAIUoECcBBgA47RbfvR6xrWZWTNe3GM4mR6I9gCjofAYP5aKaM0dgFoQw3JDX8ZpDQ3W5j8U0V7ZFgUoQAEKUMATAQZATxiTVeTwZbdPmrajo0eMTA/0r6HwlcmYUn8NMepwYKk4A83u4iBWiJOM2TgFBShAAQpQYGwCDIBjc0r9UYVF1uThzMhMdHa6N6CeoerMBMT9Z/fWMy+JENDDgD4EGA8q9CFD8SAMPAgxHpJWx4ODtZ6tEeqVrVCAAhSgAAVCEWAADIU9WYs+ZzgUTIHqflCZAsEUAaYAmKJAZowCu6C6FSJPALoVkNF/VgdbR/9ddKsheBBuyIM8JH/qenDw8z27xlibh1GAAhSgAAVSK8AAmNqtD29w90fM+23rnpLpNKZIRqaIyBRoaz+jJS032ElH5xPowtbB5T1PhdclV6YABShAAQokV4ABMLl7y8koQAEKUIACFKDAXgUYAHlhUIACFKAABShAgZQJMACmbMM5LgUoQAEKUIACFGAA5DVAAQpQgAIUoAAFUibAAJiyDee4FKAABShAAQpQgAGQ1wAFKEABClCAAhRImQADYMo2nONSgAIUoAAFKEABBkBeAxSgAAUoQAEKUCBlAgyAKdtwjksBClCAAhSgAAUYAHkNUIACFKAABShAgZQJMACmbMM5LgUoQAEKUIACFGAA5DVAAQpQgAIUoAAFUibAAJiyDee4FKAABShAAQpQgAGQ1wAFKEABClCAAhRImQADYMo2nONSgAIUoAAFKEABBkBeAxSgAAUoQAEKUCBlAgyAKdtwjksBClCAAhSgAAUYAHkNUIACFKAABShAgZQJMACmbMM5LgUoQAEKUIACFGAA5DVAAQpQgAIUoAAFUibw30mhJB37likiAAAAAElFTkSuQmCC;rotation=1;" vertex="1" parent="1">
          <mxGeometry x="-2170" y="270" width="80" height="64" as="geometry" />
        </mxCell>
        <mxCell id="CEV9l8MN5-AWiUajf7o9-723" value="" style="shape=image;imageAspect=0;aspect=fixed;verticalLabelPosition=bottom;verticalAlign=top;image=data:image/png,iVBORw0KGgoAAAANSUhEUgAAAOAAAAEACAYAAACqHnrXAAAAAXNSR0IArs4c6QAAEYdJREFUeF7tnWtwVOUZx5/3bEJEFK9YrdUiKi0KZHfDJdlAvdVqsaK14ky/tDN+qp2hM96S3cgMMqNkQ2s7HT449lv9KLVU62i1VhCyu4mQbMAraL1UarVU6y1IQva8nYRLRUhy9uw553mf8/7z1fM+z//9Pc/PZLKbRRG+QAAE2Agots5oDAIgQBAQSwACjAQgICN8tAYBCIgdAAFGAhCQET5agwAExA6AACMBCMgIH61BAAJiB0CAkQAEZISP1iAAAbEDIMBIAAIywkdrEICA2AEQYCQAARnhozUIQEDsAAgwEoCAjPDRGgQgIHYABBgJQEBG+GgNAhAQOwACjAQgICN8tAYBCIgdAAFGAhCQET5agwAExA6AACMBCMgIH61BAAJiB0CAkQAEZISP1iAAAbEDIMBIAAIywkdrEICA2AEQYCQAARnhozUIQEDsAAgwEoCAjPDRGgQgIHYABBgJQEBG+GgNAhAQOwACjAQgICN8tAYBCIgdAAFGAhCQET5agwAExA6AACMBCMgIH61BAAJiB0CAkQAEZISP1iAAAbEDIMBIAAIywkdrEICA2AEQYCQAARnhozUIQEDsAAgwEoCAjPDRGgQgIHYABDwSSOa6lylylpOmNBHNIFIzDh7Ve4loL5EuaXI3DuSXbvZYkiCgV1J4zkoCi1f2TD8wrbLSJbpVkZrlDYLerYgerh9MrO9d3/zpRGcgoDeieMpCAqn2wm2k1EoimuPz+q+S1uvLXa0PjnceAvoki2PxJpBqLzxASt0R0C03lPOZW45XCwIGRBhl4kMglS3uJKJ5Ad9oTzmfOe+rNSFgwJRRTjABrVUqV3JDvMGL5Xxm/pfrQ8AQaaO0IAKrtZMaKlVCT6z1r8tdrXce7gMBQyeOBqYTWPGITrzRXxqJLKfWPz/8ixkIGBl1NDKRwOWrN9V9MtRwIOJsr04ZdJpHX6KAgBGTRztzCDQ9tL3efWt4mCORIr2qP996PwTkoI+e7AQuWvlkw8nTTt3PFUSTfnMg33ohBOSaAPqyEZi5etMJpw01fMEW4FBjrdzrICD3FNA/UgIttxen7m+gfZE2Ha+ZoocgoBGTQIgoCDTdu/1Ed//wYBS9PPbYBgE9ksJjsgnMv2vHtETd4OeG3eJtCGjYRBAneAKXrN50UsNQw2fBV661ohqEgLUyxHmjCbS2dZ+8z3Em/JMgvgtAQD726Bw6gcWre6YPD7mfhN7IfwP8COqfHU6aTKCpffsprhr+2OSMRIRfwhg+IMTzQSC5unyqGvrivz6ORnsEL0NEyxvdwidw6e3F06c00Ifhd6q9A16Ir50hKhhEYFHu2TMO6BP/Y1CkcaPgrWgSpoSMngk03bnpTLe+YfTTyUR84c3YIsaEkF4IpHJbZpCu+7eXZw15Bn+OZMggEKNGAvPvKpyVqFMf1Fgm2uP4g9xoeaNbOATmdvR8rd513w+nekhV8ZEUIYFF2UgJLLz7hbNHEiP/irRp7c3woUy1M0QFbgJNHdvPcd3h97hzVNu/nM8c89ZPvBe0Wop4npVAqq376+Q4/2QN4aP58eQbLQMBfcDEER4CjfcUz3UqtIenu/+u48kHAf0zxcmICcy94/nz6qfU/yPitjW3m0g+CFgzXhSIgkBT+9bzXZV4J4peQfaYTD4IGCRt1AqFQOrOwjepXr0dSvEQi3qRDwKGOACUrp1AMluaqUi/VXulaCt4lQ8CRjsXdKuCwPy7ei9I1FXerOKIEY9WIx8ENGJkCPFVAguyW2dVKPF3aWSqlQ8CSpuwBXmbVhUudEfUG9Ku6kc+CChtyjHPm84WL9JEr0u7pl/5IKC0Scc4b3JVz8VqxN0t7Yq1yAcBpU07pnkbc72zHV3ZJe16tcoHAaVNPIZ5F6za9q3KyIHXpF0tCPkgoLSpxyxvuq00Rzv6FWnXCko+CCht8jHKm8ptuYR03cvSrhSkfBBQ2vRjkrexvftSRzkvSbtO0PJBQGkbEIO88zsKcxOuelHaVcKQDwJK2wLheZvai/NcRTulXSMs+SCgtE0QnDfd0TNfu+4OaVcIUz4IKG0bhOZNtfc2kqoMSIsftnwQUNpGCMyb7CgklavK0qJHIR8ElLYVwvI2Zosph6hfWGyKSj4IKG0zBOVt6iilXVf3CYo8FjVK+SCgtO0QkjfV1r2AHGebkLhHYkYtHwSUtiEC8iazhYWK1AsCoh4VkUM+CChtSwzP29hWXOQ41Gt4zGPicckHAaVtisF5m3Klxa7WPQZHPG40TvkgoLRtMTRvuq27WTtOydB448bilg8CStsYA/OmcoUW0qpoYLQJI5kgHwSUtjWG5U22FzNKUcGwWJPGMUU+CDjpqPDAeASSuVKr0rpbGiGT5IOA0rbHkLxN7T1LXOVuNSSO5ximyQcBPY8ODx4mkM71LtW6skUaERPlg4DStog5b+ru4mWUoM3MMapub6p8ELDqUdp7IJndermixCZpBEyWDwJK2yamvI1t3Vc4jvMcU3vfbU2Xr2oBk7nuZYqc5aQpTUQziNSMg3T0XiLaS6RLmtyNA/ml4n5M8T3lmB9MZwtXalJ/k3ZNCfJ5EnDxyp7pB6ZVVrpEtypSs7wNQu9WRA/XDybW965v/tTbGTxlGoFUW/EqcuhZ03JNlkeKfJMKmGov3EZKrSSiOZNdepz//ippvb7c1fqgz/M4xkQglS19l0j/lam977aS5JtQwFR74QFS6g7fJI4+uKGcz9wSUC2UCZlAsqPnauW6z4TcJvDy0uQbV8BUtjj60XHzAia0p5zPnBdwTZQLmEBjtud7DrlPB1w29HIS5TuugMn24odK0elhESs3PJ2gNWvcsOqjrn8C6Y7iNdqlv/ivwHNSqnzHCJjMlnoU6cVhY7wo3VK34RZVCbsP6nsnkM4Wr9VET3k/YcaTkuU7SsBUtjj6i5KfRYXV+WjKlL7fLTgQVT/0GZ9AqqP0fXL1k9IYSZfviICNua2zHZ0Y/eDUqVEOYahhesMra+YOR9kTvY4mkGwvXKeUekIalzjId0TAZLZ0nyJ9D8cQTmkYmrp5zRX7OXrb3jOdK/5Aa/qzNA5xke+IgKlsYReRms01COeEKdP67l2wj6u/jX3T7aXrtdKPS7t7nOQbE9CUN9lWRqadtPNXjYPSFkJi3lSuezlp5zFp2eMm35iAqWzht0TqFyYMY5/rTt+1bslnJmSJa4Zke+EGpdSfpN0vjvIdErA4+iGqC00ZiKMHT+3ruvoTU/LEKUcyV7xRadoo7U5xle+wgG8R0UyThqIbpp42sCb1sUmZpGdJZ4s/1ER/lHaPOMt3SMDS50R6mmmDGR6iM17+TeYj03JJzJPOlW7SWj8qLXvc5TNawNFw9Spx5gudiz+Utjgm5U1le35E5P7BpExestggn7E/gh41IDVyVrnzO6N/8IuvKgmkcj03k3Y3VHmM/XFb5DPylzDHm/4Bxzn7pbXNH7BvhqAAyWxxhSJ6RFDksag2yXdIQHNehphoWeoqdeds++Wi96UtFEdeyMdB3V9PY16I9xTfdc8tr1vynqdnLX0I8skavBqNy/1WtGqQVdyh83auu2JPNWdseRbyyZv0mICcb8b2g6wuUXf+tvsXvevnbFzPQD6Zkx0TkOvPkWpCdkDPLD/Q+k5NNWJyGPLJHeSYgAd/DI32D3KDQKZJXTCQb3k7iFpSa0A+qZM7mPuIgId+FI3kIymCRJagyoXb80vfDLKmlFqQT8qkxs95lIBjEob8oUxhIFNEF/fnM2+EUdvUmpDP1MlUl+sYAQ/9OKqrK8P/tK5zZg/c1/w6f5LwE0C+8BlH1eG4AkqVsOK63965bsmuqOBx9IF8HNTD6zmugFIldBTN6evMvBYeMr7KkI+PfVidJxRQqoSknEvLnc2vhAWNoy7k46Aefs9JBZQqYcXR83aubX0pfIThd4B84TPm6uBJQKkSOprm93VlXuSCG0RfyBcERXNreBZQqoSkK8ly19Id5o5g/GSQT+LUqstclYBSJXSJ0jvymXJ1aHifhny8/KPqXrWAUiV0HNXUt7alPyqwtfSBfLXQk3XWl4BSJSTXXVhet2S7ySOCfCZPJ/hsvgWUKqEmvWgg37oteJS1V4R8tTOUVqEmAaVK6CjV3NfZ0mvSsCCfSdOILkvNAkqVkJTOlDtbS9Ghxm87TWBtWoZABJQqodbUOtCVKXIOBd/5OOnz9w5MQKkSOtpZ2tfV3M0xCsjHQd2snoEKKFVC0vqyclfrlihHA/mipG1ur8AFFCuhosvLnZnnoxgV5IuCsoweoQgoVULXda/csW7JpjBHB/nCpCuvdmgCSpVQUeKq/vzi58IYJeQLg6rsmqEKKFVCInV1Od/ybJCjhXxB0oxPrdAFlCqhS/qaHfnWZ4IYNeQLgmI8a0QioFQJlUPX9q/NPF3L6CFfLfTifzYyAaVKSFotK3e1POVnFSCfH2p2nYlUQKkSauVcN9DZ/GQ1qwH5qqFl77ORCyhVQqXo+v7OzBNeVgXyeaGEZ0YJsAgoVUJS7g3lziWPT7Q6kA9iVUOATUCpEmrt3DjQ1fzY8SBDvmpWD8+yfgc8jD+VLYr7GHxFdFN/PrPxyysE+SCUHwKs3wElS0ikby7nWx8dvQPk87N6OGPEd0DREiq9QmulFNEj0tapnM8Y8T9fadyCzmvUECT+OBr0QKKoB/mioOyth1ECSv3FjDfUZjwF+cyYw+EUxgkICcNbEMgXHlu/lY0UEBL6Hef45yBf8EyDqGisgJAwiPEerAH5gmMZdCWjBYSEtY8b8tXOMMwKxgsICf2PH/L5ZxfVSRECQsLq1wHyVc+M44QYASGh9/WAfN5ZcT8pSkBIOPm6QL7JGZn0hDgBISFeajBJoFqziBQQEh47dnznq1UFnvNiBYSE/18YyMcjTxBdRQsICfEiexAScNYQL6DNEuI7H6c6wfSOhYA2Sgj5ghGAu0psBLRJQsjHrU1w/WMloA0SQr7glt+ESrETMM4SQj4TlAk2QywFjKOEkC/YxTelWmwFjJOEkM8UXYLPEWsB4yAh5At+6U2qGHsBJUsI+UxSJZwsVggoUULIF87Cm1bVGgElSQj5TNMkvDxWCShBQsgX3rKbWNk6AU2WEPKZqEi4mawU0EQJIV+4i25qdWsFNElCyGeqHuHnslpAEySEfOEvuckdrBeQU0LIZ7Ia0WSDgIc4R/1Po0G+aBbc9C4Q8EsTikpCyGe6FtHlg4BfYR22hJAvuuWW0AkCHmdKqWzxXSL6RpAD1Jo+GujKnBFkTdSSTwACjjPDVLY4+u++rwhixJpU70C+pTmIWqgRLwIQcIJ5prLFB4nop0Q01efYvyCi35fzmdt8nsexmBOAgJMMuDG3dbbSdT8hcn+sSM3ytg96tyZng1YjD+/oXLrb2xk8ZSMBCFjF1JO57mWKnOWkKU1EM4jUjIPH9V4i2kukS5rcjQP5pZurKItHLSYAAS0ePq7OTwAC8s8ACSwmAAEtHj6uzk8AAvLPAAksJgABLR4+rs5PAALyzwAJLCYAAS0ePq7OTwAC8s8ACSwmAAEtHj6uzk8AAvLPAAksJgABLR4+rs5PAALyzwAJLCYAAS0ePq7OTwAC8s8ACSwmAAEtHj6uzk8AAvLPAAksJgABLR4+rs5PAALyzwAJLCYAAS0ePq7OTwAC8s8ACSwmAAEtHj6uzk8AAvLPAAksJgABLR4+rs5PAALyzwAJLCYAAS0ePq7OTwAC8s8ACSwmAAEtHj6uzk8AAvLPAAksJgABLR4+rs5PAALyzwAJLCYAAS0ePq7OTwAC8s8ACSwmAAEtHj6uzk8AAvLPAAksJgABLR4+rs5PAALyzwAJLCYAAS0ePq7OTwAC8s8ACSwmAAEtHj6uzk8AAvLPAAksJgABLR4+rs5PAALyzwAJLCYAAS0ePq7OTwAC8s8ACSwmAAEtHj6uzk8AAvLPAAksJgABLR4+rs5PAALyzwAJLCbwPwLJnpH+SH1pAAAAAElFTkSuQmCC;" vertex="1" parent="1">
          <mxGeometry x="-1753" y="270" width="56" height="64" as="geometry" />
        </mxCell>
        <mxCell id="CEV9l8MN5-AWiUajf7o9-724" value="" style="shape=image;imageAspect=0;aspect=fixed;verticalLabelPosition=bottom;verticalAlign=top;image=data:image/png,iVBORw0KGgoAAAANSUhEUgAAAQAAAAEACAYAAABccqhmAAAAAXNSR0IArs4c6QAAHzRJREFUeF7tnQ20XHV19p99bshlAUJR8G21KFDUikpmJkFyZ0hqFERfQAQX6vIDJbVYtViwknsm0Ia0kDk3WL+oWqkNLa0ugVf7QvyogoYCc24QMjNBwS/AAGrfCkqJwOKG3LPfdW4IhZDcO3eec87/nHv2rMWCtXKe/d/7t3ceZs7H/wjs8xSBI87+6fD++z5wCKAvisQ7RKLoEBU5RICpfxQS/9kBgDwK6AMAHoj/LfB+Ff9bIfeo4PtD2x7/8aa/XfagoU2OwMK/2HDQ5Py9XyaKVwn0cEAOVkTPj/8N4OAd/9Z9AXlYoPcrMPWPqN6vnne/p9H9gNy39dGD77/r0pdMJJdZsSNJsdPns6+c166IJ2+A4GQAdT7ikxEEd0P1DhXvR5icvL639tjrEotdgkCVFTcfj6Gh40SjP4TIK6D4gwTLDqFYr5H+e++SRi/BuIULVToDqJyz4Xcwf/g1nuCP1MPJCQ/WHgdAgG4EvVYh12wO6t3CTUoGCS/ww6pAT/Egb1KgmsGSgOBuibA+UvwHtk3c0Pvksv/OZN2cLFIaA6j44+/zVE9UD8dBsZ9T/iLXSaRfkYfmr9t02aInnObiePGFZ922lx64bbl68haoHu80HcEjEuH6SOTrvWDkC05zyWjxOW8AldGNpwCTfy4iyzJi2vcyAvwAkHWij6zbNHb8w30L58CBC0evO0Blv+WALlfglXkrSVU3AEOf6o0tviZvuSWZz5w1gErzxgaieR8WwVuTBJZGLIXe4wHrxJtct2nN0v9MY428xFy48sbf02hoeQQsF8jheclrT3mo4ip42z/day1t5z3XQfKbcwawoHnTSwVDHxbFhwYB4lQj8jMR+avOmsX/6jSPlBavrdz4LlX9a6geltISqYVVwWcUk5/e3Fryk9QWcRB4ThlAxW9fKJAPAzjQAcvklhR8fnJY/+r2Cxu/Si6ou0hHXdh+/tCE/DUU73eXRSIrP6SQT/WCkdWJRMtBkDljAFU/vALAu3PANKkU7pj6NtAa+WpSAV3EqTXHT5v6vz7wChfrp7Tmv3SD+hkpxc40bOEN4BWrwufOn8D6RK/hZ9qC6RdT4JJeUF+Ro5T6TqXih2sFOK9vQbEODLcN4+Q7Vtd/U6y0n5ltoQ0gvm7sAd8E8L+K3ISZc5f13WDkTTMfl58jqv74tYDGN1fN5c9/RcAbi3xfR2ENYIEfnuoBhf56PMu/GXdN7q2NvJ8XmPq9/7jEZ8yPmGV9hT08Ak7bHNT/rYgFFNIAKs3wHFF8oojA6ZyHho7uXnzMbXScFAJUz79lESYnb00hdO5DquDcXqv+ydwnukuChTOA+I4+gf5D0UAnma8AL+kE9buSjMnGqvnhEQr8lI1TZL1C/qRodxAWygAqfvtogXyvyEOSVO6eN/8Fm9YsysVNQwtX3vZ7UbTtl0nVVuQ4Cn11L2gU5ltQYQyg4o8fKtCfFXk4Es79h57OH9k0tsjpLcQLR287IJJt4wBennB9hQ2nkMN6wciWIhRQCAM4ctWG/YYfH+5BEn0ktAj9mSFHWe/9Zq+3uHqgKH6QJ3ruE18pwdn+2c2K4u6JvScqd65e9sjshNkfXQgDqPrjXwb0bdnjKcSKV3SD+ntcZFr1w38GMCduiEmen1zZDUbennzcZCPm3gAqzfDvCnlff7J9mumbwAe6wcjfZ7lk1R//U0A/l+WaRVsrfn6g16r/WZ7zzrUBPHlv/6o8A8xJbr+GDr2uO3bM5izyqY7esgAy+R0Az8tivSKvoZAL8/zsQG4NIH6qz9OhjYV/sCej6VXga72gnsmddxU/XC/ASRmVVvRlHopkcnFenyLMrQHYV//Zz71AL+gEjYtnr+xfUfPb5yvkov4VdmSefwrk0gDizTxE591sozN7Aqpo9Mbq4eyVMysqo2FdBHNyY4yZq+eOUNl+bB43FcmnAYyGVxZhJx9uJNJRK/BvvaB+WhrRK374VQFOTSP2XI8Z7yzUG6vn7kpW7gwg3sNPJPq/ORiILQK5IYo0PrG2Bapb8MS2LfGusa/ybzpwL+x1eITo8HiPeoUcLkC8vdVxOcgbED2j22r8S5K5VJvtd0Ml3nMhD5/rFbhHoPfE72Lw4N3zBJ645/vBkoemdn3ea/6hEDkUwKGeJwsU+pr4v10nruq9OW97DObQANrfdbiB5x0a4QtQvWGQ/eLjW5U9yOkKnO544G4/YHjimBtWL3s8iaF/zaoNez88MXwLgKOSiDdgjC0CXB1Brx7kVtv4/Q8QeY14eJ+rzUnijUZ7Y43XDlh/KrJcGYDDB322KvQTw8NDH79l9eKtLOmjPvqtfb15+50uU0Yg/5uNN4heoat7QePCQbS7atxejtVvaPwXf/sjV9/+sRMeZes5ZtXG/ScmJj8ikHMB7M/Gm60+bw8M5coAqn54LTD1hp7sPoIvAd7F3dbiO9NYtDLavlhEVqYRe9qYgkeGREduW9P4AbP2opXtV06qjDt5l4Lqx7tjjb9g8t+TttrceCQQnQ/FO9KIP03M9d2gnpvNXXJjAE9u7XU/gH0ya4gg6LbqzbTXqzXDkzTSyyFyUNpr7RKf3rvO1V6LKnJWrzWS+mPf1WbYgsLPsC+PbRvGIXnZSiw3BlDxb36nwMtsO2yBt6gTLN6UYePhYpssFZzaa9UHOqlaaYZvFkW2O90I7t1nMnpVe+2xv82qNzV/40JFlNkmK4roXb3g2C9mVd906+THAEbb60TkzCyguHxcs+aPX67Q92ZR55NrhN2g3hhkvaofxtf8k3th6kxJCO7utupOthLL8nFzVb28N9ZYPhOOLP48NwZQ9cN7Abwo7aIVemYvaPxT2utMF7/qh/G+BpldllLBeb1W/WOzqbnSDD8qiktmo2GP3TaM57n8alzx2+8VyOVsHX3o7+sG9Rf3cVzqh+TCAI5q3nTM0I77/lP9COSfOsFIJt8ypitk6pXkQ5LlG4L/y/O2V/t97Vj8+q4omhfnl9luyxG8EzYHi7+d6gD0ETyrb2iTMrn49taS+NKq008uDKDij68SaCKXrKahuRXijaR1tn+2XaysCM8RL9ONTf++G9Q/0E+eVT+MH/P9036OTeIYFTm/1xpZk0QsNsbU1QGN4h2OUr1EmORlWqbmvBjARoEewxQykzYvwJ+eZ9VvXwNIZpeERKKlndaxN03Hqta8eYmqd+NMPJP7c722GzROSS4eHymL+x4UcksvGFnMZ8tFcG4AR5z90+Hn7PtAInesTYPijvnDXj2Jm3w43M9ULxi96VhPhqb9C5nkegJ8uxPUT5jWAPzwWwq8Psl1p4sV6eSSzWNLcvXgV3yz0LaJKH6gKtXXmf320YP3vuvSl0xkxXp36zg3gCy2kxbIRzrBSC7fI1Brhpeo4qNZDYGILu+0Grs90VVrts9UlXXZ5YKPdVr1XL46rOaPn6vQj6fJIg/bu+fAANqvVUi8u0xqn7yccNldgZm/SUdw98T8nx955+q3bnt6Pkeuumr+8LbfvxOa2caruX7TURYnpgX6uk7Q+G5qg99HYOcGUGmOv0dU07ws9/NuUD+kDxbODqn57bMU8vmsEhDRNZ1W4/ynr1drti9Wze6WZYG+vxM0Lsuq5kHWqfphfGfq7w+i7UejIu/ttUbijVWdfZwbQHW0fQFE/iYtAgr9Yi9ovCut+EnFrfrjXwc0uweHZPsruq2lU88/VJs3Hgmdd0dStcwcR77RDUZOnPk4t0dU/Pa/CuSdqWWh+pfdsYbT3ZWcG0DFDz8vwFlpQdYI5/bW5v+dbQtW3LzM87zMvg6q4Kpea8cGFZVmeKUo3ppWD3aNG0XRazevPXZDVusNuk7al2oVuKwX1N8/aH5J6JwbQNUPvwHgjUkUs7sYGuHU3trB7oVPK6c9xa354ScV+PPM1pVox+U39a7Jak0BPtUJ6udktR6zTmVF+GbxUn0W4pvdoJ7dt77dwHBuADU//L4Cr2QaNZ1WJ7U6yOYeaeUzXdyFo7e9KJJt8TX4bG4TFXR2GABqGdV7r6fzl24aW3RfRutRy6R9x6YAP+gE9VdRSZJi5wZQ9cf/G9ADyDr2KNfHJw6Mt/FKK37ScWuj4YdU8HdJx81DPFH8WWes/pk85NJPDvH2YrL38EP9HDvYMfJwNxj5ncG0yahyYABhfCPE/GTKeXaUohlAXEG1Of5tqB6fFhMncUWu67ZGMrvBKIka0zcAbOsG9eEkch00hnMDqIyGvxbBcwctYCZdkX4C7KyltjI8QSP8+0y1FenPxcMbOmvq3ypSzmn/BFDFb3pjdadvV3JuAFW/fS8gqT0GXKSTgE//y1Hzxz+j0A8W6S/MnnIVyGc7wciHilZL+icB9b5u0MjmfM8e4OfAAMJ4z7rU7rkuymXAXfuzoHnLSz3dvgGQFxTtL84z89VfRjJv2ebWMT8pWh1pXwYEcEc3qKd2Arwf3s4NoOKPp/okYF72AOinGbseU2uG56hm+sjwIGlOqxHBuZ1W/u/D2F0Rae8NkIcnAnNgAKm/aHJLN6gflvhkZxBw4Vm37RU9d1u8SUb8Yosifm7wfjP/9ZsuW/REEZNPe+emLF/ouuefZ447Ux1t/w1ELkgzjSKeCNzJozLaPkVEBtrUM02m/cRW1Tf3xhqZ3WTUT079HpP2CcCpPFQv6o41/rLfnNI4zvk3gFpz/DRV/Uoaxe2MWdTzADvzr422L1ORP0mTUdKxRfUfOmON1G7xTjrfXeNl8PsfIvKWTmvkq2nXMl185wZw1AW3HDa0ffKelCHkckOQfmuurdx4lEbRdQCe36/G8XG/Es87vrNm8e2O8xho+aw2BJmcN3T47RcdE28Q6+zj3ADiyqt+GN+pl9rdgFPfthJ8VZaLblVHQx+Clou1Z72motkdqwez1uVEkMWWYAAe7gZ1p3cBxrjzYgDxk2Fpn+jK1aags531l624+Tn7eN43AQy0x/9s1yOObz8WRW/8cYYv9iByfZY0q01BAdzQDerLksx9kFi5MICK3/6gQNK/R1zwpW6rnt7z3YN0YBaamj/+NoV+eRaSzA8VyNs7wciVmS+c0ILVZvjFLN4XqNAP9YLGZxNKe+AwuTCAjM4D7ICU0fsAB+7IDMKqH8Y7yJyRVnwy7hXdoP4eMoYzeZbvCczD7//c/ASIE6n6YRY/A570gOzfC5jUVC9YEb7a86aeEzgwqZgJxXkoivCGzWvr30soXqZhMn4/YC6+/ufKACqj4ytF9OKsuu7y/YBsjTW/faFCVrFxktQLdHUnaKT9cpckU34qVpbvBYwXVZXze2P5eBFKLn4CxFAqfvtogWT6f488vCdwkImuNm88GDrv6wCOHkSfguZWyPYTu62lD6QQO9WQGb4P8Kk6FPrqXtC4NdXC+gyeGwN48mfAtQBO7jP3RA6LnxVQkUvy8sqwfovKYDflflNBHna37TvZJw+Mz/aL6nkZv6k5Xn19N6hn9jaombjkygAqo+E7RODivelbFfqJ4eGhj+ft7UHTNbAyGl4pkt1mnrvLRRVX9cZ2bC5ahE98k8/ExORHBHJu2u//2wOvd/bG6l/KC6tcGcCObwHtHwPyUkeA7hDIP26X7WEe3tw6E4PqaHspROKfAvvNdGxKf/4IVE/sjjUyfJfgYJXEL/qYp/PqCv3jNB8/nz47/Uk3aLxssArSUeXPAPJzx9vPFfofiOQ2AFugugVPbNuSt/0Fq347AGQ0nfGYKaqOdYOGP9NRWf55vI0X9pp/KEQOBXAoPF0kkD9K8wUffdeXwzsk+zaA+E60fT3vOIW+TSAvVehBgMTbGe3TNwA70AgYgaQJPAborwXyoEJ/IpArH42i6/u9E3NGA6itGH+5DuFsaPR2QPJ27TlpmBbPCMwBAvoQxPuyTOLSztqRH05X0LQGUPHHLxLRs6HYfw5QsRKMQLkICLaqyqW9YGSP+23s0QCqfvtGQJaUi5hVawTmIgG9qRs0lu6ust0aQHW0/QBEDpqLKKwmI1BKAqoPdscaB+9a+7MMIO190EoJ34o2Avkg8Kz9MZ9hAFU/vArA6fnI1bIwAkYgBQJXd4P6U2+CfsoApk74Qc9PYUELaQSMQI4IKOTinScGpwxgx6U+3Whn+3PUJUvFCKRFQLBVJmVxfIlwygCqzfHPQvUDaa1ncY2AEcgZAZHPdVsjH5SFo9cdEMl+96b5iu6clW7pGAEjAHnY00deLNVm+91QucKIGAEjUDIComdI1W//H0DeUrLSrVwjYASgX5GaH3YUqBoNI2AEykVAgG78DeA+QA4pV+lWrREwAoDeL1U/fNQe6bVhMAKlJPBYbABaytKtaCNgBGAGYENgBEpMwAygxM230o2AGYDNgBEoMQEzgBI330o3AmYANgNGoMQEzABK3Hwr3QiYAdgMGIESEzADKHHzrXQjYAZgM2AESkzADKDEzbfSjYAZgM2AESgxATOAEjffSjcCZgA2A0agxATMAErcfCvdCJgB2AwYgRITMAMocfOtdCNgBmAzYARKTMAMoMTNt9KNgBmAzYARKDEBM4ASN99KNwJmADYDRqDEBMwAStx8K90ImAHYDBiBEhMwAyhx8610I2AGYDNgBEpMwAygxM230o2AGYDNgBEoMQEzgBI330o3AmYANgNGoMQEzABK3Hwr3QiYAdgMGIESE4gN4FEA+5SYgZVuBMpK4DGp+u37ADmkrASsbiNQXgJ6v9T8sKNAtbwQrHIjUE4CAnTjbwBfBuRt5URgVRuBMhPQK+NvAKcq8NUyY7DajUAZCQhwmrxsxc3P2ceTewE5sIwQrGYjUE4C+tBjkb5Y4uKrzfHPQvUD5QRhVRuBEhIQ+Vy3NfLBKQOorRh/uQ7pRij2LyEKK9kIlIuAYKtMyuLO2pEfThlA/Kn44xcJ9PxykbBqjUD5CCjk4l4wckFc+VMGMPVTwG/fCMiS8iGxio1AWQjoTd2gsXRntc8wgCkTGG0/AJGDyoLD6jQCpSGg+mB3rHHw0+t9lgHs+CYQ/gzAoaUBY4UagblPYEs3qB+2a5m7NYAnTeAqAKfPfS5WoRGY8wSu7gb1t+6uyj0awFMnBkXPtqsDc35ArMC5SECwVVUu3XnCb9YGEAt2XCJEbALvAPSAucjJajICc4uAPAzBl2QSl8aX+qarbdpvAE8XLhy97oDI2+dNUJwikMMVehAgz7NHiefW6Fg1hSPwGKC/FsiDCr0Hgmu86LFrN40d/3A/lfRtAP0Es2OMgBEoFgEzgGL1y7I1AokSMANIFKcFMwLFImAGUKx+WbZGIFECZgCJ4rRgRqBYBMwAitUvy9YIJErADCBRnBbMCBSLgBlAsfpl2RqBRAmYASSK04IZgWIRMAMoVr8sWyOQKAEzgERxWjAjUCwCZgDF6pdlawQSJWAGkChOC2YEikXADKBY/bJsjUCiBMwAEsVpwYxAsQiYARSrX5atEUiUAG0AVT/URDOyYLMi0A3qdA9nteAuB1v/GXq8lu0/PTw2AHwTmQjsADBrx1rrP0uQ07P9NwPg+DtXswPAFmAGwBLk9Gz/zQA4/s7V7ACwBZgBsAQ5Pdt/MwCOv3M1OwBsAWYALEFOz/bfDIDj71zNDgBbgBkAS5DTs/03A+D4O1ezA8AWYAbAEuT0bP/NADj+ztXsALAFmAGwBDk9238zAI6/czU7AGwBZgAsQU7P9t8MgOPvXM0OAFuAGQBLkNOz/TcD4Pg7V7MDwBZgBsAS5PRs/80AOP7O1ewAsAWYAbAEOT3bfzMAjr9zNTsAbAFmACxBTs/23wyA4+9czQ4AW4AZAEuQ07P9NwPg+DtXswPAFmAGwBLk9Gz/zQA4/s7V7ACwBZgBsAQ5Pdt/MwCOv3M1OwBsAWYALEFOz/bfDIDj71zNDgBbgBkAS5DTs/03A+D4O1ezA8AWYAbAEuT0bP/NADj+ztXsALAFmAGwBDk9238zAI6/czU7AGwBZgAsQU7P9t8MgOPvXM0OAFuAGQBLkNOz/TcD4Pg7V7MDwBZgBsAS5PRs/80AOP7O1ewAsAWYAbAEOT3bfzMAjr9zNTsAbAFmACxBTs/23wyA4+9czQ4AW4AZAEuQ07P9NwPg+DtXswPAFmAGwBLk9Gz/zQA4/s7V7ACwBZgBsAQ5Pdt/MwCOv3M1OwBsAWYALEFOz/bfDIDj71zNDgBbgBkAS5DTs/03A+D4O1ezA8AWYAbAEuT0bP/NADj+ztXsALAFmAGwBDk9238zAI6/czU7AGwBZgAsQU7P9t8MgOPvXM0OAFuAGQBLkNOz/TcD4Pg7V7MDwBZgBsAS5PRs/80AOP7O1ewAsAWYAbAEOT3bfzMAjr9zNTsAbAFmACxBTs/23wyA4+9czQ4AW4AZAEuQ07P9NwPg+DtXswPAFmAGwBLk9Gz/zQA4/s7V7ACwBZgBsAQ5Pdt/MwCOv3M1OwBsAWYALEFOz/bfDIDj71zNDgBbgBkAS5DTs/03A+D4O1ezA8AWYAbAEuT0bP/NADj+ztXsALAFmAGwBDk9238zAI6/czU7AGwBZgAsQU7P9t8MgOPvXM0OAFuAGQBLkNOz/TcD4Pg7V7MDwBZgBsAS5PRs/80AOP7O1ewAsAWYAbAEOT3bfzMAjr9zNTsAbAFmACxBTs/23wyA4+9czQ4AW4AZAEuQ07P9NwPg+DtXswPAFmAGwBLk9Gz/zQA4/s7V7ACwBZgBsAQ5Pdt/MwCOv3M1OwBsAWYALEFOz/bfDIDj71zNDgBbgBkAS5DTs/03A+D4O1ezA8AWYAbAEuT0bP/NADj+ztXsALAFmAGwBDk9238zAI6/czU7AGwBZgAsQU7P9t8MgOPvXM0OAFuAGQBLkNOz/TcD4Pg7V7MDwBZgBsAS5PRs/80AOP7O1ewAsAWYAbAEOT3bfzMAjr9zNTsAbAFmACxBTs/23wyA4+9czQ4AW4AZAEuQ07P9NwPg+DtXswPAFmAGwBLk9Gz/zQA4/s7V7ACwBZgBsAQ5Pdt/MwCOv3M1OwBsAWYALEFOz/bfDIDj71zNDgBbgBkAS5DTs/03A+D4O1ezA8AWYAbAEuT0bP/NADj+ztXsALAFmAGwBDk9238zAI6/czU7AGwBZgAsQU7P9t8MgOPvXM0OAFuAGQBLkNOz/TcD4Pg7V7MDwBZgBsAS5PRs/80AOP7O1ewAsAWYAbAEOT3bfzMAjr9zNTsAbAFmACxBTs/23wyA4+9czQ4AW4AZAEuQ07P9NwPg+DtXswPAFmAGwBLk9Gz/zQA4/s7V7ACwBZgBsAQ5Pdt/MwCOv3M1OwBsAWYALEFOz/bfDIDj71zNDgBbgBkAS5DTs/03A+D4O1ezA8AWYAbAEuT0bP/NADj+ztXsALAFmAGwBDk9238zAI6/czU7AGwBZgAsQU7P9t8MgOPvXM0OAFuAGQBLkNOz/TcD4Pg7V7MDwBZgBsAS5PRs/80AOP7O1ewAsAWYAbAEOT3bfzMAjr9zNTsAbAFmACxBTs/23wyA4+9czQ4AW4AZAEuQ07P9NwPg+DtXswPAFmAGwBLk9Gz/zQA4/s7V7ACwBZgBsAQ5Pdt/2gAqfrhVgOdwZZh6UALsAAy67k6dGQBLcHC9Ar/tBfX9B48A0AZQ9cMfAvhDJgnTDk7ADGBwdnNA+aNuUH85UwdvAKPh9RC8jknCtIMTMAMYnF3hlYrvdMfqxzF18Abgh/8M4AwmCdMOTsAMYHB2c0B5RTeov4epIwkDWAOgySRh2sEJmAEMzm4OKFvdoL6SqYM2gIWjG4+NJLqJScK0gxMwAxicXdGVnnpLNo0tvpmpgzaAePGqH94L4EVMIqYdjIAZwGDc5oDqvm5QfzFbRyIGUBsNL1HBR9lkTD97AmYAs2c2FxSi+FhnrH4eW0siBrDAb7/eg3yLTcb0sydgBjB7ZnNBEUFP2Bw0vs3WkogBxEnU/LCjQJVNyPSzI2AGMDtec+FoAbqdoF5LopbEDKA6On42RD+dRFIWo38CZgD9s5ozR6p8uDs2cmkS9SRmAEeu2rDf8MRwF8ARSSRmMfojYAbQH6c5dNRdE8MT1TtXL3skiZoSM4A4mYofNgWI7wuwT0YEzAAyAp2TZRRY2QvqraTSSdQAjj7ve7+7fWh7fE+AfQtIqkMzxDEDyAh0Ppa5a97kvCW3XvLq/5dUOokawNS3gNH2iSLytaQStDjTEzADKM+EqOpJvbHG15OsOHEDiJOrNsM/huILSSZqsXZPwAygJJMheF+3Vf/HpKtNxQDiJGvN8RWqOpZ0whbvmQTMAOb+RIjIaKc1sjaNSlMzgB0m0D5TVdalkbjF3EHADGBuT4KILu+0GpenVWWqBhAnvXDlxmVRFH03rQLKHtcMYO5OgOd5r920ZvGGNCtM3QCmTgz67aMFcoXtHJR8K80Akmeag4g/UugZvaBxa9q5ZGIAcRHxJcInhrafKcByu0yYXFvNAJJjmYNIdymwbq/JeZcnealvuroyM4CdSUzdMfj43meK6Jn27AA/cmYAPEPXEeJ7+1Xl8om9H788qTv8+q0pcwN4emK1ZnhSpDhZgJMAvKDfpO24/yFgBlDYafilAl/zBOs7rbqz+2acGsDTW1ddGb4O0dTmoi+E4oUQvFCBF9qW49MPuBlAvg0g3rpbgF9A8QsIfoH4vz18p7um/p08ZP7/AVDO59qMlqr7AAAAAElFTkSuQmCC;" vertex="1" parent="1">
          <mxGeometry x="-1340" y="270" width="64" height="64" as="geometry" />
        </mxCell>
        <mxCell id="CEV9l8MN5-AWiUajf7o9-725" value="" style="shape=image;imageAspect=0;aspect=fixed;verticalLabelPosition=bottom;verticalAlign=top;image=data:image/png,iVBORw0KGgoAAAANSUhEUgAAAQAAAAEACAYAAABccqhmAAAAAXNSR0IArs4c6QAAG5hJREFUeF7tnXu4HGWV7t9VOyGIAqIecAb04EgYh0HSvRPM7uokEjwCwqDg4S5CvMx4QW46SVeHy04U0rWjo1xEjyMoF1EEFXS4eyRAdlcnIenqAAdHyCijzigog47cdpJd6zzdSTAJ2elbVXVVf28/T/7a37fWen/r6zdfVddFwA8JkICxBMRY5RROAiQAGgAXAQkYTIAGYHDzKZ0EaABcAyRgMAEagMHNp3QSoAFwDZCAwQRoAAY3n9JJgAbANUACBhOgARjcfEonARoA1wAJGEyABmBw8ymdBGgAXAMkYDABGoDBzad0EqABcA2QgMEEaAAGN5/SSYAGwDVAAgYToAEY3HxKJwEaANcACRhMgAZgcPMpnQRoAFwDJGAwAeMM4O3O8r2mTNp17/EN6/eBNbC3BME+amFvBNhHBHsrsFez9aCQX4vqE4A+LhI88apAHi8vnfWnZvP49/AI5BeM7v6ipQeqWlMBOVBFpgp0v2YZBHhWFU/DwlMS4Gm1rKcQjD89MHmXp8Y2vvT0I+7sZ5vF6Ke/97UBzBxesceGl4JcIJoTkSEocgD2iKiBvwXwOBRPKPDIAHDfmhH7kYhyGRV2+sLKoKrO0QAHQzAVwIEA3hgRhD8C8qBAlwcYf+jFQNb8rI/Nva8MoP6FH3tpfK7AmgPRmQDeAWByRAullbC/U8UyC3hQNVjpL521upVJpo/JFDxbgDkQsVU1L4LX9ZDJBgBlQNaoBsun7DqwbOXiof/uYT2hpk69AWSLDx6kwaS5IjoXsA4D9PWhEgo1mPxKVSvWAB4cF9y29lL7P0INn9Jg0y7w9h1QHKeKw6CwAfxlcqXIM0Bwv6osE2vjMr8057Hk1tq8slQawPRFq98w/sL608WSkwEdai4zeSMU+JMAtwbAbWtd+9bkVRh9RdMc73gLOE6B4wXYPfqMUWSQFRrodwd22+VbaxbN+H0UGaKMmSoDyMwvZyxLPqCCDwD4iyjBxBz7X1E3gwC3rV1qr4o5d6zppi3w3mFZOA7A8QDeFmvyaJP9RhQ3BoHeWPt8vhZtqvCip8IAMoXyMSJS/9KfGp70hEZS/ERFbqq5uasTWmFHZWWcykdF9RQI3tVRgHRN+o6q3lgbyd+R9LITbQAZxztRgA8DOCrpIMOuT1WXAQOX10aGfhh27DjjZQor3geMnysic+PMm5BcdyvwjZpr35KQel5RRiINIFvwzoCFD0PxzqSCi6suVdwMa+MVtdKcclw5w8iTKT6YRzDpHBGcFEa8VMcQPIAA3/BH7OuTpiNRBpBxyvNE5BPQxs93/GxFQAVXKcavWFua/XiSwUwrLj9QMHCOKM5Kcp09qU2wSlW/WnPz1/Yk/w6SJsIAMk5lfwsYVui8pIBJaB3PKuTymptbnMT6Mk55kUDOQQtXUyax/rhqEsi1AbC45uaejCvnRHl6bgCN//UhwwD27zWMFOW/T0UurpVyiTgsyBQreVH9LIDDU8Sw16U+qdDFvd4N9MwA+L9+1+tvgwLDNdcudR2piwAZxysKUN+R9PKKyy4U9HZqr3cDPTGAzT/rXQbggN7i74vsdyl0uObmH4pTTcYpHyqQ+hf/PXHm7dNc61T1vF78bBi7AQw6lfMV+sU+bWSvZD0H0WG/lI+Fa7ZY/jS08eV/Ta8E92NegXy66ua+FKe22AzggLOfmLL7br+7HIKPxSnQrFzyfUsnf2TNyIw/RqF7+qLVuwVj66+D4oQo4jMmAMXX/vTC/zh33ZVTx+LgEYsBHLKwfPCkcesKbdyww0+UBBRYaQGnV117XZh5Zi5csc9YMH69QI4IMy5jvZKAqCzDwIbzqkvmPBw1n8gNIDvfeycm4Roo3hq1GMbfQkB+LYGcWF06tCIMJpn5K6bKQFC/Yelvw4jHGK0Q0P+E4Fy/lP9eK6M7HROpAQw63vEK/KDT4jivOwIiOLZasm/vJkr9YRxBoGu6icG5nRMQ6IVVN39p5xF2PjMyA8gWymdD5IqoCmfc1giI6Ierpfw3Wxu97aiMs/wwwcCyTuZyTogEBF/zS/bHQ4z4cqhIDCBT8L7La8CjaFdnMQVYUHXtz7czO+OUPymQq9qZw7FREtA7fTd/TNgZQjeArOPdyd+Gw25T9/Ha2UoOFsuXqsrC7rMyQsgEbvBd+4wwY4ZqANmidyMUp4VZIGOFR0AE51dLdv0CrAk/g453mQLnhpeVkcIkoIL5tZL9hbBihmYA2aJXgsIJqzDGiYaAwPpY1R365x1FzzreVwFEcqwZjRozo6roP9RK+a+HoT4UA8gWKp+A6FfCKIgxYiCgco4/krty60z8nz8G7iGmEMjpVTd3Y7chuzaAaU75CAtyT7eFcH68BLbeSmYcb6kA8+OtgNm6JRBAj1zr5u/tJk5XBnDwwhX7TA6CegGHdFME5/aIgOpFsKwpUL2wRxUwbXcEHt5gWUc8umToqU7DdGUAWcerP+Log50m5zwSIIGuCXT1y0DHBpApev8oirZ+W+5aKgOQAAm8gkA3vwx0ZAA87ucqJIFkEej0fEDbBpA5b9lrZcqUZRBkkoWA1ZCAwQQUNR0bm1u7bO4f2qHQtgEMFrwvqeC8dpJwLAmQQPQERHFZdcQ+v51MbRlAZoF3nFgw8j127UDlWBLoFQENcHxtqX1bq/lbNgBu/VtFynEk0EMCbR4KtGwA3Pr3sKlMTQJtEGjnUKAlAxgsVI5V0R+1UQOHkgAJ9JCAqLy3OpL7l2YltGQAWce7y8QXdDaDx7+TQIIJ3O27dtNHtjc1gEFn9GSFdVOChbI0EiCBHRAQBKdU3Vnf3RmcpgaQLXr38y29XF8kkEICggf8kn1YxwaQcSrzBNrR8+RSiIslk0DfEVDIh2pubsK3Ee90B5B1vFUADu07KhREAuYQeMh37XdMJHdCA8g4lQ8I9FvmcKJSEuhPAgo5vTbBw0MmNAA+3LM/FwNVGUngLt+1j96R8h0aAJ8Hb+Qioeg+JqAYn1tzZ9+/vcQdGkDWKX8dkI/2MQ9KIwHDCOjVvpv/+6YGMOh4ByhQfynhqwwjRLkk0M8EXhTgkO1fGvuKHUDGKS8SyHA/k6A2EjCRgEIW1dzc4q2178AAKisEOtNEQNRMAv1MQCEra25uaEIDOKS4fOaADoTySul+BkltJJBWAuMyPvRwafbKLfVvswPIOJVhgS5KqzjWTQIksHMC2x8GbG8A3P5zBZFAHxPY/jDgZQPg9r+Pu05pJLAVga0PA142AJ795xohATMIKHRxzc03DvVfNoCsU/keoP/bDARUSQImE9Af+m7+uG0NoOitg+KtJmOhdhIwhMC/+669/8sGcOgFq960cXzjLw0RT5kkYDwBhbyl5uaebBwCZIqjR4tadxhPhQBIwBACAry/6tq3Ngwg63gXAfisIdopkwRIAPic79oXbzGA+iO/jyUVEiABMwgocHvNtY/dZAAF7+cQvMUM6VRJAiQAxS/8EfuvZP/hZbvuNTblRSIhARIwi8CzU8ZeJZmFqzISbPTNkk61JEACak3KStbxTgXwbeIgARIwjsBpdQOon/2v/wrADwmQgFkEPifZgncLBCeYpZtqSYAEoPhefQcwCiBPHCRAAsYRKMug41UVyBonnYJJwHACAviScbx/FeCvDWdB+SRgHAEFfiZZp/xLQN5knHoKJgHjCeivJOtUfgfoG4xnQQAkYBwB+X39JODzAHYzTjsFkwAJvFA3ACUHEiABMwnQAMzsO1WTQIMADYALgQQMJkADMLj5lE4Cki2Un4XIa4mCBEjAMAKqf5Bs0fs5lA8DMaz1lEsC9ZcC/IKXAnMhkIChBBqXAmcd7ycADjeUAWWTgMkE7qvfDvx9CN5vMgVqJwEjCSh+UD8HcDUUHzESAEWTgMkEBNfU7wX4AqCfMZkDtZOAmQTkn+p3AxYAcc0EQNUkYDIBderPAzhRgJtNxkDtJGAiAQVOkkFnxXRFsNpEANRMAiYTEFgz5O3O8r0mYeC/TAZB7SRgIoGNGH/dlncD1g1gLxMhUDMJGErgWd+1txhAeTUg0w0FQdkkYCABXeO7+RlbdgD1k4AnGkiBkknAVAK3+K590mYDqLiAFkwlQd0kYB4BGfHdnNMwgEyhfIyI3G4eBComAUMJiLzPL+V+1DCAQ/7xnlcPTNr9OUNRUDYJGEdgbMoeuz+2+ODnGgZQ//CuQOPWAAWbS8DzXbvxOsA/G0DRc6AomcuEyknAEAIC1y/ZxW0NoFCeA5EHDEFAmSRgLIEAeuRaN3/vNgZw2PCySX8cm/IfAPY2lgyFk0D/E3hmzyljb7x/8dyN2xhA4zxA0bsFihP6nwEVkoCZBBS4tebaLz8A6OVzAHUcmYJ3lgi+bCYaqiaB/iegik/VRuyrtijdxgAOXrhin8lB8P8AvL7/UVAhCRhH4JkNlvW3jy4ZemqHBrD5MOD/QPEx49BQMAn0OwHB1/yS/fGtZW6zA2gcBiwYfbdYVuMMIT8kQAL9Q0CD4Ija0lk/3qkBNHYBjucByPWPdCohAeMJVHzXtren8IodwKbDgMqnofpPxiMjABLoFwIin/FLuS+2ZADTC6vfHMj6xwC8ul/0UwcJGEzgeUt3OWjNyIxftmQAmw4DKl8H9KMGQ6N0EugTAnK17+b+fkdidngIUB+YKVbyojraJwQogwSMJaAis2qlXLktA9h8MpBPCjJ22VB4nxBoPPlnIi0T7gA27QJGjxa17ugTEJRBAsYRUAmOqZVm3dmRAdQnDTrlexRyhHHkKJgEUk5AoPdW3fyRO5Ox0x3A5sOAUwF8O+UsWD4JmEjgNN+1v9OVATQOBRxvhQAzTSRIzSSQRgIKrKy59lCz2pvuADadC6icKarXNgvGv5MACSSDgIrMq5Vy1zWrpiUDaBwKFLyrIfhIs4D8OwmQQI8JKK7xR+yWruFp2QCmXeDta43rfYAc2GN5TE8CJDAhAX08GJDD115q15/u1fTTsgFs2gWUT4HITk8qNM3IASRAAtERUD3VH8nf1GqCtgygHnSw6H1ZFWe1moDjSIAE4iEggquqJftT7WRr2wDeUVz5+g0I7oPqIe0k4lgSIIEICYg8PBnW4atKM59pJ0vbBlAPnil6x4ni1nYScSwJkEB0BFRwfK1k39Zuho4MYNP5AO9iCBa3m5DjSYAEQiagGPZH7M92ErVjA2iYgOPxZqFOqHMOCYRHYKc3+zRL05UBTC8sf3MgA3cD+Jtmifh3EiCB0An81NLxo9aMzH7Fgz5azdSVAWw6H8A7BluFzXEkECaBZnf6tZKrawOoJxksVhao6kgrCTmGBEigewIiUqiWcku7jRSKATR2Ak75BoGc3m1BnE8CJLBzAgr9Vs3NfzAMTqEZwOaTgncBOCqMwhiDBEhghwS6Oum3fcRQDWCTCVQqgDa9DZHNJQESaJtAqF/+evbQDWDzTuCnAN7WtjxOIAESmIjAct+154SNJxID2GwCvwHwxrALZjwSMJDAOt+1p0ahOzID2GwCLwLYNYrCGZMEDCHwnO/au0elNVIDaJhAsfI8VHeLSgDjkkAfE3jRd+1IvzuRG8DmncCvAOzXx42iNBIIm8B/+q69b9hBt48XiwFsMoFyDZBpUQtifBJIOwEBHq269tvj0BGbAWw2gZ8AcngcwpiDBNJJQJf7bj70s/0TsYjVADYfDvAOwnSuTFYdPYEf+q59XPRp/pwhdgPYbAJfBfDxOIUyFwkkmYBAr626+Q/FXWNPDKAuMuOULxHIBXELZj4SSBwBkS/6pdxnelFXzwygLnbQGT1fYX2xF8KZkwQSQUD1In8kf0mvaumpATQOBwreGRA0fYNJrwAxLwlERUBhnVVzh74SVfxW4vbcABqHA4XyMSJyeysFcwwJ9AmBpi/ujENnIgygcTiwYHRILasSh2jmIIFeEhALR1WX2Pf0soYtuRNjAI2dwPwHpsrA5MeTAIY1kEAUBIIAM9cutVdFEbuTmIkygLqAQ+eveuPGgY31Own5IYG+IiDA1Kprr0uSqMQZQB3OQcOPvmbK2H//FsCrkwSLtZBAZwR0bLJM2rfdt/Z0lqu9WYk0gE0SVLJO5UkAb25PEkeTQJIIyO/90tDeENEkVZXIcwA7AjToeFUFskmEx5pIoAmBJ33XfkuSKSV4B/BnbFnH+zGA/5VkkKyNBLYj8Ijv2ol/gW4qDKAONuuUbwLkZC4zEkg6AYGMVt3c7KTXWa8vNQZQL3bQqVyl0E+mASxrNJbAv/iu/d60qE+VAWzaCXj1t6BelBbArNMoAtf5rj0vTYpTZwB1uJmCd64ILksTaNba3wRUcVltxD4/bSpTaQCNw4FC+XQVuSFtwFlvXxK42Hftz6VRWWoNoHE4UKi8B6J3phE8a+4PAgKcXXXtL6dVTaoNoA59WmH5LEsGlqe1Aaw7vQTUwgdqS+xvp1dByn4FmAh0ZmE5I4H4aW4Ea08ZAZWj/ZFc/WW4qf6kfgewhf6g4x2gwBOp7gaLTwUBS2RoTSm3MhXFNimybwygrnP6wgf/IggGHgfkNf3QHGpIHIGXAhmftrY0u29uWe8rA6gvl/yC0d1fsKxHAPzPxC0fFpRmAr+zdt3loDWLZvw+zSK2r73vDKAhcHjYyr505EMQDPZTs6ilRwQUvzjg57+eesstJ433qILI0vanAWzGlS2U74XIuyOjx8AGEJCHfTfXt6+062sDqK/ObKH8HYicYsBKpcTwCXi+a+fDD5uciH1vAHXUmYL3ZRGclRzsrCTxBAT3+CX7qMTX2WWBRhhAYydQ9BZDcXGXvDjdCAL6fd/Nn2CCVGMMYJMJlM+ByuUmNJYaOyMgkGurbi72d/R1Vm33s4wygMbhQLFypqhe2z06Rug3AgJcXnXt8/pN1870GGcAjZ3AgvIJsOQWkxpNrTsnoNBFNTe/2DRORhpAvcmDjneUAqm/ltu0BRuJXpVz/JHclZHETnhQYw2gYQLzR2frgPVgwnvE8iIkIKofrI7kvxVhikSHNtoA6p2Z5nhZC6gmukssLhICKtYxtdKQ0c+TMN4AGicGL1wxVTYGqwHsEclKY9CkEXgRou/yS3njX0ZLA9i8NLMLRv8SA9YoFIl+kUPSvkkprOfpgUmT56y+5NCfpbD20EumAWyFdObwij3Wrw9+AsWM0EkzYM8JKPTnwUbkHv5C/umeF5OQAmgA2zXixBNvHlh3wH53QHFkQnrEMkIhIGv3nPLSjPsXz90YSrg+CUIDmKCR2aJ3IxSn9UmfTZdR9l17lukQdqSfBrCTVZEtlq+AytlcOKkmcLfv2u9JtYIIi6cBNIGbLZQ/B5ELI+wBQ0dFQPE9f8Q+Marw/RCXBtBCF7NOuQCI28JQDkkIAVX5Zm0k9+GElJPYMmgALbZm0PE+pYCRl4u2iCg5w0Sv9Ev5c5JTUHIroQG00ZuMU5kn0G+2MYVDYyYgokuqpfwFMadNbToaQJutyzjeiQLc3OY0Do+BgAILa65diiFV36SgAXTQSr6TsANoEU9J+zv6IsYzYXgaQIfkB4srZ6uO807CDvmFOk30DL+U55uiO4BKA+gA2pYp0xdWBoNA7wOwZxdhOLVzAi+I4ORqyb698xBmz6QBdNn/acWVB4puvEsgf9VlKE5vj8BTqnh/bcT22pvG0VsToAGEsB6mXeDta43jVgCHhhCOIZoRUPybqBxbXZr7abOh/PvOCdAAQloh0wur9wxk/U0A+v5Z8iEh6yyMoLZBrKMeXTL0VGcBOIs7gIjWwGHDyyb9cWzK9QBOjSiF0WEVOrp+yp7vemzxweuNBhGieO4AQoS5JVTWKX8dkI9GENrgkHKX7+aONhhAJNJpAJFgbbyO7EsiMOoZ8xGhrIe9xXftkyKMb2xoGkCErc845UsEwstSu2P8Dd+1P9JdCM6eiAANIOK1kS14DgS8PLUjznqF7+bP7WgqJ7VEgAbQEqbuBmUL5bMhckV3UcyarZBLa26Oz2GIuO00gIgBbwk/WCx/SFW+EVO6dKdRFP0Rm89fiKGLNIAYIG9JwTsJm8MWxaeqI/ZVzUdyRBgEaABhUGwjRqY4erSodUcbU4wZqiLzaqXcdcYIToBQGkAPmpAtlOdA5DYAe/UgfRJTPi8iZ1RLuR8ksbh+rokG0KPuDjorpiuC+qXDB/SohISkld8GCM5c6+bvTUhBRpVBA+hhu2dc+NBfj2/cUL+P3dSbiNZh0738xr+jr1fLkAbQK/Kb8x6yYMV+k0SvV9G5PS4l1vQC+CrW6X5p6LFYEzPZNgRoAAlYEJlh/7UYe/EGAf4uAeXEUcJyy9p48polc34TRzLmmJgADSAhq2P6P6yeHLx+w/VQPSUhJUVUhtz5p+ff8P51V04diygBw7ZBgAbQBqw4hmYL3tUQ9OW176q4uTZinxwHR+ZojQANoDVOsY4adLzLFOiva+AF1/glm7dIx7qSmiejATRn1JMRmUL5UhFZ2JPkIScV4PKqa/PW6JC5hhGOBhAGxYhiZByvKMCSiMLHE1bkEr+UuyieZMzSLgEaQLvEYh6fXVg5G4Gm9E5CdXw3PxIzMqZrgwANoA1YvRqadbz6W26v6VX+TvIqrLNq7tBXOpnLOfERoAHEx7qrTIMLKydpoN/tKkhckxVn+iN2/eGo/CScAA0g4Q3aurxMoXyMWHI9FK9LaNnPCXBG1bXr70jgJwUEaAApaNLWJWaL3juhegMgb0pY6b/RIDiztnTWjxNWF8vZCQEaQAqXR3bB6AxYVn2L/TcJKf8JCawzqkuHViSkHpbRIgEaQIugkjZsetF7WxDoDRCZ0dPaRKrjEpz58JL8oz2tg8k7IkAD6AhbMiYdesEDb9o4Prm+EzisRxU9iAE9w780/+89ys+0XRKgAXQJsNfT3+4s32syrBsUckyctQhwxyQZOHNVaeYzceZlrnAJ0ADC5dmTaAcN37zLlPX7fROK02IpQPDtsV32+BDf0RcL7UiT0AAixRtv8GzRK0HhRJpV4PoluxhpDgaPjQANIDbU8STKFiqfgGg0V+CpfNIfyX01HiXMEgcBGkAclGPOkZlfzliWnKnAPAhe21V6xR8EuDYI9Lra5/O1rmJxcuII0AAS15LwCso4lf2BYJ6oHAvBYHuRpawI/i9gXVtzc0+2N5ej00KABpCWTnVZZ+PioYGB94niMIXW30ew5V898rP1fwJ5FgjuFpUfrRmxH+kyJaengAANIAVNYokkEBUBGkBUZBmXBFJAgAaQgiaxRBKIigANICqyjEsCKSBAA0hBk1giCURFgAYQFVnGJYEUEKABpKBJLJEEoiJAA4iKLOOSQAoI0ABS0CSWSAJREaABREWWcUkgBQRoACloEkskgagI0ACiIsu4JJACAjSAFDSJJZJAVARoAFGRZVwSSAEBGkAKmsQSSSAqAjSAqMgyLgmkgMD/B9pzBMGnkDmaAAAAAElFTkSuQmCC;" vertex="1" parent="1">
          <mxGeometry x="-920" y="270" width="64" height="64" as="geometry" />
        </mxCell>
        <mxCell id="CEV9l8MN5-AWiUajf7o9-726" value="" style="shape=image;imageAspect=0;aspect=fixed;verticalLabelPosition=bottom;verticalAlign=top;image=data:image/png,iVBORw0KGgoAAAANSUhEUgAAAUAAAAEACAYAAADCyK/GAAAAAXNSR0IArs4c6QAAIABJREFUeF7tnQu4HFWV7/+rzsEkInJVQGO4crnARRCTrg4X0tWHQEIShSCiPLwivhiJMLyRnK4+USAjSdc5wAgII4QRH6COPAQEIkKEkKSrA5d0dSIzmAFEvMR4eYyjgCGSrjVfnRxCHufkdFftenWt/r58KOy19lq/tfqf3fXYm5Dhz1GXPjL2TxvfMZWIxxN3fYDA413GeCJ8AMB4gMdvxkPrAaxnxh81wnoGrWdq/pGZ1r/++l6PPvPtAzZmGKOknlAC0t+jF4ZGH9JZI/K9tYNYc48F6FgA01VkR8D9LtE9GvMjdct4RoVP8SEE/BCQ/m6PWiYEMNe7YiaIZoBoJgF6e4jaHl0D4SG36S5dPdDzSNvWYiAE2iQg/d0msK2Gd7QA6uWVnwfcc8A4zD+iAJaExwHtOqcy5ZYAXsRUCAxLQPo7eGN0pADmStVPEtE5AGYER6TEwxJmvq7RX7xHiTdxkmkC0t/qyt9RAjipd8U0Tes6G+AT1SFS6YnudN3m9fLTWCXT7PiS/lZf644QwEP7qodsamoXEfGX1SNS75GZvqc137y6fuXUNeq9i8dOIyD9HV5FUy+Aeq99NAg3gbBveJhC8bwOLl/gDBTvCMW7OO0IAtLf4ZYx1QKom/ZnAfw4XEThememeY3+wsJwZxHvaSQg/R1+1VIrgLmSfT4Rrg4fUSQz/MCxjC9FMpNMkgoC0t/RlCmVAqibtrfq81Z/nfSpOZZhdFJCkos/AtLf/rj5sUqdAOqm/TyAD/lJNgU2rziWsUcK4pQQQyIg/R0S2BHcpkoAddN+GcD7okUU+Wy/dyxjn8hnlQljJyD9HX0JUiOAumnbAArRI4plxp84lnFqLDPLpLEQkP6OBTtSIYC6aX8fwBfjQRTPrMy4oNFvXBPP7DJrlASkv6Okve1ciRfAXKnWR8QL4kMU68ynOpbxk1gjkMlDJSD9HW9/J1oA9d7qSdDo9lA7MOnOXcxwBoxfJT1Mia99AtLfAGLu78QKYP7iZRO5u3sxgAntt1YHWTCe6+ri459YWHyyg7LKfCrS30MtEHN/J1YAc6XazWl5tzfsb7P37nCjv3B62POI/+gISH+/zTrO/k6kAG7e9UJ7OLp2TP5MrutOl11kkl+nViKU/t6RUlz9nUgB1M3aHcnd0qqVFg9jDN3pWIWTwvAsPqMlIP09HO94+jtxAji02ePd0bZkOmZj5hNkU9V01GqkKKW/R65fHP2dOAHUTfuhBO3knLRv2xLHMmYmLSiJp3UC0t87ZRV5fydKAAfPOGD3h623UwZHkvYFOWMknXWX/m6hbhH3d8IE0H4stgOMWqhNIoYQHncqxuGJiEWCaIuAXpb+HhVYxP2dGAGUO2OjtsaWAey6sxoDPd6lAvmkhID0d+uFirK/EyOAetmeD8YlrWPK7khmHmj0F0vZJZC+zKW/W69ZlP2dHAHM1m4vrXfDMCMZcBqWkQ/kRIwjJZCx3V4CsY2yvxMhgHnT3p+BpwNRy5gxuXRwfaDwVMbSTmW60t/tly2q/k6EAObKtTOIeVH7mLJswRc7VvGqLBNIS+7S334qFU1/J0IA86Z9HwOz/WDKsM3DjmUcneH8U5O69LevUkXS37EL4P7nPj1mt11fesMXoowb7T5m47il86cJuwT3gfS3/+JE0d+xC+AkszpLA/3SP6bsWrrgj622ig9ml0DyM5f+9l+jKPo7dgHMlVd8kVjztryXT5sEmNwvNSo9P2jTTIZHSED62z/sKPo7dgHUzVoJYMs/pixbkulYhf4sE0h67tLfQSoUfn/HLoB5076agfODYMqqLQHX1C3jgqzmn4a8pb/9VymK/o5dAHMl+6dEOMU/puxaMuO2Rr/xmewSSH7m0t/+axRFf8cugLppPwpgqn9MmbZc5ljGkZkmkPDkpb8DFSj0/k6CAP47gAMCYcqu8dOOZfyv7Kaf/Mx105b+9l+m0Ps7AQJYfRWgd/lnlGVLfs2xirtlmUDSc9dN6W//NQq/v0UA/VcnAZbhN0gCkkx1CCKAQcoXfn8nQADlJ0KAFgn9J0KA2MQUgPwEDtQGofd3EgRQboL475HQLxL7D00sPQJyEyRQH4Te37ELoDwm4L9BonhMwH90YukRkP723wdR9HfsAigPivpvkCgeFPUfnVh6BKS//fdBFP0duwDKq0L+GwQI/1WhINGJrfcTWF719N8H4fd37AIoL4v7b48oXhb3H51YDv4Els0+fDdCFP0duwDKdkG++wNRbBfkPzqx9AhIf/vvgyj6O3YBlA0j/TdIFBtG+o9OLD0C0t/++yCK/o5dAIcuFMuW+O33SSRbhrcfllhsT0C2xPfVE5H0dyIEUA6N8dMg0Rwa4ycysdmWgPS3n46Ipr8TIYBybGD7DRLVsYHtRyYWw6wA5djXNtsiqv5OhAB6bOTg6NY7JMqDo1uPSkbujID0d+v9EWV/J0cAy/Z8MC5pHVN2RzLzQKO/WMougfRlrkt/t1y0KPs7MQI4qXfFNE3THm6ZUoYHsuvOagz0PJRhBKlLXfq79ZJF2d+JEcDBn8Fl+zEwDmsdVQZHEh53KsbhGcw89SlLf7dQwoj7O2ECuPLzYPeHLWDK7hDSvuBUptySXQDpzVwvS3+PWr2I+ztRAjh0M8T7aTdjVFDZHLDEsYyZ2Uy9M7LWTVv6e+RSRt7fiRPAXKn6SSK6uzPaXW0WzHxCo794j1qv4i1KAtLfI9OOo78TJ4CbV4G1OwA+McrGTP5cdKdjFU5KfpwS4WgEpL+HIxRPfydSAOWO2Y4N4rru9NUDPY+M9uWS/558AtLfyenvRAqghydXqt1MxF9OfjuHHyEzfa/RXzg9/JlkhqgISH+/TTrO/k6sAOYvXjaRu7sXA5gQVVMmch7Gc11dfPwTC4tPJjI+CcoXAenvIWwx93diBXDwWmBv9SRodLuvDusUIxcznAHjV52SjuTxNgHpbwAx93eiBXDop3AfES/I6BfnVMcyfpLW3PXysj2ZuiZoTHt7K3kG7c3s7k2ECfD+nfdP78NYB+IXmLGOSHuBwC8AWOcSv0DcXOdUpr6UVgajxZ0r1aS/R4MU4n9PvAAOrgRN+/sAvhgih8S5ZsYFjX7jmsQFtpOAChfa494Yq80Gu8cB8P68T038/DKAu5lx92sT9lryzHkHbFTjNxlepL/jq0MqBHBIBG0AhfhQRTrzTxzLODXSGX1O5m1l5hKOI6aZAHsPae/i01VrZow3SaO7AHqAtebDzoLi860ZJntUxnaLSUx/p0YAh0TQWwkoWlUk9gvxe8cy9klsdINHPa6czMTHgN1ZAB0Rb6y0hMEPa9AerFtTVsUbS7DZddOW/g6GsG3rVAngkAh6f+N/qO1M02HwimMZeyQ1VE/4XLhzCJiTxBgZWKRBW5RmIdRNW/o7wuZKnQAOieCPAXw2Qk5RTFVzLMOIYqJ250i68G2fT9qFUDdt6e92m9Tn+FQKoJdrrmSfT4SrfeadNLMfOJbxpaQFlTbh6yQhlP6O5tuQWgEcWgl6q0Dvb8vUfphpXqO/sDBJCaRd+DpFCHXTlv4O+YuRagEcFMFe+2gQbgJh35BZqXa/Di5f4AwU71DtOIi/jj7BjOh8p1K4NgifqG2lv8MlnnoB9PAc2lc9ZFNTuygt7w577z5qzTevrl85dU245W3Pu16yLwFhfntW6RrNhOsbFeOcNEUt/R1etTpCAN/Cs3mXja6zk7uVFt3pus3rk7iri27a3wFwZnitliDPzA85/cVZCYqopVCkv1vC1NagjhLAtzIf2nTS+1s+KTtLL2Hm65K4menEi6t7dXfTAwzobXVO+gc/3+zumrbm8sOfS1sq0t/qKtaRAvgWnsEzGOCeE9tBS4THAe26pJ7hke9bOZFdd7W6dkqfJ2J8vN5v/DJ9kXuHiEl/B61bRwvglhVh74qZIJoBopkU/kqnBsJDbtNdmsSfulv+cjBtb3/B7wZtoI6wZz7P6S9+O6255KS/fZcuEwK4NZ18b+0g1txjAToWwHTf5LYyJOB+l+gejfmRumU8o8JnmD70UvVcEKXqbmiYPIZ8/51jGTdHME+oU0h/t4c3cwK4NZ6jLn1k7J82vmMqEY8n7voAgce7jPFE+ACA8QCP3zye1gNYz4w/aoT1DFrP1PwjM61//fW9Hn3m2+nZnSRfsj/GhAfaa5NsjCZNm1RfOCVRd+aDkM9if7fLK9MC2C6stI+f+PXH9u3a1Pxt2vMIM/7mJn7/miuLL4Y5h/hODgERwOTUIvRIdNP+HYBE7zQTOoRRJiDAqVtGPu44ZP5oCIgARsM59ln0UvVB7yZQ7IGkI4AbHMs4Kx2hSpRBCIgABqGXEttc2b6OGGenJNxkhMm41Ok3/iEZwUgUYREQAQyLbEL86uXaeWBO1db6CUEHJprTqBRuSko8Eod6AiKA6pkmxuPgzs1wn0hMQCkMhKAdmuYNVlOIPNKQRQAjxR3tZDnTvjGpuzdHS8L/bN7mqg3L+Kp/D2KZZAIigEmuToDYZPUXAN52prIKVMcyaZ5EAJNWEUXxyOpPEcjBY4tlFaiOZrI8iQAmqx5KopHVnxKM2ziRVaB6pknwKAKYhCoojkFWf4qByipQPdCEeBQBTEghVIUhqz9VJHf0I6vA8NjG5VkEMC7yIc0rq7+QwMoqMDywMXoWAYwRvuqpZfWnmqisAsMnGu8MIoDx8lc6e860ywQk6ohNpQkmwRnRN5xK4fIkhCIxBCcgAhicYWI86GbtIYCTcg5KYrioDYSXO1Zxqlqf4i0uAqkSwMlzq/tt6sJ+GrT/Scz7uYT9CHg/iN4Fl3cD8bsAeheAcSEBfQPA6wC/Dmivbf6n9//xJDGedIFfjxmrPfnY/Cl/CWn+Ed3q86r7oEnedlfyCZkAAQfEsfP34ZeufPfGN9xDNOCjTDgEGPyzK0C7Aq7X+7tu/v8YGxKCDQC/BqbXoNGrYH6Ngf+vMZ5lomdduL/tbuLZVVcUnw1pfuVuEy2AedPen5mOAfExALw/Kfnw78H0BBP9Ak16tHHFlKfDDjxfXvllZjf1W7qHzUmFfyZc2KgYV6vwtTMfennZwcTd08E4monzAH0o7DlV+SfgLhf8c0Bb2rAKif2LOXECqPeuOJQ1Oo4wuHedoaogsfohWgN2l7qsVd/g5i/WDvS8qjqefLn2U2Y+RbVf8TccAVrsWIXZqtlMvuzed7ob3ns8SDsS4KMAfFj1HDH5W8qgpeQ273cGehK1OUciBNA7yMXV+DgCjgPQ6ddXvO3W72M0b2lYRyxV0ZD7X/v0mN3WvfQqCLuo8Cc+RiXw5tiN2L32LWPDqCNbGJDrq+aoSZ8B4VQAqVnltZDacEOWMXCf5tJ99YHCUz59KDOLVQDzZfs4ZpoD8CeUZZQmR0TPgd3rHat4VZCwc6XqbCK6L4gPsW2TAGknO5Upd7Rptc1wvVQ7C8TeztMfDeInvbZ0LxEvqleM2Ho3FgHMvPBt1bHM+I9Gv/G+IE2sm9WbAPpKEB9i2zaBHziW8aW2rbYy0M3aSwDvEcRHZ9jGJ4SRCmDetD/OoL/P7IpvmG5l0GMNqzAlSCPrZvUlgOSLFARi+7avOJYRiLlu2isAFNufulMt6F4C/1PdMiI7tjUSAZw8t5Z3u/h8AF/o1NL5zYvBP2pYxdP82uvlZXuCu+UYR78Ag9jRpr2cytSX/LrQTfu7AE73a9/Bdj/UmnTNqisK9bBzDFUAJ/au3Lub3POZ6DyA3xF2Mmn0z+D5Dat4md/YBy+gu+T4tRc7/wRYY72xsNjw6yFXqvUR8QK/9p1tR38j5ms3sXbNmoEpL4SVa2gCmC/ZH2PCtwEcEFbwneCXQac1rMKP/Oay+Xoq7vVrL3b+CRDhE0Eu4Oum/VkAP/YfQSYsnybGufV+45dhZBuKAOql6lkg8sSvK4ygO8knkTu1XulZ7jenfNn+KjNu8Gsvdv4JEOHMesW40a+HfHnFEczaMr/2GbJrgvlcp7/4HdU5KxfAfMm+ggkXqw60U/1pTZoc5FqHXq59E8xf71Q+ic6L6HKnUviG3xiHro2v8mufNTtiXFnvN+aqzFupAOqmfRuAk1UG2Om+mq774TUDPWv95pkzq98jUKDHMfzOnXU7Bn+/YRW/7JfDxN4VB3Zp2m/82mfTju50rMJJqnJXJoAifv5K0nS1/x7kIq9erj4IHnxtUD5REyB+yKkUZ/md1rtJ2KW5/8+vfYbtqo5l9KjIX4kA5szaSgIfriKgrPnYhOZ7f20d8Se/eeum/W8ADvJrL3aBCDzlWMbBfj181Fz+nm50/Ydf+4zbPeNYRuAbrIEFMFeyXyHCezNeDN/pbxzzwph/m3/K3/w60Mv2n8F4t197sQtAgPAXp2Ls7tfDwZfe9o4xG/fe6Nde7PCaYxm7BeEQSAB10/Z2NfH235OPTwJjN+KdQV6qFwH0CV6FWUABLFxoj3tjDP6qIpSs+gj6KqlvAdRN29vjbv+sgleVt9uFvVcvMNb59Sc/gf2SU2IX6CfwpHn2BK2J0B7yVZJhCpwEeZ3UlwDKO4zquoI2bZpUv3LqGr8e5SaIX3IK7ALeBMlfvGwid3evVhCJuABudyyj7f0w2xZA3azdAfCJQlwNAUZzWpB9AeUxGDV18OMl6GMwOXP5UYSuR/zMLTbDEmhbBNsSQHnIWX3bEdGJ9UrhZ349y4PQfskpsAv4IHS+XPs0M9+pIBJxMUSg3YelWxbAodfb/klIqyXAoDMaVuGf/XqVV+H8kgtuF/RVuJxZ+wqBbwoeiXjYhgDz37f62lxLAji0scH98m6v+kYjolK9Uhjw61k2Q/BLLrhd0M0Q8uVaLzP3B49EPGxHoEmM2a1soDCqAA49rf6w7OoSUpMRf9upFM/z6122w/JLLrhd0O2w9HL1WjCdGzwS8TAMgaebrjZ9tLesRhVAue4XenP9wrGMY/3OIhui+iWnwC74hqiL03XcqwJmEbpo5XrgTgVw824VqMlmpqFWLfArPbIlfqj1Gcm5ii3x5VnaUEtHf9OaKOxst6WdCqBu2j+QbexDrdCgc8cyRl2J7ywKORQp/BoNM4OCQ5FsjiXybE36Q8cyvjhSyiN+8TYfYIRfZItVPNkScEDdMp7xO7sci+mXXAC7gMdi5k17fwa8FaB8QiZAwDEjHbQ0ogDqZu3ncnpbyJV5yz3TsU5/wfdfNnIwekR1enuawAej66XaMSD2rgHKJ3QCdK9jFY4fbpphBVAerQi9IttOwHSe01/wjhDw/cmXaz9l5rZfBfI9YaYNabFjFWYHQaCXaueC+NogPsS2dQIjPbI0rADK6q91sEpGEn7sVIzPBfGVL6/8MrN7cxAfYtsaASZc2KgYV7c2evhRuln7F4A/E8SH2LZDYPhV4A4CKKu/dqAqG/sXx/K/r5wXhT6vug+a9DtlEYmjEQkEvWY7WC+z+ipAspVchH023CpwBwGU1V+EFdlqKgIfXbeK3gPnvj+6WXsI4Bm+HYhhCwR4uWMVp7YwcMQhssgIQi+I7Y6rwG0EMN9bO4g19rZYl0/EBJh5oNFfLAWZNmfaZQIWBvEhtqMQIPqGUylcHoSTXrZvAOOrQXyIrT8C5NLB9YHCU29ZbyOAOdOeS4Dv91L9hSRWQwT+1bGMQ4LQyJsrJzPcJ4L4ENudEyBoh9atKYGOstRN+9/l1dJ4Oo2B3oZlXDGsAOqm/SiAQMv7eNLqkFmJDadSrAXJJmfaNxIwJ4gPsR2eAAOLGpYRaOWml6pTQeR9z+QTD4FljmUcuYMA6r0rDoWm/d94YpJZPQIMuqxhFeYHoSGrwCD0wl/95czqZQS6NLwoxfOoBFz3fzsDPYO/lLb8BJbCjIotigGBfwZ7QcoqUH2pVKz+vKh0034SwEfURygeWyXA4PkNq3jZNgKom7a3NfdRrTqRceEQYOCUhmXcHsS7rAKD0BveVsW1v5xpn0zAbeqjE49tErAdyyhuEcCcWfsfBH6uTScyPBwCbZ9rMFwYsgpUVxyFqz9P/E5WF5l48kvgrWc5B38C58zqlwj0Pb/OxE4xAdI+4lSmBHocSVaB6mqiYvWnl1ceDHb/VV1U4ikQgaHXTwcFMG/aP2PgU4EcirEyAipuhmz+i03uCActiqrVn1xjD1oJ5faDGxEPCqBuyr5kyvEGc6jkZoisAoMVYfM1ouDP/Q19x+TmR/ByKPXg7cNJk+dW93O7yPdedEojEmdbCBD4q3WruCgoEr1cOw/M1wT1k0V7JprTqBQCn9qWN6tzGHRjFhkmOWetyfvTJLM6SwP9MsmBZjM2XuVYxUNV5J4r29cR42wVvjLjg3Gp02/8g4p8dbP6BECTVfgSH+oIuOCPkW7WzgT4O+rciidVBFStAgd/gpWqD4JopqrYOtzPDY5lnKUiR1n9qaAYlg86i+TUt7DgqvCrbhU4dB3K2y5rHxWRdaoPApy6ZeRV5SerP1Uk1fvxTo2jnGn/jOQOsHq6ijyqXAVO/Ppj+3Ztav5WUWgd6aa5id+/5sriiyqSk9WfCorh+WDgLtJNuwrACG8a8RyMgNpVYL5kf4wJDwSLqTOtSdMm1RdOWaMqO1n9qSIZmh+b9HJtNZgnhjaFOFZB4JuOZVyiwtHgT+FS9VwQyXkU2wL9O8cylB0poJu2dwPlG6pqJn5CIEC0hvSS/VsQ9g3BvbhUSIA1bVZj4ZSHVLnUTft0AN9V5S/VfpjPc/qLgQ6l2jr/XN/KmeS6D6aaSRaCZzxHull9EaA9s5BvunPklWM30vTat4wNqvLI962cyK67WpW/NPohxsfr/Yayx8AKF9rj3hjDDwM0JY08shUzv+RdA/wrgHHZSjyd2RJwRd0yelVGP/Hi6l7d3fQAA7pKvynw9Xyzu2vamssPV7oJSN60BxiYm4L8JURggyeArwKQ06nS0g7kftKp9Pxcdbi6aXvPgp6p2m8i/TE/5PQXZ6mOTS+vOB6s3aPar/gLiwC9TnmztpzBPWFNIX7VEiDgSermE1ZdXnxWrWfv5oh9CQiBdqRWHZNqf0y4vlExzlHtd9I8e4Lm0mK5oaiabHj+GPSYtwL0Lv4qb4jwwhbPALY510AlkVy5dgYxB34HWWVMynwRne9UCqHc/dZL9p0gfFpZrOIoCgI3U960z2FA2R2wKKKWOQYJ3ONYxglhsPB2kXHhzumUw5W8La00aIuCnuY2EutcqdpPREqvzYZRV/G5LQECXUS53hUzSdPkln0au4PxXaff+EpYoaddCMMWPo97vs8+m11cF1YNxG94BLxHy97aEFXuXIXHOVzPhK84FSPU5/nSJoRRCJ9X1Emm/SkN+Fm4BRbvYRBgoK9hGZUtp8LJK3FhYI7GJzOKjX7DDnu2pAthVMLncdbN2gyAlT2YHnbtxP82BJY7ljF4/vkWAdxcVNkZOq2NQq5bqA/0rIwi/sGdpomPAbuzADoiijlHnoOWMPhhDdqDYV3j237uXGnlJ4ncu+PNW2b3S4DHjHtPY77+nzsI4JAI/hDA5/06F7v4CDCa0xrWEUujjCBv2vu7hOOIvb0G2dtvcJdQ52e8SRrdBdADrDUfdhYUnw91vu2c58wVnyNot0Y5p8yljMAfmq47fc1Az9q3PG6zAnzrX8o26sqAR+6IgGPqlhHLbi+Dr4GN1WaD3eMAeH/epwYAvwzgbmbc/dqEvZY8c94BG9X4bc+LbG/VHq8kjSbmm+r9xTnbxzSsAHqDvBe6NZcPYXh/6CMEHALwrklKSmIZngC7+FRjwIj9J5peXrYnU9cEjWlvABMYtDezuzcRJsD7d94/vQ9jHYhfYMY6Iu0FAr8AYJ1L/AJxc51TmfpS3LXOl6qnMdEtccch87dE4DUCNRjcIGCt67prGwM9w16vHVEAW5pGBgkBISAEUkxABDDFxZPQhYAQCEZABDAYP7EWAkIgxQREAFNcPAldCAiBYAREAIPxE2shIARSTEAEMMXFk9CFgBAIRkAEMBg/sRYCQiDFBEQAU1w8CV0ICIFgBEQAg/ETayEgBFJMQAQwxcWT0IWAEAhGQAQwGD+xFgJCIMUERABTXDwJXQgIgWAERACD8RNrISAEUkxABDDFxZPQhYAQCEZABDAYP7EWAkIgxQREAFNcPAldCAiBYAREAIPxS7T15L5l45suHahx14Eu4UACHQjwe8AYR4RxDIwD8ztBNA7e/wa0RCekLjgXwAYwbwDRXwnYwIwNIGwA6E8MXqsx1rrUXNul8dpVC6euVze1eEoSARHAJFUjQCzedvQbx+JolzGdCEXwoNjtHsClmG4hQH8G8VpmPEoufrn7uI3VpfOnvSGA0k9ABDDFNdTn2keiC1PBOBKEIwF0pzidNIX+5uChTODloE12ozK1mqbgJda3CYgApqwbJvXah2kaTgDwKQAfTln4nRrubwDc5bq4e/WA8XinJtmJeYkApqCqk+bZE7oYJ3ATnwLh6BSEnN0QGb+iLtzVJNy9eoGxLrsg0pG5CGCC65TvXTEFXV2nu8z/h4DdEhyqhLYdAQZe1Yj+Bc3mzVEdWC9FaJ+ACGD7zEK3mNS3Yhq5XacT+LTQJ5MJQifAoFtZa968emHPI6FPJhO0RUAEsC1c4Q7OlVccS9x1OsAnhjuTeI+HAN3J1Ly5UelZHM/8Muv2BEQAE9ATk8v2h5vM8wgkK74E1CPsEBh8axfRglUVw7t5Ip8YCYgAxgjfm1ovV88D0zwAe8UcikwfLYEXQbzAqRSvjXZamW1rAiKAMfWDXq4WiGkeA7NjCkGmTQABAu7nzUJYS0A4mQtBBDCGkufM6mWEwVWfPLgcA/8ETrmJwQsaVvGyBMbW0SGJAEZYXr20fBKoeyHAx0Y4rUyVGgK0GLypz+k/YnVqQk55oCKAERUwV6qeQYSFAO0R0ZQyTSoJ8MvM6Gv0F29KZfgpC1otrMh/AAAHWUlEQVQEMOSCTf7aE3vwO95cyMxnhDyVuO8gAkR0E/1tl75VVx36cgellbhURABDLElubjVHXdr3AZ4U4jTiumMJ0GomnN2oFGSzhZBqLAIYEljvLi+Y7gDwwZCmELfZIPAn0ujM+sLCbdlIN9osRQBD4J03q9MZ9KsQXIvLjBJg0BkNq/DPGU0/tLRFABWj1XurJ0Gj2xW7FXdCACD+mlMp/qOgUEdABFAdSww933epQpfiSghsQ4DB8+V5QXVNIQKoiKVerl4EpqsUuRM3QmBkAi6f7AwUvevL8glIQAQwIEDPPGfWvkJgeW5LAUtx0RoBAh9dt4oPtzZaRo1EQAQwYG/k+2qnsMs/DehGzIVA+wSIDXmHuH1sW1uIAAbglyvXisR8L4D3BHAjpkLAL4E/cJNnN64oNvw6yLqdCKDPDvDe8HB3eXOJPOTsE6CYKSJAq7U3d5khb4z4wykC6I8b8uXaInm9zSc8MVNKwHttrl4pzFHqNCPORAB9FHrzxga0yIepmAiBUAgw8xzZQKF9tCKAbTLbvKWVtkR2dWkTnAwPmQC/DHZnyFZa7WEWAWyPF3Szdr/s59cmNBkeEQFa7FgF2WG8DdoigG3Akjc92oAlQ2MhIG+KtIddBLBFXkO7uyyTbexbBCbD4iKwCcRT5fnA1vCLALbGCXnTvk8OMGoRlgyLlYB30FLdMo6LNYiUTC4C2EKhho6uvKaFoTJECCSDAPH5cuTm6KUQARyFkXdouct4VM7tHb2ZZESiCLyoEY6Uw9d3XhMRwFF6NmdWbyHQaYlqbQlGCLRAgMG3Nqzi51sYmtkhIoA7KX2uvOJYYu3+zHaHJJ56Akzu7EalZ3HqEwkpARHAnYDVzdodAJ8YEntxKwQiIEB3OlbhpAgmSuUUIoAjlG1S34ppmqvJfmupbGsJemsCruZOX72w5xGhsiMBEcARuiJn1m4hsFz7k29N6gkw6NaGVZBrgcNUUgRwGCj53hVTWNNqqe98SUAIDBEg1y3UB3pWCpBtCYgADieAstWVfE86jIBsmTV8QUUAt+MyaZ49gZp4ioDdOuw7IOlkmAADr3IXDlq9wFiXYQw7pC4CuB2SfJ99Nru4TppECHQaAdJwTn2hcX2n5RUkHxHA7ejpJXsJCEcHgSq2QiCRBBi/cvqNGYmMLaagRAC3Aj+p1z5M0/BYTLWQaYVA6ARcF4evHjAeD32ilEwgArhVoXTTXgignJLaSZhCwA+BimMZfX4MO9FGBHBbAXwKwIc7sdCSkxAYIvAbxzIOEhqbCYgADnVCrrysSNy9QhpDCHQ8gSaOcq4wvB2OMv8RAXxLAE17LgEDme8IAZAFApc4lvHNLCQ6Wo4igEOEdLP2c4A/MRow+e9CIPUE5G7wlhKKAAI46tJHxv5545i/ANgl9c0tCQiB0QlsGrsR7659y9gw+tDOHiECCEDvtY+GhiWdXWrJTgi8TYAIn6hXjPuyzkQEEEDOtAcImJv1ZpD8s0OAgW81LOOi7GQ8fKYigN4KsGw/BsZhWW8GyT9DBAiPOxXj8AxlPGyqIoCeAJq1/wR496w3g+SfJQL0Z8cq/LcsZTxcrpkXwMl9y8a7bvcfst4Ikn/2CGjapg+uWjh1ffYy3+paaJaT93LPmcuPInTJduFZb4QM5s9oTmtYRyzNYOpbUs78CjBfsr/KhBuy3ASSezYJEOPMer9xYzaz35x15gUwZ9r/SMCFWW4CyT2bBOROsAigdwPkfoCPzeZXQLLONgFa7FiF2VlmkPkVoG7aNoBClptAcs8sgZpjGUZms5efwIBesh0QclluAsk9owQYDaff0DOavVwD9AjkTfs3DByY5SaQ3LNJgIC1dcvI9P6X8hPYtJ8H8KFsfgUk64wT+L1jGftkmYEIYKn6Eoj2yHITSO4ZJcD8stNf3DOj2ctPYI+AbtqvAdg1y00guWeWwOuOZbwrs9nLTZBBAWwC0LLcBJJ7Zgm4jmV0ZTZ7EcBBAXwZwPuy3ASSe2YJvOJYRqYv/8g1QNNeA+Cjmf0KSOJZJvBrxzImZhmACKBp3wbg5Cw3geSeTQIM3NWwjE9nM/vNWWdeAPOl6mlMdEuWm0ByzyoBOsuxCpneCCTzAqh/rboPdqHfZfUrIHlnl4DW5P1XXVF8NrsEZAU4WPucad9IwJwsN4Lkni0CBFxTt4wLspX1jtlmfgXoIcmbKycz3Cey3gySf2YIvNjs7pqy5vLDn8tMxiMkKgI4BEY37YUAyllvCMm/8wkwcErDMm7v/ExHz1AEcCtGedO+moHzR8cmI4RAOgkw6LSGVfhROqNXH7UI4HZMc2btcwS+VT1q8SgE4iUg1/3kGmBLHZgz7ZMJuA7AXi0ZyCAhkHwCFccy+pIfZrQRygpwBN4Tv/7Yvt2bmufLT+JoG1JmU0uAgUUatEV1a8oqtZ47w5sI4Ch1nDy3up/bpc1k8CwC9gfwQXl3uDOavwOzeAWAd8b1b4j557wJy52rit5+l/IZgcB/Aai05LNpESRSAAAAAElFTkSuQmCC;" vertex="1" parent="1">
          <mxGeometry x="-500" y="252" width="80" height="64" as="geometry" />
        </mxCell>
        <mxCell id="CEV9l8MN5-AWiUajf7o9-727" value="" style="shape=image;imageAspect=0;aspect=fixed;verticalLabelPosition=bottom;verticalAlign=top;image=data:image/png,iVBORw0KGgoAAAANSUhEUgAAAQAAAAEACAYAAABccqhmAAAAAXNSR0IArs4c6QAAFT5JREFUeF7tnQ20HPVZxp93byDIV/U0CNpjKdQjFsLNziZAdhaoFPADLZUeqJVj+QwFam2gxdy5F7RwlNzZSIWUtoHyYaEeWiGKwpFWwYIJOzfAzc4mfFRUAtTTmgocLR+RwL37euYmNyZwb7K7M7Mz//k/ew7nQJj/+/F7n3kyHzuzggw/C7/w8Dzde+7itrYPEZVDIHIwBFP/rtBDAET/7J9hiUxNAnEJvA5gs0A2q+hmKDZD9cfRv5ektFne2rpu/ZdOejlukl7XS68Le1234PLgfaV98OtQfBLAKb3G4ToSKBCBhyD4dvtNfHfD9e4P+9lXXwzgaG/t4XMw51cBPQ3AR/vZIHORgGEE7gfkgQlM/OOT/gmb0q49VQNwhsZ+A6KXcqdPe4yMX1AC90NlVVivfiet/lIxgIrX+IgqLoXImWkVzrgkYA0B1dUiWNX0a99LuudEDaA8FLgQuVSgv5d0oYxHArYTUMhfQnVVq+4GSbFIxAAqV6wZ1IE5n4PgwqQKYxwSIIFZCChuk8mJLzevO3FjXEaxDcBZ1jgTJbkBwPviFsP1JEACHRP4Idp6WbiitrrjFTNsGMsAykNjIyJ6bZwCuJYESKB3AqpyZateXd5rhJ4NwPGCbwA4t9fEXEcCJJAYgTtC3z2vl2g9GYDjBdFFiGovCbmGBEggFQJjoe+63Ubu2gAcL4i+tvjebhNxexIggdQJvBL67rxusnRlAI4XvAjg/d0k4LYkQAJ9JfCD0HcP7TRjxwbgeMFdAH6308DcjgRIIDMC3wp99+xOsndkAOWhYKkIolt9/JAACRhAQBWXteruyj2VukcDcLwg+ls/+tufHxIgAbMInB367rd2V/JuDcBZFpyMEh4yq2dWSwIksINAG6eEK9x/mo3IrAawaKQxf3JS7oPgMOIkARIwlIDi+YEBPX18ee2pmTqY1QCcoeBWfrff0KGzbBLYmYDitrDuLunYAKKn+kTQIEUSIIFiEFBFbaanCGc8Aih7Y9/kI73FGDy7IIGIQPQoccuvfuqdNN5lAFMv84DMetGAOEmABMwkINCT3/lSkXcZgDPUuIdv8jFzwKyaBHZLQHV1WK+dtfM2uxjA9nf4PUCMJEACBSWgctrO7xjc1QC84D6+wLOgg2dbJLCNwP2h754+DWOHASxa9ugRk6XSv5ASCZBAsQkMtNu/PL7i+GejLncYgDM89nmofqnYrbM7EiABiHwhHK3++a4G4AXRlf+PEA8JkEDhCXwv9N2TdxiAc2XjUEzKC4Vvmw2SAAlsIzCgHwivrb04dQpQ8cYuV+jUIQE/JEACxScgkM83/er10wawVqHHF79tdkgCJLDt0F8ebfrVE2T+yLqD92q3NxMLCZCAXQTeLpUOkcpw8FuquN+u1tktCZCACD4qZe/RJYLSLcRBAiRgFwFF+yJxhhpXQeRP7Gqd3ZIACUD1j8TxghsBfJY4SIAErCPwFXGGg3ugONO61tkwCdhOQLBaKt4YbwHaLgT2byWB6FZgdArwbwB+0UoCbJoE7Cbw75EBvAZgf7s5sHsSsJLA65EBqJWts2kSIAHQACgCErCYAA3A4uGzdRKgAVADJGAxARqAxcNn6yRAA6AGSMBiAjQAi4fP1kmABkANkIDFBGgAFg+frZMADYAaIAGLCdAALB4+WycBGgA1QAIWE6ABWDx8tk4CNABqgAQsJkADsHj4bJ0EaADUAAlYTIAGYPHw2ToJ0ACoARKwmAANwOLhs3USoAFQAyRgMQEagMXDZ+skQAOgBkjAYgI0AIuHz9ZJgAZADZCAxQRoAN0N/8cCbIBio5Z0o8jAhubyxRu7C8GtkyRQGVk3qDq5QNoyCMGgAgsAHJxkjiLHogF0Ml3F8wqsbNXdlZ1szm2yJVAeCpYKsBSCw7KtJP/ZaQC7n9EbIrpy4m2s3Hhd7b/yP05WOE1g8IrGz87ZC0tVZSmA/UhmZgI0gFmVoX89UMLV48trT1E85hJYNNKYP9mWPwZwlrldpFc5DWBmtt/dOvfAjz1zzfy30kPPyP0k4HjB3TSBdxOnAbybydq9ZMsZj4+e8ko/Bcpc6ROgCdAAdq8yQRMl/Xh4be3F9OXIDFkQoAnsSp1HADvzaLePCVccP56FMJmzfwTKXvCkAPP7lzG/mWgA/z+bO0LfPS+/o2JlSREoD42NiOi1ScUzOQ4NYHp6qh8O67U1Jg+TtXdGYPCqxw4bmJh8krcHARpApBnF6rDu8jZRZ/tPIbZyvLFbAF1SiGZiNEEDmDIAOS2sV78TgyOXGkbAWRacjBIeMqzsxMulAQBPh77LC0KJSyv/AR0viL7kdVT+K02vQhoA5NbQr16UHmJGzisBngbwGkCkzQtD3709ryJlXekRcLzgAgC3pZch/5GtPwKQthzZXFH9fv5HxQqTJlBZNvYhLekzScc1KZ7VBqDAUy3fPdqkgbHWZAnY/qUgqw1AVG9p1mufTlZSjGYSgcpQ4+sqYu01ILsNoK0XNFfU/sIkwbLWZAlUljXO15JYew3IcgPg+X+yu5N50Wy/DmCzAWwMfTd6fxw/lhNwvGADgEEbMdhrAIKbw1H3EhuHzp53JeAMBzdBcbGNXKw1ABU5rzVavcPGobPnXQmUh8fOFdVv2MjFWgOAlI4KRxdbfQ/YRsHP1LMzvO5IaPtpG3lYagC6IfRrZRsHzp5nJuB4jRYg1l0TstQAcFPou5dyZyCBaQKOF6wCYN01ITsNQHFuWHfvpPxJYIcBDAXnQGDdNSErDWCypEdv5Pv+uffvRGBwpDF/oC3RW4Ks+lhnAAKETd+tWDVlNtsRgYoXNBVwOtq4IBtZaADytaZf/f2CzI9tJEig4o19VaGfSTBk7kNZZwAKPb/l16y855t7NWZcYNlrnCcQq54Nsc4ASorB9XXXunO9jPctI9IvHAqObgus+rl3uwxA0Qzr7kIj1MgiMyHgDAXrIbDmGpFVBqCCr7ZG3c9moiwmNYJAeTj4iiisuUZklQGI6AXNUT7/b8SemFGRleHG+ar2vB/AKgOATpbD+gnRo5/8kMCMBJyhtQsgAy1b8NhjAILxcNQ9xpbBss/eCTjDwRNQLOo9gjkrrTEAAe//myPLbCu16fsA1hgA2lgSrnCtfgd8truVOdmdZcGFKOFWcyruvVJrDEBL6rSW16w5t+tdElxZHmmUpS2hDSTsMADB4+Goe5wNA2WPyRBwhoPHoDg2mWj5jWKHAYDP/+dXgvmszJb3A1hhAAq5qOVXrTiny+fuZF5VZW9siUBvMa/y7iq2wgAGgMq471pxTtfd+Ln1bAQWeYEzCTSLTqj4BqA6HtZrvP9fdCWn0J8z1HgCIoX+PkDxDYDv/09h17AjpA2/F1B4AxCRTzdHq4U/l7Njl+xvl5XhsYtU9ev9zdrfbMU3AJQWNf3F6/uLldmKQKDirVuoaI8XoZfZeii8ARR5eOyNBOISoAHEJcj1JGAwARqAwcNj6SQQlwANIC5BricBgwnQAAweHksngbgEaABxCXI9CRhMgAZg8PBYOgnEJUADiEuQ60nAYAI0AIOHx9JJIC4BGkBcglxPAgYToAEYPDyWTgJxCdAA4hLkehIwmAANwODhsXQSiEuABhCXINeTgMEEaAAGD4+lk0BcAjSAuAS5ngQMJkADMHh4LJ0E4hKgAcQlyPUkYDABGoDBw2PpJBCXAA0gLkGuJwGDCdAADB4eSyeBuARoAHEJcj0JGEyABmDw8Fg6CcQlQAOIS5DrScBgAjQAg4fH0kkgLgEaQFyCXE8CBhOgARg8PJZOAnEJ0ADiEuR6EjCYAA3A4OGxdBKIS4AGEJcg15OAwQRoAAYPj6WTQFwCNIC4BLmeBAwmYJgByAOiel9btAmUXmpPvPpSxL4058CDgPZBJZWKipwO6GkGz4Sl55ZA8fRnggH8SKG3zMFed477x27qRBuLvMcPn8Db5wjkIgA/38kabkMCsxAotP5ybQAKvWagNPfm9csX/Wcv8lw4Mv5zk+2tFwvki72s5xq7Cdigv9wagAKfaPnuPUlIsOwFZwlwdxKxGMMOArboL5cGoJDDWn71hSSlVvbGPiDQ55OMyVjFJGCT/nJnAKV99j5o/dWLXk5DWguvHp/XfvOtqQuH/JDATARs01+uDEBk4MTm6HFr05RmZfixE1Qn16SZg7HNJGCj/nJjANEFl5Zfu7of0il7jat5YbAfpM3JYav+8mIAPyqV9l7U69X+bmUW3R1ot98a5y3CbskVdntr9ZcLA+in+05LmEcBhd2Zu27MZv3lwgDaMnDEhtHj/rXrycVYsGD4sV8q6eSzMUJwaUEI2Ky/PBjAI6HvnpSFlhwveBjAr2SRmzlzQ8Bq/WVvAKJLw9Hal7OQgzPc+BxUVmaRmzlzQsBy/WVuAAo9tuXXnshCDmWvcYxAHs8iN3Pmg4Dt+suBAST/rb9OpcVvB3ZKqrjbpfGtv05p5UF/mRvA5MRr+2+87tfe6BRaktsNXvEP+w3MOeD1JGMyllkEbNcfDYAGYNYem3C1NAAv0ISZdhXO9kOwrmBx48QJ2K6/zI8AbL8Ik7iiGbArArbrL3MDEMUlzbp7c1dTS2jjylBwsQpuSigcwxhIwHb9ZW4AgDwQ+tXfzEI7jjf293x/YBbk85TTbv3lwACAAcz5YKfv+0tKOtF7Aycx8VxS8RjHXAI26y8XBmDzwxjm7jbFqdxm/eXCAABY+zhmcXYjozuxVn95MQD004X5KLDRO2sqxduqv9wYQDTVJN/EOptK+IbgVPafQgS1UX+5MoBtJpDeswF5+O51IfaUAjdhm/5yZwCRttJ4MyvfCFzgvTbh1mzSXy4NIJpnkm9o5ZuAE95DLAhni/5yawDbTgf402AW7Gu5bdEG/eXaALYrY+rHGVXm3NXpewOj9/2JTpzNHwfN7b5lUmGF1p8JBrCzWB6B6L2qGJvp58FFUIXKGXzPn0n7l1G1Fk5/phmAUWphsSSQdwI0gLxPiPWRQIoEaAApwmVoEsg7ARpA3ifE+kggRQI0gBThMjQJ5J0ADSDvE2J9JJAiARpAinAZmgTyToAGkPcJsT4SSJFAZABvApibYg6GJgESyCeBreJ4jZcAmZfP+lgVCZBAegT0Zal4wXMKHJ5eEkYmARLIIwEBNonjjbUAXZDHAlkTCZBAmgRkg5S9xlqBHJ9mGsYmARLIHwGFPhpdBFwF4JL8lceKSIAEUiZwk1SG152v2r495UQMTwIkkDMCIqULZHCkMX+gLU/mrDaWQwIkkDKByZIeLVEOxwveALBvyvkYngRIID8EtoS+u9+0ATzMt+jkZzKshAT6QOCR0HdPmjKA8nBwhSj+rA9JmYIESCAHBFTwh61R97opA1g4MlZpt3V9DupiCSRAAn0gUCrJwvXLq80pA4g+/EZgH6gzBQnkgED0DcCm734wKmWHAThecBuAC3JQH0sgARJIl8Dtoe9euKsBDDfOhMo96eZldBIggcwJiJ4VjtZW72IA0X/wuYDMR8MCSCBlArIh9Kvl6SQ7TgGiPyh7wbAAy1OugOFJgAQyIqDASMt3R2c0gEXe44dPYuIpAD+VUX1MSwIkkB6B/x3AnPnj/rGbZjSA6A8rQ8H1KrgsvRoYmQRIIAsCorihWXcv3zn3LqcAU6cBlz380zJ37sMQ7DhPyKJY5iQBEkiQgKKlW7ee1LrhpP/ZrQFMmcCy4LelhHsTTM9QJEACGRLQNs5orXD/9p0lvOsIYHoDngpkOC2mJoEECcx06D/rNYDp/3HkF5/af+7W1x4EdHGCtTAUCZBAXwnIuq1zDzj1mWvmvz5T2lmPAKKNnaHGiRB5EMDefa2ZyUiABJIg8BZUTw3rtTWzBdutAUSLKsPBZaq4PolqGIMESKB/BERweXPUvWF3GfdoAFNHAl5wJ4BP9a90ZiIBEohJ4Juh756zpxgdGcB2E/hnACfuKSD/PwmQQOYE1oS+++FOqujYAKJgZa/xnED4IyKdkOU2JJABAYVuavm1qUd9O/l0ZQDbjwT4W4KdkOU2JNB/AltD392nm7RdG8B2E4ieFziqm0TclgRIIFUCT4e+O7/bDD0ZwJQJDAW3QjD1UgF+SIAEMiSguC2su0t6qaBnA9h+JBA9OjzcS2KuIQESSITAaOi7I71GimUA201Ae03OdSRAAvEIhL4bax+OtZgGEG94XE0CcQnQAOIS5HoSMJgADcDg4bF0EohLgAYQlyDXk4DBBGgABg+PpZNAXAI0gLgEuZ4EDCZAAzB4eCydBOISoAHEJBgXYMz0XJ4xAccLjP4eS1z9Wv89gLgAM9Yv08ckQAMgwNgmGBMhl2dIgAYQE77tAGPi4/KMCdiu39h/+9kOMGP9Mn1MArbrlwYQ82GKmPrj8owJ0ABiDsB2gDHxcXnGBGzXL48AeASQ8S6YbXoaQEz+tgOMiY/LMyZgu355BMAjgIx3wWzT0wBi8rcdYEx8XJ4xAdv1yyMAHgFkvAtmm54GEJO/7QBj4uPyjAnYrl8eAfAIIONdMNv0NICY/G0HGBMfl2dMwHb98giARwAZ74LZpqcBxOTveMEbAPaNGSar5VtC390vq+TMmz0B2/WbwBFA4weA/EL2o+ylAv2P0K+9v5eVXFMMAo5nt35jG0DFC5oKOCbKQYCw6bsVE2tnzckQsF2/sQ3A8RrfBuR3khlHv6PoX4V+7ZP9zsp8+SFgu35jG0DFC85Q4G/yM9LOKxHg403fvbfzFdyyaARs129sAzhi2aMH7FuSFwH5GbPEof+9pa2HPrvi+NfMqpvVJknAdv3GNoBoGM7w2NegemmSg0k9lsiqcLT6mdTzMEHuCdis30QMoLJs7EM6oOugODD3044KFLwqk7K4uaL6fSPqZZGpErBZv4kYQDSdsjf2pwK9MtVJJRRcIde2/OpVCYVjmAIQsFW/iRnA1KmA11gDyAn51oOuDf3aifmukdVlQcBG/SZqAFMmMNR4CSLzshjgHnOqvhzWawftcTtuYC0B2/SbuAFsOxIIngfwgZyp6IXQdw/LWU0sJ4cEbNJvKgaw3QTuBnBWTuZ7T+i7n8hJLSzDAAKOF1ih39QMYMeFQdE/yOzugOBVVbmRF/wM2ONyWOLUhcGC6zdVA4hmuu0WCyITOBvQ9/RnzvITCO6SSdzIW339IV7ULEXXb+oGMC2MhUMPvqdd2vd0KD4mkMMVOg+Q9ybwKPEWQF8RyMsK3QTB35XaW+5bXz/1J0UVJfvqP4Gi6vf/AB8iOEEyLsg2AAAAAElFTkSuQmCC;" vertex="1" parent="1">
          <mxGeometry x="-920" y="800" width="64" height="64" as="geometry" />
        </mxCell>
        <mxCell id="CEV9l8MN5-AWiUajf7o9-730" value="" style="shape=image;imageAspect=0;aspect=fixed;verticalLabelPosition=bottom;verticalAlign=top;image=data:image/png,iVBORw0KGgoAAAANSUhEUgAAAIAAAACACAYAAADDPmHLAAAAAXNSR0IArs4c6QAACyFJREFUeF7tXWuQHFUV/k5vHlWpUl6BEAqKIAEEo8zs5rHTk0SrMD+URwRNBMsg+AhiSZWg7PRsqKKoIju9QcGqWCIRX8RSNICGiP6IVGk207N5bY8K4gMkEYpETMKjylTlMX2snuxusrvz6Nf0dk+f/n3ud77z3W9u356+9zbB5fWhnsELp3RUljHTQhCWgXGpS4h4hRNeAWMrEe88UenY+ud13a/Hq4DGbMlNMSnNeJiAWwGc46ZdG8UeYuCJsq7e0y41OTZAWjO4XYoOog5TVx1rF0S+VmE4KiKdK94Mop+3ikQscZlvMfuzT8aS+2mkmxrgA3cbZ0+bjj0A5sS92ID57z12FF0vPqIeDhg3VLimBujUiqsZ9FiorGKSjMB3DOnZDTGhW5NmUwOktNJGAn82zkW2ijuDflrWM6tahR8GblMDpPPGXjAuDoNM7HIQ9pkFNda3xuYGkNl/Q1/G/WlADOBz2BED+BQw7s3FAHHvQZ/8xQB1BGRg5QlF2fZCX/d/fGrc0ubzegdnTbGspQT80ksiMUAN1eIqipe/u+Na60i3BT8JJFpuFjLPevk1TXabdL50A5g3u+EhBhinlqJMu2BP3/z9bkSMSmxX7+7ZlnXsDTd8xADj1DquKOdH/b5fr4Pt+cBUyzogBjhNAbf3RXvyV9bVTW5EjEpsSjNWuJ0Mygggk8Cm86ioGLwWj6bk3Y4Ao0mIlis0dVfU5wPV+z4fX+B28jdSp4wAUbZ3CNzEACGIHOUUYoAo904I3MQAIYgc5RTtb4C88XLbr/336jDCK2ZBneu1eRTaOXkKeBTAl6NANoIcvmfq6p0R5OWYUlMDdOaLtzPTDx0jJiiQiD8/VMj+KM4lNzWAvRWsQ7HKCd4NVK9/D1UsJRX3rWJNDWBXP7wl7O44Oz1o7gw80g5bxBwZwBbP8z+CQSsfEby4z/5HZHRsgKoJTm4RKyR4l9BeMOfbYUuYJwPYjeytYtOn86csKEuIeEnb7xkg7GOmAQXWwNGj9FTct4KNH0BdjQBhjL5+bzXtMjSHobWdQwwQltIRzSMGiGjHhEVLDBCW0hHNIwaIaMeERUsMEJbSEc0jBohox4RFSwwQltIRzePbAOn84FWAlQHTx8B8KQjngnEeCFMjWnM8aTGOg/AmGP8F0Ssg/h2glMxC91/9FOTZAJ154zpmWg3w9X4ISFu/CtAWIt4wVFB/4wXJtQFS9xZTikL3M+ETXhJKm9YoQIxfWxY/UH4oa7+6d3y5MkCqx/gaEe4H4UzHGSQwPAUYbzPjgfI69dtOkzo2QKdmfJWB9U6BJW7yFCDgriFd/Y4TBo4MkO4dvBmWJSeFOlE0KjGKcovZ1930JNOmBrg6P3C5wh3PA7gwKrUJD0cKvG5R5Zo/FZb8o1F0UwOkNcM+OmWFo5QSFDUFNpm6utKzAVJa8TYCxXrVa9R6JGw+DL69rGd/XC9vwxEgrRWfA+jjYZOWfEEqwL819ey1rg2Q0ooLCLQzSCqCNTkKMHhhWc/uqpW97giQypV6iXjt5FCWrEEqwExryv2ZPlcGSOeN34NxTZBEBGuSFCA8bxbUj7ozgBwSPUm91Zq09RbL1rwFzO/ZfkVFUf4WIJWNDGyxLKVkYyqKlSHAfokU1Fn7gt+kszos6/271y3++/iwmgbwcmBivfyNTg3zcirX+DyC7/BnWucAz5oG6NSMexlY5xC6bhhBmT+kd9vfG6p7dWqDXQxrt5dcgu9cNQJ6hnT1IYcjgPE4GF9wDj8xkoENZV29wwlGSjMeI2C1k9iRGMF3o1Z1B8gPzIL6RUcG6NRKAwxe7DLF2HDiW81CdqMTjHS+uApMTziJHY0RfHdygbYP6ZkljgyQzhXtZUczXWUYF8ygS8p6Zq8TjJRWmkPgV53EnhoBBN+NXmA+aPZnz21qgIX5Hecc58pBV+A1giuWcpHTwxOGD6F4zU1OwXej1snYqdQxc2dh0aHTW06YBKZyhkqEonv4sS3cnBns5WlA8N33EDOy5X7VaGiAAM8E2mjqqv2h6aZXWjPs+7/b/wQEv6my46ZlNc40mjACpLWSDnDOJXbNcCe/Ui+//lPzgOYnkycZf2KnUL+pZ7TGI0DO+FWQK34bPav7+Q9gpAjBd/5TtVcOD/WrNzY0QFoz7I0GVzqHbR5pP7MT8XZmZcCOJrKWMNNit8/+9TIJfvM+GI54ydTVq5oYoFQBWHEMKYExUoAsU8901DVA6r7By+iE1XARYYyqFao1FOApyuXlB7v/eeoWelrQye1e2CLKta8CRLj+9G1kY54CUjnjG0SY8MKgfeVIXmXMuLfcr36z5giQ1orfB2jCC4PkydTOFfPjpp79Uj0DbANowguDdpYjebXxgKlnl9YxgGF/5/e85ImSqIrfNHV11gQDfFAbOGsKOg4nSoqEFnsClbP/oi95q/qfzIgGnT2D3axY1TV7EbhkjV8LO4EsJTO0rntwjAFS+dLniLnuFqIW8hkDLWv8Wq80E91WLmR+MsYAac2wNw7kW5++fgZZ4xea+gVTV3vHGiBfehrMN4VGYVwiWeMXovJEz5iFzCfHjwAv2KfBh0hjbCpZ4xem9C+aujpvrAFyxRMgGvOiIExGsoYwRLWZK2Z/dsqoATo1Yy4Doy8IQqQymkrW+IWrOgGXDenqy9XHwFSueC0ReTpnLijaTlYPjeTysson7vhB6TyCw8zXlfuzz1UNkM4X7wHTt4JO4hJP1vi5FMxXOPHXzUL24ZMjgIedOb6S12ns5Ffq5dc/6nrEew1hkJqPPHWdHAE04w8APhxkAq9YssbPq3Ku2/3R1NWPDBugtB/g811DtKiBrPFrkbBjYOmAqWdmU1du9xkWHXs7jJSSI1oKKDztTLp6jbFQqWBHtKgJmzAUsDqwiNL5wVVgy93O3DDYSY7WK0DKrZTKFdcSUfXFgFzJUoCZ+yitFZ8CqPpiQK6kKcBPU0orDRJ4UdJKl3oBBu2gtGbY7wDmiiCJVOBlSuWMQ0Q4O5HlJ7xoZhy2RwBOuA6JLl8MkOjuB8QAYgC5BSTZAzICJLn37Y0hMglMtgPEAMnufxkBEt7/YgAxgPwRlGgPBDYHsBd0nlCUbS/0ddtnDMjVIgXm9Q7OmmJZSwmwP+jp+wrEAPW+R+ObnQA0VCCIJzj/BqjzKRLpu9YrEMSnfXwbQFGmXbCnb/7+1pcrGcYr0NW7e7ZlHXvDjzK+DXBcUc6X+76fLvDe1p4PTLWsA94RAvgn0MluHj8EpW19BfzskhpB9T0C2EAyCZwcm0ZjEjhqJVqu0NRdMh9orRmq930+vgDMm4PIZI8A/wMwIwgwwYidAkfsZeH/Buii2FEXwgEowK9Rp2YMMZAOAE0gYqYAAaY9AjwJ0Kdjxl3oBqIA/8IeAW5k4JlA8AQkVgoQcBNd0bP9PTMU2gfQWbFiL2R9KsBvHbH44uEzgkrfBfOdPhGleZwUIHrULGS+UjVAZ0/pSu7gQTDeG6cahKtHBQjvUoW6h9ZlXho9LTyllR4k8BqPkNIsRgowaG1Zz9xnUx7zzaC0VpQvhsSoI71RbfDFEBswiE/HeyMmrVquQI1PyE/4dnDVBJrxKoA5LSckCcJUYK+pq5eMT1jTAMMmsNecrQiToeRqmQKbTF1dWQu9rgHs4OrEkPgueTpoWce0FpjwLjOtH5nwuTbAqUdE2Cb4DMBntJaxoAejAL0Dws+ogvX2o14jzIYjwOkNu3Jbz7CUGTeAsZxA72PwTIDOkVfJwXSZD5QjAB8i0EEG/wuEzYp15Nk9/cvecYL5f5DfmZ9JALlLAAAAAElFTkSuQmCC;" vertex="1" parent="1">
          <mxGeometry x="-1130" y="1150" width="64" height="64" as="geometry" />
        </mxCell>
        <mxCell id="CEV9l8MN5-AWiUajf7o9-731" value="" style="shape=image;imageAspect=0;aspect=fixed;verticalLabelPosition=bottom;verticalAlign=top;image=data:image/png,iVBORw0KGgoAAAANSUhEUgAAAQAAAAEACAYAAABccqhmAAAAAXNSR0IArs4c6QAAIABJREFUeF7tnQmYHFW59/9v9WQSVlGviohXkKisSVdPINPVAYlwDagoyiLKcsUFlUXBSzLVQzCJCdPVCZflqoAooAJeZRFFvBEvCEK6ehIyXZ2wqiAuiOJVQNkyk+l6v6c6JF+WyUx1dVV1LW89Dw/KnPMuv/fMf05VnTqHIJdrAjl9sMeGfQYxDgGwFwi7ue4sDYMjwHgewO+YsEqBcnXN6B0KzlmyLFOy0gkum1yfeSkTzg3Og1j2iwAxLquVtfP8spdkOyIAE1R32rzBPTNK40cA9SR5ICQvNx5q2Jlj1y7tfSp5ufmXkQjABCyzunkJAfLXxL8xF5olBi6tG9qXQnMYQ0ciAOMUTS0O7g+2H45hXSXkjQRIOcAq9T4iQMYmIAIwzsjI6pWFBFoggye+BBi8qG4UFsY3g2AjFwEYbwagV6sA9wZbArEeLAEatIx8Plgf8bUuAjCuAJh/BrB7fMsrkQP4i2VobxYScgvQ8hhQdfMVAFNa7igdokRgnWVoO0QpoCjFIjOA8WcAjwLYN0oFk1haJvCYZWj7tdwrJR1EAMZ/BnA7wMekZCwkNE36iWXkP5jQ5NpOSwRgHIS5ovkBZvykbcpioGMEiHBMraTd0bEAIu5YBGCCAuX6zNuYcGzE6yjhjUGAGD+qlbUPC5ztExABmGB0ZOdWsqTQPfLhT8x+jRjPs82z68sK9ZhFHmq4IgAucGfnmeeSgktdNJUmESHANs6rL9Uui0g4kQ1DBMBlaeRWwCWoCDSTqb/7IogAuGQltwIuQXW6mUz9W6qACEALuORWoAVYHWoqU//WwIsAtMYLcivQIrAQm8vUv3XYIgAtMpNbgRaBhdVcpv6eSIsAeMAmtwIeoAXcRab+3gCLAHjjJrcCHrkF0U2m/t6pigB4ZNfTZx5kA/fJAiGPAP3qxnheAQ4bKmsP+mUyTXZEANqottwKtAHPp64y9W8PpAhAe/zkVqBNfu10l6l/O/Q29BUBaJNhbn51P17PptwKtAmy1e6M52kSabUleWfPBrk8EhAB8Ahu825yK+ADxBZNyNS/RWDbaS4C4A9HuRXwiaMbMzL1d0PJXRsRAHecJmw1vbjynYrdWCm3AhOiaq8B43lbycxcU5r56/YMSW95BuDzGFCLlS+A6XKfzYq5zQkQf9EqFf5LoPhDQGYA/nDcZEW+FfAZ6GbmZOrvP1sRAJ+Z9syv7GOvp9VyK+AzWGfBzySeMbSk8ITPllNtTgQggPLn+syzmPC1AEyn1iQxzq6Vta+nFkBAiYsABARWbgX8AytTf/9Ybm1JBCAgtlm9uhcxW3Ir0CZg5zNfIrVu5H/XpiXpPgYBEYAAh4WqVz8H8JUBukiBafq8ZeSvSkGiHUlRBCBg7HIr4B2wTP29s3PbUwTALSmP7Q6+YNVbR0dH18qtQIsAGc93dXVNe+CiQ/7YYk9p3gIBEYAWYHltmu2rfIaIrvbaP439mPmMernwzTTmHmbOIgAh0Vb16i0AHxeSu5i7oVstI398zJOIRfgiACGVSZ23Yg+Q8rDcCkwAnPE82D7AWjrr6ZBKk2o3IgAhll/VzU8CuCZEl3F09SnL0K6NY+BxjFkEIOSq5YrmD5hxYshuY+GOCDfVStpHYxFsQoIUAQi5kAf2D75pUsN+TG4FtgLPeH59Rtn3oYHeZ0IuSardiQB0oPzZYvXfifnbHXAdWZdM9Il6Kf+dyAaY0MBEADpUWFU3vwfgYx1yHzW3/20Z2sejFlQa4hEB6FCVe/5j9b/Yk0acXW1e26EQouL2OWV99zuH/nPG36ISUJriEAHoYLVzfZVTmOj6DobQcdfEfGqtXLih44GkNAARgJQWXtIWAg4BEQAZB0IgxQREAFJcfEldCIgAyBgQAikmIAKQ4uJL6kJABEDGgBBIMQERgBQXX1IXAiIAMgaEQIoJiACkuPiSuhAQAZAxIARSTEAEIMXFl9SFgAiAjAEhkGICIgApLr6kLgREAGQMCIEUExABSHHxJXUhIAIgY0AIpJiACECHit8zv7KPPUpfBnBah0KIitvvKl38laElhSeiElCa4hAB6EC1c3rlDAZdCGDPDriPosunCLy4ZhTk+LSQqyMCECJwtTi4P5i/DLDsfT8md/oBiL5ilXofCbEsqXYlAhBS+dW+6jmA/WUQ/UtILuPphvlvgPIVq5z/ajwTiFfUIgAB1yunD/YwGhcC9KGAXSXMPP+YkFlcM3qHEpZYpNIRAQiwHKpe7QPYudffKUA3STb9EkCLLSNfTnKSncxNBCAA+mrRfDdsXAjCEQGYT59Jxt1QsNgqab9MX/LBZiwC4CPfqef8z+Sdd3rNhQS6wEezYupVAgy+6MWX/rH48a++b1ig+ENABMAfjsj2Vd4PogsJmOmTSTEzBgEGVoJ5cb1c+KkAap+ACECbDA8prnz9KI9eyKAvtmlKurdAgMCXd1HX4lWlmX9voZs03YqACEAbQyKnVz/KsJ0n/Ae0YUa6eibADxOUxTUj/wPPJlLeUQTAwwBQL6i8DaPkPOT7lIfu0sVvAoxr0MWLrYsKv/fbdNLtiQC0WGHnrz7AAwy8vcWu0jxAAgT8FqB+mQ20BlkEwCUv5wn/Lju+ZgBEX3LZRZp1ggDzJS+8/I9+eVPgDr4IgAtOPX2DsxrUKBFolovm0qTDBBi8IsOZ4lC5d0WHQ4m8exGACUqkFqtfAvMAgMmRr6YEuDmBYRD1W6X8JYJl+wREALbD5iD9/rd3QRkASL7ci/VvEP9gFHb/g8ahv411GgEFLwIwBlh50BfQaOuQWXlAKDMAV0NPHvS5whTfRvKAcJvayQzgVSTyoC++v9etRC4PCLekJQIAQB70tfIrlIi28oDw1TKmWgDkQV8ifpnbSEIeEKZWAFS9eiSYrwDhHW2MIOkadwKM34DoTMvI3xX3VLzEn0oByOorPk1Qvg6g2ws06ZM4AiMM+6y6MetbictsgoRSJwBqX2UxiOanrdCSrwsCzEuscsHZwi01V2oEYP8FD+08efifVwA4NTXVlUS9ELh+ePKuZz6y6MAXvXSOW59UCMC08ysHZrrImfIfFrcCSbwdIXBfY5TPWntx4aGOeA/RaeIFwNmqi6j5y/+2ELmKq/gT+D0zn5X0rccSLQDZvspniEiOm4r/L2PHMmDmM+rlwjc7FkDAjhMrAKpuOg9zvhIwPzGfDgJftgxtcRJTTaQAZIvm14hxVhILJjl1hgATvl4vaWd3xntwXhMnAKpevQXg44JDJpbTS4ButYz88UnKP1ECoOqmswNMIUkFklwiR6BiGVpidoZKjACouvkbAFMjN1wkoCQSeNwytEQsIU+EAKi6+QKAnZM40vzMiYB1DNzMhLXMvLahZNY49jN2YzoRTSPGNAJOYGCKn34TautFy9B2iXtusRaA/HnmDusm4+W4FyGc+OnXUPhMa0C7ezx/ar95BGy6AuB3hhNXvL1MGcaO1Uu1V+KaRWwF4CD9/td2IfNsXMGHGzf9xDLyH2zFp6pXbwf4mFb6pLXtKBqve9A49Lk45h9LAVDnrdgDivKnOALvQMxXWYb2eS9+Vd28EsDnvPRNXR/bfou1dNbTccs7dgLQM7eyj52hx+MGukPxmpahtfVWRNXNCgCtQ/HHyq3S4KlDywpPxCnoWAnA9L5VByg0mvgPNHwZQIQXeZQPrS8r1Nuxl51byVIX3Q+Wh6xuONrcdeCa8iEPu2kbhTaxEQB13ooZUJQHogAtFjEQvmeVtJP9iFUtmjeC8XE/bKXChm0fbC2dtToOucZCAHJzVxzKGeW+OACNTIzMF1rlwhI/4lH7KvNBlMi18H7wGcsGNezDastm3R+Ufb/sRl4A1OLg/mA7NlMqvwrTrh0iHFMraXe0a8fpnyuaH2DGT/ywlSobpBxglXofiXLOkRaAg+eu2n00M/rnKAOMamyK0r3H0MAMX9j19K9+s22PxO4JdxRq09XoevMDyw75SxRiGXOmEtXAZp4zuOvITrYDboeoxhjluCxD81XcVd3kKOcb4dhe6X5J2X3lV3v/GcUYfR0kfiV4wgk3ZR7fZ09nmeoBftlMmx0RgEhV/OGpTzw1/eabT2xEKioAkRQAWYXW/jARAWifob8WWl+N6a//sa1FTgBUvfJNgD4dRvJJ9iECEMXq8rcso/CZKEUWKQHI6eZlDHwxSoDiGosIQDQrR8DlNUM7NyrRRUYAcsXKRczUHxUwcY9DBCC6FSTigVqpcEEUIoyEAGT1wTMJtrN1t1w+EfBfACqrwZQDRfO5kU/YQjPDUM6qG73OQTUdvTouAFm9ejiBfwZgckdJJMI53UVE3xvutn/88CLN90+lp+umqtjIkcI5BnIA5eR8Rc8DZ5hBR9WN/L2eLfjQsaMCMG1h5Y1d6+hnDKg+5JJGEzaD/xtQlq+fzMuD+KUfD+q0+Sv37rLtg8F8MDMOAdADYKc0FsJLzgRYo1P4qLULC3/10t+PPh0VgJxevYHBvnyw4geM+Nhg59y6a8H2tVb50Oa2XlG4nE1aJlGmwExnyGYi7ipCoBtrRv4Ud639b9UxAcgWq/3EfJH/KSXa4l/BuJZt5dr6sl5nE9TIXhu+HxAhcFMgJrqgXsoPuGnrd5uOCEC2aB5LjNv8Tibh9q6yM1iy5iItVjshZfXKQgItSHht2k6PCR+ul7QftW2oRQOhC8D04sp3Kmj8DIy9W4w1nc0JL4JprmXkr4orABEBF5UjPGkjc9Sa0sxfu2jtW5PQBSCnm3cw8H7fMki2IZMZc+tlzYx7miICE1eQgJ/WDO0DE7f0r0WoApDTzaUMzPUv/ERbumr4n8NzH7litvPAL/bXAQvM13WP4Ekwdo19MgEmQMCymqHNC9DFFqZDE4BcsfoRZr41rMTi7IeZl9bLhb445zBW7HJuo7uKEtFxtVL+h+5at9cqFAFw3vdn1tEv5PNeF8UivtIqFc500TJ2TbJ69WQC3xC7wMMP+OHGFH5PGOsDQhEAtWheBcZnw+cYO48ly9AS/T2EbCzickwSvmGVtMDPZAhcAHL9g6ewbV/vMu00N/uuZWj/nmQA2QXWbjT8SixP0OlEXUhRTq0N9AY6YwpUALJ6dS8i/ALM8spv3BHEayZR1xGrSjP/3omBFpbPaeev3DvT1fhtWP5i74foSWa8p27kfxdULoEKgKqb3wVwalDBJ8UugT9bMwpXJyWf7eXR/JgIqCU9T5/zu94ytNN8trnJXGACkNMHz2DY3wgq8OTY5SHLKMxITj7bz0S2F/dWZYLy2ZrRG8gfiEAEYMNe/vwLgN/kLeX09ErLX3+norLXo9dxTc+A6D1BnDEQjADo1VsAPs5ruunpR38cnrzL/o8sOjARi33Gq5v89W93VNOtlpE/vl0rW/f3XQDUvsrnQdTxnU78BhWEvajtDxdEjhttyl9/H+gyn2mVC86R7b5dvgrAzAWDu44M8yDA+/kWYZINMb/bKhcSf+ZhVjcvIeC8JJcynNzo0e7J1LtykX+HjPgqAHKIZAvDgPCEVdKmttDDc1Nn+g0b72bCGwG8Ec6/2fnf9EaAXwDwNAF/BuhpBv+ZgOa/FUV5cmgg7/mpvVq87w1A1xVg+D519Qwj7h19PPTVQeGbADjbQ2VGR1cC9Ia4Mw4jfgZuqxvaR4Lyle0zNVL4JDA5z2L2aMPPKIBVzFhFhFVKg1cNLSs8MZ695rFuOzc+BMY5AB3chm/pug0B/r9GV9fMtUtmPukHHN8EINtnXkqEyOx37gecIG0QeH7NKPi+I1JWv/9wIPMFAj4cYPx/B2MVE68iUp4F6DmC/RzY3olBHwPo3wDsGKD/VJtmxmX1subLLZUvAqBesHIGGo2VAJRUV6aF5BmN2XXjUF93hJVv7lsoQLyb2shkZloXzVzdbhr+CICs+Gu9DtzI+rmhp/zyt16CmPfwZYVg2wKQ6185h+2Gs6+/XC0QULjxtqHyoX9oocu4TVXddPYKbOde369QxE5IBEjJHFUbmHlnO+7aFgBVr/4U4Pe1E0Qa+75s27v+auks5wm8L5d8ZusLxpgZof+xjHxb2+u1JQBZfcXJBCXQzxVjVhHX4SrPdncPXT1jvesOEzSUGYBfJONlh2GfUjdm3eg16jYFwBwkYKZX52nut15Rdn9ooPcZvxioeuX7AH3UL3tiJx4EGFhZN7Rer9F6FgC1WDkVTM7nvnJ5IEA27V9bmn/UQ9ftdlH16uUAf8FPm2IrBgSIT7NKBU+b7ngWgJxu3snAe2OAJ5IhMtGseilf8Tu4rF5dQOCTAOzrt22xF00CBPy8ZmhzvETnSQCm65X3KqC2nj56CTZJfYL8DPjwBfd0/XPdDieB7JPkDIYkjZrt52KD56wxCj9vNVtPAiA7/bSKedv2DFxdN7TAN0pVi5U8WDkJG2YFzrcAciWTgKd1AS0LQK5/cBrbdmROpI1vLcPdCeiQ4srXr3de1zK/H3D+wc7xZSeRj0WAFGV6baB3bSt0WheAPnMZE85vxYm03Q4BzmSt8szQxbQwb8UuLyl0nML0IabmMW2TpEbxJ0CMi2tlraWTt1oSgAP7B980acNff9nqy4fxwsCldUP7kg+mPJvYf8FN3ZPXvcX5KvE4JjqUpLaeWUag4zPrFWV6K6+XWxKAbNE8nxjLIpBoUkL4e8NWsmuX9j4VlYScZwbM9GECjgXwjqjEJXG4I8CEufWSdrG71i3uB6DqpvPXf5pb49JuYgIMuqhu5OdP3DL8FtOK989UuOsoYv4gCLnwIxCPHgistQxtutt+rmcAsvDHLdIW2xH+SQ3q9XtRUItRTNh8gxgoRxPI+e5DNvmYkFgHG7SwMMi1AMjCnwALSnSlVcrH5kDQbNF0bg8+RowTA6Qipj0SaGVhkCsBaG4vRfB91ZrH/JLZjVC0SpoRp+TUvpXTQaPODkDOmYa7xyn2pMfKjEK9rJkT5elKAFTdHABQnMiY/Lw9Asw4t17WLm/PSvi9D75g1VtH7dEzmXEWAbuEH4F4HIOAq5OmXQlATjcfZOBAwRw8Aa9LOoOPbGIPPUVzXxt8Jpic25nMxD2kRVAECHioZmgHTWR/QgHI9ZlzmCA7/kxE0sef+/2psI+huTLV01/NNWz7cgLNctVBGgVCgBhH1crauN/sTCgA2aL5NWKcFUiEYnS7BBi0d5DHQoeBXi2aN4Lx8TB8iY9tCTDh6/WSdvZ4bMYVgMMX3DPlH8PdvwLoXwVw+AQYfHrdKHw7fM/+eczp1QsYvMQ/i2LJPQH+w2smj7zr3kWz122vz7gCkNXNEwi4yb1Daek3AQJ92wYWxXk2kJtX3Y8VfsRvNmJvYgIMnFg3tJs9CYCqm98BcNrEbqRFwAR+R+BSzSgEckZ8wLE3zTe/RuTG38LwJT62IPBdy9Cc17RjXtudAajF2hvA634F4LUCNCoEeIiAq+MqBLKepCPj6DnQlHdZpdz/jeV9+wKgm58EcE1HQhanExDYIATrJv/p248sOnEkTriyevUTBL4uTjEnINZPWYZ2bUsCkOszb2NqfhEmV3QJPMps3zCpq3H9Axe9+4/RDXPLyNQ+swSCHpd44x4nMX5UK2tjnhU55gygZ25lH1vBr0AkizliUX1+DsD1CinfGyrlnTMaI3+punk7gGMiH2gSAmRuKDbeNdapzmMKQK44eDqzPeaUIQk8Ep7DWhDdxWjcPdK9212PLDowkrcIql49EuD/TXgtIpMekfLJWql3m1uvMQVA1c0rAXwuMtFLIB4J0FMA302s3EWZkbuHBg77s0dDgXTL6dXrGPyJQIyL0a0JXGUZ2ue3/o9jC0CfOSQbQCRuBL0C4C4w/S8RL68Z2uOdztDZYyDDmcFOx5EK/4yaVdZ6JhSAnv7Vb7btkadTASXdSS4H0/JOi0FWrw4SWI6XC2EsKkr3HkMDM7aYBW4zA1D1ynEA3RJCPOIiOgQ6JgZZvbKQQAuigyLJkfDxllG4dfMMtxGArG4uJaClrYWTjCyFuS0nxo93nTJ8zb2LZo8GnX9u3opeVpRq0H7EPsDAsrqhzRtXAFTdvAfA4QIs9QQeZMK1OzXsaypLZ70QJA1VN51DUuUswyAhb7B9r2Vos7cvAMykFqsvAtgx+FjEQ0wIPM7AtfYUvmbtwsJfg4g5p1e+zmhuIiJXsARetkr5nUHEG91scQuQLVYLxLwi2BjEekwJ/InAXwniO4Ssfv/hhIwz85QrYAJbn0q9pQDo5lwClgYcg5iPMwHmS6xy4T/8TCF3/n3TuKsr9CPS/MwhLrYYmFc3tE2H+2whADnd/CEDY64ZjkuCEmfwBIhxWa2sneeXp+kXmG9RGojM6Uh+5RVFOwTcVjM05yi45rX1DOAvcjZcFMsWsZgYdausqX5FlT/P3GHdZLzslz2xs30CDDxTN7RNW7hvEoDmB0AZ6vjqMCleHAjQS5aR9+148Q1bz012VirKFQIBpcFTN34YtEkAcsXqR5h5i0UCIcQiLuJJ4AHL0A7xK/SD567afTQzGqnvFPzKLYp2iOi4Win/wy1uAXLF6jxmLkcx4NTExHiegHttxi/BfO9uO4489sLI5L2YsRfD3oug7MvAkQAO6CQTApbVtlpQ0k48zfMEGM5aALlCIEBEfbVSvvmwf9MMQNUr3wTo0yH4FxdjEuDblS58aWhJ4YmJAKnFwf0BPhJszwFoTsiHcLxsA7PWGJo1UZxufy6rAd2S8qsdf8syCp/ZSgBkBaBfeFu1084R4dPO/+Xema7uOcTsHODiiMEOrfpvpT2jMbtuHHpvK30maqvq5scAfG+idvJz3whsWhG42QzAdF7DvMU3F2LIHQHCp62S5svei6++TmsKAXFTDF7jLoiJWzFwG5Ey3yr1+r69t6pXLwbY17UFE2eU6hZ/sgxtz00zAHkN06HBQLjTKmlHBeFdLd73BrIzcxh0OAi9Hp8bPA7i5WzT992cNOs1D/n+xCs57/2mDGPH6qXaK80ZgKzE8g6ynZ5uzm5rx/7mfafNG9xTUew8EU0D824M2g3g3QjY6nUer4XNa6mr64HaQO9av/xvz85B+v2vnYTM71lOFQ4a9Rb2aXR0eu3iw9ZuEAB5BRgq/KYzxjVWWUv9Q1c5fSr8odec+r/6KnCjAMgrwLDrwHSmVc47ey+m+srq5jcIOCPVEDqQ/MZXgU0BkFeAHagA0/uscn55BzxHymVWN58g4O2RCioVwWx4FfiqAMgrwLBrTsA7orAxZ9h5b+5P7aueA+L/6mQMKfbdfBW4UQDkFWDII8EytHFPZg45nNDdHbDAfF33MJxDTKaG7lwcOgSarwJJXgF2ZjQEsaCmM5l48yqbgXrj5mcv51UgyStAP5G6t8XgRXWjsNB9j+S0VIuVPJjuA9CVnKzil4nzKpCm65X3KqA74xd+7CPeZoPG2GfkMoGcbt7BwPtdNpdmARGwwXNIzgEIiK4Ls0Q4plbS7nDRNDFNZOofpVLy8ZTVK58gkJzX3pG60FMNxT567UDhoY64D9mp/PKHDHwCdww+nXK6eTYDX41WaOmJhoGVOwxjtrMuO8lZ5/pM5yOlnyU5x7jlRsA5lNXNIgEDcQs+YfH+mGzFqC3tTeRBmTm9eh6DL0lYzWKfDgP9pOqm88tfjH028U9gFERGY/2OxtqLp78U/3SAmQsGdx0Ztr8F4IQk5JPAHEqOADjT/7MTmFwsUyLAYqIb0Gh831o6K7anNL865Xd++ZvfncsVSQJfo5xevY7Bn4hkeGkOivAsMX2fGXfE6ZsBZ4XfpGH+gpz4G/3BS6Bvk6pXbwH4uOiHm+oImxtzwFaWR1kMXl3b/wVZ3huXsUq3Om8B7mTgvXEJWeLEJjEYpdHBB41Dn+s0k6xePRnOE2XwzE7HIv7dEyDg585CIBOgvPtu0jJCBF4EYSWBVnLDtpgza+rLen8TRny5edX9WGFn3BwP4OgwfIoPvwlw1XkI6Gz7dJDfpsVeRwiMAngAwBrL0D7vZwTTdVNVbOQ4A1VhaAz4djSYn3GKrZYIPOgIwJMA9mqpmzSOPAG/PzdWdXPTmfKRT14CdEvgd44A/A3A6932kHbxICACEI86dTjKvzsCMAygu8OBiHufCYgA+Aw0meZGRACSWViIACS0sP6m1RQAuQXwF2okrIkARKIMUQ+ieQsgDwGjXiYP8YkAeICWvi7Nh4DyGjCBhRcBSGBR/U/JeQ0oC4H859p5i+sVZfeHBnqf8SOSA/sH3zTJtv/ihy2xESUCzkKgonkzuLmaS64EEXD2e1tjFH7uR0qyb6QfFCNog3ALqcXqYjDPj2B4ElIbBJgwt17SLm7DxKau2aJ5PjGW+WFLbESIANESyuorTiYoN0QoLAnFHwLXW4Z2mh+mVN38LoBT/bAlNqJDgGGfQj391Zxt81B0wpJI/CBAwDpW8AFrQLu7HXtqv3kE2XC28Z7Sjh3pGz0CikI91LNw9Y72upFEbEEVPcSdjoh+bRn5d7UThapXfwXwO9uxIX2jSUCZ0r3TxtOBqwD1RjNMiao9AvQTy8h/0IsNVa/eDvAxXvpKn6gT4EHLKOQ3CEBfZT6IFkc9ZInPM4GrWv08WNXN7wDw5RmC56ilY3AEmC+0yoUlGwXgMBD9MjhvYjkCBExu8Fn1ZYX6eLHk+s05bEM284xAwQINgfndVrlwX1MATjjhpszj++z5BwB7BOpUjHeWAOFFALfD5kdJoTpR99AojSgZm2Y6G3yQzQcy4djOBineQyDw9NQnnvrXm28+sbHpjPqsXrmBQM7ebnIJASGQYAIMvrFuFE5xUtxMAKonE1jWAyS48JKaEHAIMOiUupG/cQsBaO7nvg6/IcLrBJMQEALJJMCMZ9dPwTseXqQ9u4UAOP9HbgOSWXTJSghsJLD59H8MAZDbABkqQiDJBDaf/m8jAM23AVPfWgPztCRDkNyEQCr3omWiAAADyUlEQVQJEK2d+vgfc87T/435b3oIuPE/5Irmucy4NJWAJGkhkGACRDivVtIu2zzFbQSgp2/1a2yMWCDsnWAWkpoQSBcBxpMKutWh8ox/jCsAzg/VYnU+mGVpcLqGiGSbZAJEF1ql/JKtU9xmBtB8G3DuPbvR5Mn3gJBNMhPJTQikggCjzsPDs+uXzX7elQA0RWCeeSwpuC0VgCRJIZBgAmzjw/Wl2o/GSnHMGcCmB4J95qVMODfBbCQ1IZBoAsS4rFbWzttekuMKgNwKJHpsSHJJJzDO1H9j6uMKgNMop5tHMbA86awkPyGQNAIEHF0ztJ+Nl9eEAtB8HqCbRQIGkgZI8hECSSXAQH/d0EoT5edKABwjap95M0jOD5gIqPxcCHScAOMWq6yd4CYO1wIwQ1/19gZG7wQw1Y1haSMEhEBHCDyeQdec1cYhv3Xj3bUANG8F+irvJ6I73BiWNkJACIRPgJk/UC8XfurWc0sC0LwVKJqfAjf3jJNLCAiBKBEgfNoqade0ElLLAuAYzxWr85i53IojaSsEhEBwBIior1bKL23VgycB2CACldOZ6dpWHUp7ISAE/CVAxJ+slQrXebHqWQAcZz39g7Nt2/6FF8fSRwgIgfYJKIrynqGB3nu8WmpLABynWb1yMIGcwyP39RqE9BMCQqBlAo8x+LS6UXig5Z6bdWhbABxbzVeEPFqWdQLtlEL6CgGXBBi3ZKirz+2rvvGs+iIAGx3IikGXBZRmQsAjAbcr/Nya91UAHKfNbwcYJdlLwG0JpJ0QcEGAUSdCcaK1/S4sbdHEdwFoPhc4957dlMmTF8inxK2WQ9oLgW0JOJ/02sPDi8ba0KNdXoEIwKZbAmdTEcICmQ20Wybpn0oCzue8jEXb28zDDyaBCsDG2QDtMOVs2PxJ2WjUj5KJjcQTYDwJha7lV9Z9LYi/+pvzC1wANjpzdhtmZeR0Bp0u5w4kfghLgl4IEK0l8HVkd1+39e69Xsy56ROaAGwMxjl85Df7vPUkwD4aTEfLWYRuyiRtkkrAOasPxMsBZfk7nvjj9zc/tCOMnEMXgM2Tah5IOkxHO2JAoCMBvCmMpMWHEOgwgWcYfJfzS79+Mi/feFBnJ2LqqABsnvAJN3Hmt7WVRzRgH0mMI0DIdQKI+BQCgRBg1JhwdwbKXW/Pzbz75hNp0/FcgfhzaTQyArB1vD0LV++IkfX7NuzGfkSZfQHeF8xvAWhnALts9k+3y1ylmRAIgsAIgBf+/z/8Ioj+BNBjzI3HMkrmUXRPemxo4YyXg3Ders3/BxXEOhVtJJxHAAAAAElFTkSuQmCC;" vertex="1" parent="1">
          <mxGeometry x="-2180" y="1150" width="64" height="64" as="geometry" />
        </mxCell>
        <mxCell id="CEV9l8MN5-AWiUajf7o9-732" value="" style="shape=image;imageAspect=0;aspect=fixed;verticalLabelPosition=bottom;verticalAlign=top;image=data:image/png,iVBORw0KGgoAAAANSUhEUgAAASAAAAEACAYAAAATL6u2AAAAAXNSR0IArs4c6QAAEPJJREFUeF7t3WuMnHUVx/FzZottyi0E8EIFlWCAKnRnFmo7W4iVFl/IRQ2XKBFSULnICirszC5IkUB3FgxNJFFDkAZ8gxh9pSQKiJHuzFLoTqlGkNQgmKKJqKFcbMvO/M1sKWlLtzuz53nmzDPPt295zv/853NOf1l2Zrcq/EEAAQScBNSpL20RQAABIYBYAgQQcBMggNzoaYwAAgQQO4AAAm4CBJAbPY0RQIAAYgcQQMBNgAByo6cxAggQQOwAAgi4CRBAbvQ0RgABAogdQAABNwECyI2exgggQACxAwgg4CZAALnR0xgBBAggdgABBNwECCA3ehojgEDbAqiv8Ojh9cz88yTI+Sp6fJBwlIgeKSLzncfwlkj4t4q+GiS8oKI/e7Nef+wvdy573fletEeg6wViD6DcYOXk0CMDEuTLIuHwZIiG/4pmHtKa3DNx59LnknFnbolA8gRiDaDeYuV21dAIn8OSRyMiKttC0Hs2lZbenMj7c2kEOlwgtgDKFssPi8iFHf76m7xeeLJa6j+zyYd5DAEEmhSIJYCyxfKLIvLRJu+QjMdCeLU62n90Mi7LLRFIhkDkAZQtjP1LVI9Kxstv+ZZ/q5byH2u5igIEENivQKQBlC2O/UFEz+hy659XS/mLuvw18vIQaItAZAE09Q1nCTe15dbOTYLoHXxj2nkItO8KgUgCaNdb7WE8se92tTpKlW1a0yW8Rd8qHM8jsLdAJAGUHar8UEK4OlW4qj+qjiy9JlWvmReLQMQC5gA6cXD9ofMz+pKIHhHx3Tr8OH0tE974yMbRla91+EW5HgIdK2AOoFyx/IUg8suOfYVxXkzDpdWR/p/G2YKzEehmAXMAZYtjD4noxd2MNP1rC7+olvovSOdr51UjYBcwB1CuWJ4IIln7VZJ3gopUJ0r5XPJuzo0R6AwBcwBli2Mvi+ixnfFy2n2L8Pdqqf+4dnelHwLdIhBBAJXf7IBfqeE1j7eqpfzBXs3pi0DSBaIIoJB0BMv9q6W82dDSn1oEkixg/suTLZYJoCRvAHdHwFGAADLi8xWQEZDyVAsQQMbxE0BGQMpTLUAAGcdPABkBKU+1AAFkHD8BZASkPNUCBJBx/ASQEZDyVAsQQMbxE0BGQMpTLUAAGcdPABkBKU+1AAFkHD8BZASkPNUCBJBx/ASQEZDyVAsQQMbxE0BGQMpTLUAAGcdPABkBKU+1AAFkHD8BZASkPNUCBJBx/ASQEZDyVAsQQMbxE0BGQMpTLUAAGcdPABkBKU+1AAFkHD8BZASkPNUCBJBx/ASQEZDyVAsQQMbxE0BGQMpTLUAAGcdPABkBKU+1AAFkHD8BZASkPNUCBJBx/ASQEZDyVAsQQMbxE0BGQMpTLUAAGcdPABkBKU+1AAFkHD8BZASkPNUCBJBx/ASQEZDyVAsQQMbxE0BGQMpTLUAAGcdPABkBKU+1AAFkHD8BZASkPNUCBJBx/ASQEZDyVAsQQMbxE0BGQMpTLUAAGcdPANkAewfXr5SenhUa6icF0RNV5EQR2Rwk/FFEttTnzHlg8+2fetHWherpBLz9CSDjbhJArQPmhsdPDfX610TC+SJ67AwnbBPVB1T1vok1Sza33o2KfQU6yZ8AMu4nAdQ84Ok3bTj27drkgEoYENF5zVdOPflKkNolm0pn/L7FOh5/R6AT/Qkg43oSQDMDLlz9p0Pet2Pb7uD50MwV0z8RpLacEGpNsJP9CaDWZvmepwmgAwNmi5WrZOorHllopH63PJOZPGbjmjP/EdV53XxOp/sTQMbtI4D2D5grVi4Ou4Kn30i8n3J9JPOfgz6/8d7T3o7+7O44MSn+BJBx3wigvQFzhfJn6yrXqsg5RtoDlquEmydK/XfE2SOJZyfNnwAybhkBtAtw0WB5cSYj14rIV4ykTZbrC/N2hN7K2vz/mizo6seS6k8AGdcy7QHUe+P4x3VObUCCNv53q81/9OpqaemP29y0o9ol3Z8AMq5TWgOo7zvPHFV/384BCWFwFm+pG9XfLb+/WspfEdVhSTqnW/wJIOPWpS2ALnw49Py1Wml8jufbIYSZPkRo1J2xfKxayi+b8akueqDb/Akg43KmKYB6hyqXZUK4LohkjWwRleur1dLSoyM6rOOP6UZ/Asi4dmkIoOxQ5TwJU2+przByRV6Of+SkLR1o9SeAWuJ+78PWARjbx1qeG3rqjBBqjeC5MNZGhsPxN+BFUGr1J4CMQ7AOwNg+lvK+QvmU2q7P8nw9lgYRHop/hJizOMrqTwDNAn3PEusAjO0jLT91cPzDGa0NqOpgpAfHeBj+MeI2cbTVnwBqAvlAj1gHYGwfSfmpNzx7cE/PmwOicquIzI3k0DYdgn+boKdpY/UngIzzsw7A2N5cniuUrwwq3xWRBebDHA7A3wF9j5ZWfwLIOD/rAIztZ12eG65cFOoyLBIWzfqQDijE33cIVn8CyDg/6wCM7Vsu7x0eX6m1ekFUzmq5uAML8PcditWfADLOzzoAY/umy7M3PXWa1CZvENGLmy5KwIP4+w7J6k8AGednHYCx/YzluWL5hHqQ61XlGzM+nMAH8PcdmtWfADLOzzoAY/tpyxcPPXXkztD4/cu6Oq4enXAu/r5TsPoTQMb5WQdgbP/e8tUh07u9MqAqd4nIQZGf32EH4u87EKs/AWScn3UAxvZ7lWcL5UtFQ0lETb/4Pco7xX0W/nELH/h8qz8BZJyfdQDG9lPluULl3KCh8etJT4nivCSdgb/vtKz+BJBxftYBWNr3FcaX1aR2m6out5yT5Fr8fadn9SeAjPOzDmA27RcVNnyiJ1O7JYRw0Wzqu6kGf99pWv0JIOP8rANopf2ib5UX9MzV4SDhmlbquvlZ/H2na/UngIzzsw6gmfZ9tz4zv75jZ0GC3NLM82l6Bn/faVv9CSDj/KwDmKl9ttD4/cv1taLaM9Ozafzv+PtO3epPABnnZx3AdO2zxfKXgshaFfmA8YpdXY6/73it/gSQcX7WAezbvndw/cpMJnN3EPmk8WqpKMffd8xWfwLIOD/rAHa3zxXH+4LUvy8inzZeKVXl+PuO2+pPABnnZx3AacUNx9d0clSCXGC8SirL8fcdu9WfADLOb7YDOKW4+Yg58sYaEbnKeIVUl+PvO/7Z+u++NQFknF/rAwiaHRq/TUK42diachHB33cNWvff+74EkHF+rQygt1C+TlXvFgkZY1vK3xHA33cVWvHf300JIOP8mhlAb3H9JSqZu0Xk/cZ2lO8jgL/vSjTjf6AbEkDG+R1oAH3F8bPrjQ8Riiw0tqF8GgH8fVeDAPL13+/3IPqGK7l6PTSC50zn63V9+/39BcC/fWMngNpnvd9Oew6gr/DkcXXpWSsqX3S+Vmra4+87agLI13/qK6DGD4vWtu9s/NhEx/9b6s5ckbfHP3LSlg4kgFriiv7hEMIaVR2O/mRObEYA/2aU4nuGAIrPlpMRQGAGAQKIFUEAATcBAsiNnsYIIEAAsQMIIOAmQAC50dMYAQQIIHYAAQTcBAggN3oaI4AAAcQOIICAmwAB5EZPYwQQIIDYAQQQcBMggNzoaYwAAgQQO4AAAm4CBJAbPY0RQIAAYgcQQMBNgAByo6cxAggQQOwAAgi4CRBAbvQ0RgABAogdQAABNwECyI2exgggQACxAwgg4CZAALnR0xgBBAggdgABBNwECCA3ehojgAABxA4ggICbAAHkRk9jBBAggNgBBBBwEyCA3OhpjAACBBA7gAACbgIEkBs9jRFAgABiBxBAwE2AAHKjpzECCBBA7AACCLgJEEBu9DRGAAECiB1AAAE3AQLIjZ7GCCBAALEDCCDgJkAAudHTGAEECCB2AAEE3AQIIDd6GiOAAAHEDiCAgJsAAeRGT2MEECCA2AEEEHATIIDc6GmMAAIEEDuAAAJuAgSQGz2NEUCAAGIHEEDATYAAcqOnMQIIEEDsAAIIuAkQQG70NEYAAQKIHUAAATcBAsiNnsYIIEAAsQMIIOAmQAC50dMYAQQIIHYAAQTcBAggN3oaI4AAAcQOIICAmwAB5EZPYwQQIIDYAQQQcBMggNzoaYwAAgQQO4AAAm4CBJAbPY0RQIAAYgcQQMBNgAByo6cxAggQQOwAAgi4CRBAbvQ0RgABAogdQAABNwECyI2exgggQACxAwgg4CZAALnR0xgBBAggdgABBNwECCA3ehojgAABxA4ggICbAAHkRk9jBBAggNgBBBBwEyCA3OhpjAACBBA7gAACbgIEkBs9jRFAgABiBxBAwE2AAHKjpzECCBBA7AACCLgJEEBu9DRGAAECiB1AAAE3AQLIjZ7GCCBAALEDCCDgJkAAudHTGAEECCB2AAEE3AQIIDd6GiOAAAHEDiCAgJsAAeRGT2MEECCA2AEEEHATIIDc6GmMAAIEEDuAAAJuAgSQGz2NEUCAAGIHEEDATYAAcqOnMQIIEEDsAAIIuAkQQG70NEYAAQKIHUAAATcBAsiNnsYIIEAAsQMIIOAmQAC50dMYAQQIIHYAAQTcBAggN3oaI4AAAcQOIICAmwAB5EZPYwQQIIDYAQQQcBMggNzoaYwAAgQQO4AAAm4C7gHUWyxvU5FD3QRojAACLgJB5PVNpfxhluZqKW7UZovl50TkJOs51COAQOIEnq+W8idbbm0PoEL5MVE5y3IJahFAIIECQR6vjuZXWG5uD6Bi+QERudRyCWoRQCCRAg9WS/nLLDePIoDWiMiQ5RLUIoBAIgVGqqX8sOXm5gDqK4wvq2v9ScslqEUAgQQKZGRFdU3+ccvNzQH0zjeiXxKR4ywXoRYBBBIl8Eq1lF9gvXEkAZQrlO8KKjdYL0M9AggkQyCI3LuplL/SettIAmhRcezsjOhvrJehHgEEkiGgKudOjOR/Zb1tJAHUuESuWJ4IIlnrhahHAIHOFlCR6kQpn4vilpEFULZQGRANP4jiUpyBAAIdLBD0m9XRpfdEccPIAmjh6icOmbtjblVETojiYpyBAAIdKbBlx9wd2T9/b/kbUdwusgBqXKa3WB5SkcbngviDAAJdKBBEhjeV8iNRvbRIA+j0Gzd8cLJnsvGZIL4KimpCnINA5wg8P6c2Z/nTdy3+Z1RXijSApr4KKox9TlXN3x2P6gVyDgIIRCMQJCzeVOp/OprTdp0SeQA1Ds0Ola+QIPdFeVHOQgABP4FMJvOZjWuWPBH1DWIJoMYlc0OVwRDCaNQX5jwEEGivgGq4fGKkf10cXWMLoF0hNLYqBL0/jotzJgIIxC+gqoWJkaV3xtUp1gBqXLpveHx5vV7/XVwvgHMRQCAmAZWvVkfyP4np9Pi+B7TvhXuLY6er6IP85sQ4R8nZCEQmsCWEcP2m0f5fR3biNAfF/hXQ7r6Nt+jf7plcpSKX8zZ93GPlfARmJbAliNx/UG3Ouijfaj/QTdoWQLsvMfWJ6e3zVqmGVfzs2KyWhCIEIhVo/GxXCLpux7zt66L6hHOzF2x7AO15sdxQ+Zx6kHNV5BwROabZS/McAgiYBV7WIA/XNDz6bKn/t+bTZnmAawDteefscPksqU/9cvsFEmSBqCwIIgv4J39mOVnKEBCRxj+doyJbJchWUdkqIlszIfPIxtEl6zsBqGMCqBMwuAMCCLRXgABqrzfdEEBgDwECiHVAAAE3AQLIjZ7GCCBAALEDCCDgJkAAudHTGAEECCB2AAEE3AQIIDd6GiOAAAHEDiCAgJsAAeRGT2MEECCA2AEEEHATIIDc6GmMAAIEEDuAAAJuAgSQGz2NEUCAAGIHEEDATYAAcqOnMQII/B8UGXVbn1/OywAAAABJRU5ErkJggg==;" vertex="1" parent="1">
          <mxGeometry x="-1768" y="800" width="72" height="64" as="geometry" />
        </mxCell>
      </root>
    </mxGraphModel>
  </diagram>
</mxfile>
